<?xml version="1.0" encoding="UTF-8" standalone="no"?><svg xmlns="http://www.w3.org/2000/svg" xmlns:xlink="http://www.w3.org/1999/xlink" clip-rule="evenodd" stroke-miterlimit="10" viewBox="0 0 1024 768"><desc>SVG generated by Keynote</desc><defs></defs><g transform="matrix(1.00, 0.00, -0.00, -1.00, 0.0, 768.0)"><path d="M 0.0 768.0 L 1024.0 768.0 L 1024.0 0.0 L 0.0 0.0 Z M 0.0 768.0 " fill="#000000"></path><text xml:space="preserve" font-family="Aller-Bold,Aller" font-weight="bold" font-size="73.6" fill="#A2CCA0" transform="matrix(1.00, 0.00, -0.00, -1.00, 17.2, 244.8)">S</text><text xml:space="preserve" font-family="Aller-Bold,Aller" font-weight="bold" font-size="73.6" fill="#A2CCA0" transform="matrix(1.00, 0.00, -0.00, -1.00, 57.7, 244.8)">o</text><text xml:space="preserve" font-family="Aller-Bold,Aller" font-weight="bold" font-size="73.6" fill="#A2CCA0" transform="matrix(1.00, 0.00, -0.00, -1.00, 100.4, 244.8)">f</text><text xml:space="preserve" font-family="Aller-Bold,Aller" font-weight="bold" font-size="73.6" fill="#A2CCA0" transform="matrix(1.00, 0.00, -0.00, -1.00, 129.5, 244.8)">t</text><text xml:space="preserve" font-family="Aller-Bold,Aller" font-weight="bold" font-size="73.6" fill="#A2CCA0" transform="matrix(1.00, 0.00, -0.00, -1.00, 157.7, 244.8)">w</text><text xml:space="preserve" font-family="Aller-Bold,Aller" font-weight="bold" font-size="73.6" fill="#A2CCA0" transform="matrix(1.00, 0.00, -0.00, -1.00, 217.0, 244.8)">a</text><text xml:space="preserve" font-family="Aller-Bold,Aller" font-weight="bold" font-size="73.6" fill="#A2CCA0" transform="matrix(1.00, 0.00, -0.00, -1.00, 255.4, 244.8)">r</text><text xml:space="preserve" font-family="Aller-Bold,Aller" font-weight="bold" font-size="73.6" fill="#A2CCA0" transform="matrix(1.00, 0.00, -0.00, -1.00, 283.9, 244.8)">e</text><text xml:space="preserve" font-family="Aller-Bold,Aller" font-weight="bold" font-size="73.6" fill="#A2CCA0" transform="matrix(1.00, 0.00, -0.00, -1.00, 325.3, 244.8)"> </text><text xml:space="preserve" font-family="Aller-Bold,Aller" font-weight="bold" font-size="73.6" fill="#A2CCA0" transform="matrix(1.00, 0.00, -0.00, -1.00, 341.5, 244.8)">&gt;</text><text xml:space="preserve" font-family="Aller-Bold,Aller" font-weight="bold" font-size="73.6" fill="#A2CCA0" transform="matrix(1.00, 0.00, -0.00, -1.00, 385.6, 244.8)"> </text><text xml:space="preserve" font-family="Aller-Bold,Aller" font-weight="bold" font-size="73.6" fill="#A2CCA0" transform="matrix(1.00, 0.00, -0.00, -1.00, 401.8, 244.8)">P</text><text xml:space="preserve" font-family="Aller-Bold,Aller" font-weight="bold" font-size="73.6" fill="#A2CCA0" transform="matrix(1.00, 0.00, -0.00, -1.00, 444.7, 244.8)">l</text><text xml:space="preserve" font-family="Aller-Bold,Aller" font-weight="bold" font-size="73.6" fill="#A2CCA0" transform="matrix(1.00, 0.00, -0.00, -1.00, 468.6, 244.8)">a</text><text xml:space="preserve" font-family="Aller-Bold,Aller" font-weight="bold" font-size="73.6" fill="#A2CCA0" transform="matrix(1.00, 0.00, -0.00, -1.00, 507.0, 244.8)">t</text><text xml:space="preserve" font-family="Aller-Bold,Aller" font-weight="bold" font-size="73.6" fill="#A2CCA0" transform="matrix(1.00, 0.00, -0.00, -1.00, 535.2, 244.8)">f</text><text xml:space="preserve" font-family="Aller-Bold,Aller" font-weight="bold" font-size="73.6" fill="#A2CCA0" transform="matrix(1.00, 0.00, -0.00, -1.00, 562.1, 244.8)">o</text><text xml:space="preserve" font-family="Aller-Bold,Aller" font-weight="bold" font-size="73.6" fill="#A2CCA0" transform="matrix(1.00, 0.00, -0.00, -1.00, 604.8, 244.8)">r</text><text xml:space="preserve" font-family="Aller-Bold,Aller" font-weight="bold" font-size="73.6" fill="#A2CCA0" transform="matrix(1.00, 0.00, -0.00, -1.00, 634.4, 244.8)">m</text><text xml:space="preserve" font-family="Aller-Bold,Aller" font-weight="bold" font-size="73.6" fill="#A2CCA0" transform="matrix(1.00, 0.00, -0.00, -1.00, 699.1, 244.8)"> </text><text xml:space="preserve" font-family="Aller-Bold,Aller" font-weight="bold" font-size="73.6" fill="#A2CCA0" transform="matrix(1.00, 0.00, -0.00, -1.00, 715.3, 244.8)">&gt;</text><text xml:space="preserve" font-family="Aller-Bold,Aller" font-weight="bold" font-size="73.6" fill="#A2CCA0" transform="matrix(1.00, 0.00, -0.00, -1.00, 759.4, 244.8)"> </text><text xml:space="preserve" font-family="Aller-Bold,Aller" font-weight="bold" font-size="73.6" fill="#A2CCA0" transform="matrix(1.00, 0.00, -0.00, -1.00, 775.6, 244.8)">S</text><text xml:space="preserve" font-family="Aller-Bold,Aller" font-weight="bold" font-size="73.6" fill="#A2CCA0" transform="matrix(1.00, 0.00, -0.00, -1.00, 816.1, 244.8)">e</text><text xml:space="preserve" font-family="Aller-Bold,Aller" font-weight="bold" font-size="73.6" fill="#A2CCA0" transform="matrix(1.00, 0.00, -0.00, -1.00, 857.5, 244.8)">n</text><text xml:space="preserve" font-family="Aller-Bold,Aller" font-weight="bold" font-size="73.6" fill="#A2CCA0" transform="matrix(1.00, 0.00, -0.00, -1.00, 900.7, 244.8)">s</text><text xml:space="preserve" font-family="Aller-Bold,Aller" font-weight="bold" font-size="73.6" fill="#A2CCA0" transform="matrix(1.00, 0.00, -0.00, -1.00, 934.5, 244.8)">o</text><text xml:space="preserve" font-family="Aller-Bold,Aller" font-weight="bold" font-size="73.6" fill="#A2CCA0" transform="matrix(1.00, 0.00, -0.00, -1.00, 977.2, 244.8)">r</text><g><clipPath id="clip0x6000014ac960"><path d="M 868.0 194.5 L 997.8 194.5 L 997.8 28.0 L 868.0 28.0 Z M 868.0 194.5 "></path></clipPath><g clip-path="url(#clip0x6000014ac960)"><g><clipPath id="clip0x6000014acae0"><path d="M 868.0 28.0 L 998.0 28.0 L 998.0 195.0 L 868.0 195.0 Z M 868.0 28.0 "></path></clipPath><g clip-path="url(#clip0x6000014acae0)"><path d="M 868.0 33.6 L 923.8 33.6 L 923.8 28.0 L 868.0 28.0 Z M 868.0 33.6 " fill="#FFFEFE"></path></g></g></g></g><g><clipPath id="clip0x6000014accc0"><path d="M 868.0 28.0 L 998.0 28.0 L 998.0 195.0 L 868.0 195.0 Z M 868.0 28.0 "></path></clipPath><g clip-path="url(#clip0x6000014accc0)"><path d="M 933.2 172.0 C 936.1 171.9 938.6 174.2 938.7 177.1 C 938.8 180.1 936.5 182.5 933.5 182.6 C 930.6 182.7 928.1 180.4 928.0 177.4 C 928.0 174.5 930.3 172.1 933.2 172.0 " fill="#FFFEFE"></path><path d="M 923.3 173.6 C 924.2 173.6 927.3 173.1 929.4 171.6 C 931.4 170.0 933.7 166.7 933.7 166.3 C 933.8 166.7 936.1 170.0 937.0 170.7 C 938.5 172.0 940.2 173.3 944.3 173.7 L 944.3 168.1 C 943.5 168.1 941.9 167.6 940.5 166.5 C 939.1 165.3 937.6 163.0 937.1 161.4 C 936.6 159.8 936.5 158.4 936.5 157.5 L 936.6 146.6 L 931.0 146.6 L 931.2 157.4 C 931.1 158.4 930.9 160.5 930.4 161.6 C 929.9 162.6 928.7 165.4 926.5 166.8 C 925.9 167.2 924.9 168.1 923.3 168.1 L 923.3 173.6 " fill="#FFFEFE"></path><path d="M 933.7 187.9 C 933.8 187.8 938.6 184.6 942.5 180.7 C 943.8 179.4 947.1 175.4 947.1 170.5 C 947.1 166.0 944.6 162.9 944.3 162.5 C 943.4 161.5 940.0 158.8 938.0 158.5 L 938.0 152.8 C 940.4 153.3 944.6 154.9 946.9 157.2 C 949.3 159.6 951.3 162.5 952.1 166.1 C 953.1 170.2 952.4 175.0 951.1 177.7 C 949.4 181.3 946.5 184.8 942.8 187.8 L 933.7 194.5 L 924.6 187.7 C 920.9 184.7 918.0 181.3 916.3 177.6 C 915.0 174.9 914.3 170.1 915.4 166.0 C 916.3 162.4 918.2 159.5 920.6 157.2 C 923.0 154.8 927.1 153.2 929.6 152.8 L 929.5 158.5 C 927.6 158.7 924.1 161.4 923.2 162.5 C 922.9 162.8 920.4 166.0 920.4 170.4 C 920.4 175.4 923.7 179.4 924.9 180.6 C 928.8 184.6 933.6 187.8 933.7 187.9 " fill="#FFFEFE"></path><path d="M 907.7 141.8 C 907.6 142.7 907.0 143.3 906.0 143.3 C 904.9 143.3 904.3 142.4 904.3 140.5 C 904.3 139.2 904.6 138.0 906.1 138.0 C 907.1 138.0 907.6 138.7 907.7 139.6 L 910.6 139.6 C 910.3 137.1 908.6 135.6 906.2 135.6 C 903.1 135.6 901.2 137.6 901.2 140.6 C 901.2 143.7 903.3 145.6 905.9 145.6 C 908.7 145.6 910.3 144.2 910.6 141.8 L 907.7 141.8 " fill="#FFFEFE"></path><path d="M 911.3 145.4 L 914.0 145.4 L 914.0 135.9 L 911.3 135.9 Z M 911.3 145.4 " fill="#FFFEFE"></path><path d="M 917.5 138.7 C 917.5 137.9 918.1 137.4 918.8 137.4 C 919.2 137.4 919.6 137.6 919.8 138.0 L 922.4 138.0 C 921.9 136.3 920.2 135.7 918.6 135.7 C 916.5 135.7 914.8 136.9 914.8 139.3 C 914.8 141.5 916.5 143.0 918.6 143.0 C 921.1 143.0 922.7 141.2 922.6 138.7 L 917.5 138.7 Z M 919.9 140.1 C 919.9 140.7 919.4 141.3 918.7 141.3 C 917.9 141.3 917.5 140.9 917.5 140.1 L 919.9 140.1 " fill="#FFFEFE"></path><path d="M 922.6 142.8 L 925.3 142.8 L 926.5 138.4 L 927.6 142.8 L 930.2 142.8 L 927.9 135.9 L 924.9 135.9 L 922.6 142.8 " fill="#FFFEFE"></path><path d="M 932.6 138.7 C 932.6 137.9 933.2 137.4 933.9 137.4 C 934.4 137.4 934.8 137.6 935.0 138.0 L 937.5 138.0 C 937.1 136.3 935.4 135.7 933.8 135.7 C 931.6 135.7 929.9 136.9 929.9 139.3 C 929.9 141.5 931.6 143.0 933.8 143.0 C 936.3 143.0 937.8 141.2 937.7 138.7 L 932.6 138.7 Z M 935.1 140.1 C 935.1 140.7 934.5 141.3 933.9 141.3 C 933.1 141.3 932.6 140.9 932.6 140.1 L 935.1 140.1 " fill="#FFFEFE"></path><path d="M 938.4 145.4 L 941.0 145.4 L 941.0 135.9 L 938.4 135.9 Z M 938.4 145.4 " fill="#FFFEFE"></path><path d="M 946.8 135.9 L 946.7 136.6 C 945.9 135.9 945.2 135.7 944.1 135.7 C 942.9 135.7 941.7 136.3 941.7 137.8 C 941.7 140.9 946.6 139.5 946.6 140.8 C 946.6 141.3 946.0 141.3 945.7 141.3 C 945.3 141.3 944.8 141.3 944.7 140.7 L 942.1 140.7 C 942.1 142.1 943.2 143.0 945.8 143.0 C 949.1 143.0 949.2 141.8 949.2 140.1 L 949.2 136.9 C 949.2 136.5 949.3 136.3 949.6 136.0 L 949.6 135.9 L 946.8 135.9 Z M 946.6 138.9 C 945.7 138.5 944.5 138.7 944.5 137.8 C 944.5 137.5 944.8 137.2 945.4 137.2 C 946.3 137.2 946.6 138.0 946.6 138.9 " fill="#FFFEFE"></path><path d="M 950.3 142.8 L 952.8 142.8 L 952.8 141.7 C 953.4 142.5 954.0 143.0 955.0 143.0 C 956.8 143.0 957.7 141.9 957.7 140.0 L 957.7 135.9 L 955.0 135.9 L 955.0 139.5 C 955.0 140.2 954.8 140.8 954.0 140.8 C 953.2 140.8 953.0 140.3 953.0 139.4 L 953.0 135.9 L 950.3 135.9 L 950.3 142.8 " fill="#FFFEFE"></path><path d="M 963.4 135.9 L 963.4 136.8 C 962.8 136.0 962.2 135.7 961.4 135.7 C 959.3 135.7 958.3 137.3 958.3 139.2 C 958.3 141.5 959.5 143.0 961.2 143.0 C 962.0 143.0 962.6 142.8 963.2 142.1 L 963.2 145.4 L 965.9 145.4 L 965.9 135.9 L 963.4 135.9 Z M 963.3 139.3 C 963.3 140.0 963.0 140.9 962.1 140.9 C 961.2 140.9 961.0 140.0 961.0 139.2 C 961.0 138.5 961.2 137.7 962.0 137.7 C 963.0 137.7 963.3 138.5 963.3 139.3 " fill="#FFFEFE"></path><path d="M 896.5 124.2 L 896.5 133.7 L 900.1 133.7 L 901.8 127.7 L 903.4 133.7 L 907.1 133.7 L 907.1 124.2 L 904.4 124.2 L 904.4 127.1 L 904.4 128.6 L 904.6 130.3 L 904.5 130.3 L 902.9 124.2 L 900.7 124.2 L 899.0 130.3 L 899.0 130.3 L 899.1 128.9 L 899.2 127.4 L 899.2 124.2 L 896.5 124.2 " fill="#FFFEFE"></path><path d="M 910.4 127.0 C 910.4 126.2 911.0 125.7 911.7 125.7 C 912.2 125.7 912.5 125.8 912.7 126.3 L 915.3 126.3 C 914.9 124.5 913.1 124.0 911.6 124.0 C 909.4 124.0 907.7 125.2 907.7 127.6 C 907.7 129.8 909.4 131.3 911.6 131.3 C 914.1 131.3 915.6 129.5 915.5 127.0 L 910.4 127.0 Z M 912.8 128.4 C 912.8 129.0 912.3 129.6 911.7 129.6 C 910.9 129.6 910.4 129.1 910.4 128.4 L 912.8 128.4 " fill="#FFFEFE"></path><path d="M 920.6 124.2 C 917.0 124.0 916.6 124.2 916.6 126.6 L 916.6 129.5 L 915.7 129.5 L 915.7 131.1 L 916.7 131.1 L 916.7 133.2 L 919.3 133.2 L 919.3 131.1 L 920.6 131.1 L 920.6 129.5 L 919.3 129.5 L 919.3 127.0 C 919.3 126.4 919.4 126.1 920.2 126.1 L 920.6 126.1 L 920.6 124.2 " fill="#FFFEFE"></path><path d="M 921.3 131.1 L 923.8 131.1 L 923.8 129.7 L 923.8 129.7 C 924.2 130.8 924.8 131.3 925.9 131.3 C 926.0 131.3 926.1 131.3 926.2 131.2 L 926.2 128.5 C 926.0 128.5 925.8 128.6 925.7 128.6 C 924.6 128.6 924.0 128.1 924.0 126.6 L 924.0 124.2 L 921.3 124.2 L 921.3 131.1 " fill="#FFFEFE"></path><path d="M 930.1 131.3 C 932.5 131.3 934.0 129.8 934.0 127.7 C 934.0 125.2 932.3 124.0 930.1 124.0 C 927.9 124.0 926.2 125.2 926.2 127.6 C 926.2 130.0 927.8 131.3 930.1 131.3 M 928.9 127.7 C 928.9 126.4 929.4 125.8 930.1 125.8 C 930.8 125.8 931.3 126.4 931.3 127.7 C 931.3 128.7 930.8 129.5 930.1 129.4 C 929.2 129.4 928.9 128.5 928.9 127.7 " fill="#FFFEFE"></path><path d="M 936.9 131.1 L 936.9 130.1 L 937.0 130.1 C 937.3 130.9 938.3 131.3 939.1 131.3 C 941.1 131.3 942.1 129.6 942.1 127.7 C 942.1 125.0 940.5 124.0 939.0 124.0 C 938.2 124.0 937.7 124.3 937.2 124.9 L 937.2 121.8 L 934.5 121.8 L 934.5 131.1 L 936.9 131.1 Z M 939.4 127.6 C 939.4 128.7 939.0 129.3 938.3 129.3 C 937.6 129.3 937.2 128.6 937.2 127.7 C 937.2 126.7 937.6 126.1 938.3 126.1 C 939.0 126.1 939.4 126.7 939.4 127.6 " fill="#FFFEFE"></path><path d="M 947.6 124.2 L 947.4 124.9 C 946.7 124.2 945.9 124.0 944.9 124.0 C 943.6 124.0 942.5 124.6 942.5 126.1 C 942.5 129.2 947.3 127.8 947.3 129.1 C 947.3 129.6 946.7 129.6 946.4 129.6 C 946.0 129.6 945.5 129.6 945.5 129.0 L 942.9 129.0 C 942.9 130.4 943.9 131.3 946.6 131.3 C 949.8 131.3 950.0 130.1 950.0 128.4 L 950.0 125.2 C 950.0 124.8 950.0 124.6 950.3 124.3 L 950.3 124.2 L 947.6 124.2 Z M 947.3 127.2 C 946.4 126.8 945.2 127.0 945.2 126.1 C 945.2 125.8 945.6 125.5 946.1 125.5 C 947.0 125.5 947.3 126.3 947.3 127.2 " fill="#FFFEFE"></path><path d="M 951.1 131.1 L 953.6 131.1 L 953.6 129.7 L 953.6 129.7 C 954.0 130.8 954.6 131.3 955.7 131.3 C 955.8 131.3 955.9 131.3 956.0 131.2 L 956.0 128.5 C 955.8 128.5 955.6 128.6 955.5 128.6 C 954.4 128.6 953.8 128.1 953.8 126.6 L 953.8 124.2 L 951.1 124.2 L 951.1 131.1 " fill="#FFFEFE"></path><path d="M 959.2 126.1 L 959.2 124.2 L 956.5 124.2 L 956.5 133.7 L 959.2 133.7 L 959.2 129.0 L 960.9 131.1 L 964.1 131.1 L 961.6 128.4 L 964.4 124.2 L 961.2 124.2 L 959.7 126.6 L 959.2 126.1 " fill="#FFFEFE"></path></g></g><g><clipPath id="clip0x6000014ad620"><path d="M 868.0 194.5 L 997.8 194.5 L 997.8 28.0 L 868.0 28.0 Z M 868.0 194.5 "></path></clipPath><g clip-path="url(#clip0x6000014ad620)"><g><clipPath id="clip0x6000014ad7a0"><path d="M 868.0 28.0 L 998.0 28.0 L 998.0 195.0 L 868.0 195.0 Z M 868.0 28.0 "></path></clipPath><g clip-path="url(#clip0x6000014ad7a0)"><path d="M 966.8 126.3 C 966.8 126.0 966.9 125.8 967.1 125.7 C 967.3 125.6 967.5 125.5 967.8 125.5 C 968.2 125.5 968.6 125.6 968.6 126.1 C 968.6 127.2 964.5 126.3 964.5 129.0 C 964.5 130.8 966.3 131.3 967.7 131.3 C 969.2 131.3 970.9 130.9 971.0 129.1 L 968.6 129.1 C 968.6 129.3 968.5 129.5 968.3 129.6 C 968.2 129.7 968.0 129.8 967.8 129.8 C 967.3 129.8 967.0 129.6 967.0 129.3 C 967.0 128.3 971.3 129.0 971.3 126.4 C 971.3 125.0 970.2 124.0 967.7 124.0 C 966.1 124.0 964.4 124.5 964.3 126.3 L 966.8 126.3 " fill="#FFFEFE"></path><path d="M 947.6 49.7 L 947.6 60.4 C 947.6 64.6 945.6 66.6 941.6 66.6 L 932.6 66.6 L 932.6 28.0 L 937.6 28.0 L 937.6 43.6 L 941.7 43.6 C 945.6 43.6 947.6 45.6 947.6 49.7 M 942.7 50.1 C 942.7 48.7 942.0 48.0 940.7 48.0 L 937.6 48.0 L 937.6 62.3 L 940.5 62.3 C 941.9 62.3 942.7 61.6 942.7 60.1 L 942.7 50.1 " fill="#FFFFFF"></path><path d="M 961.8 32.4 L 955.0 32.4 L 955.0 66.7 L 950.1 66.7 L 950.1 28.0 L 961.8 28.0 L 961.8 32.4 " fill="#FFFFFF"></path><path d="M 979.5 28.0 L 979.5 60.4 C 979.5 64.6 977.5 66.6 973.6 66.6 L 969.9 66.6 C 965.9 66.6 963.9 64.6 963.9 60.4 L 963.9 28.0 L 968.9 28.0 L 968.9 43.8 L 974.6 43.8 L 974.6 28.0 L 979.5 28.0 Z M 974.6 48.1 L 968.9 48.1 L 968.9 60.1 C 968.9 61.6 969.6 62.3 971.1 62.3 L 972.4 62.3 C 973.8 62.3 974.6 61.6 974.6 60.1 L 974.6 48.1 " fill="#FFFFFF"></path><path d="M 991.8 43.8 L 997.8 66.6 L 992.9 66.6 L 989.5 50.9 L 989.4 50.9 L 985.7 66.6 L 980.8 66.6 L 986.9 43.8 L 986.9 28.0 L 991.8 28.0 L 991.8 43.8 " fill="#FFFFFF"></path></g></g></g></g><g><clipPath id="clip0x6000014adb00"><path d="M 868.0 28.0 L 998.0 28.0 L 998.0 195.0 L 868.0 195.0 Z M 868.0 28.0 "></path></clipPath><g clip-path="url(#clip0x6000014adb00)"><path d="M 883.5 38.0 L 883.5 61.7 C 883.5 65.0 881.6 66.6 877.6 66.6 L 873.9 66.6 C 870.0 66.6 868.0 65.0 868.0 61.7 L 868.0 38.0 L 872.9 38.0 L 872.9 48.5 L 878.6 48.5 L 878.6 38.0 L 883.5 38.0 Z M 878.6 52.0 L 872.9 52.0 L 872.9 61.5 C 872.9 62.6 873.7 63.2 875.1 63.2 L 876.4 63.2 C 877.9 63.2 878.6 62.6 878.6 61.5 L 878.6 52.0 " fill="#FFFEFE"></path><path d="M 893.2 66.6 L 888.3 66.6 L 888.3 38.0 L 893.2 38.0 L 893.2 56.8 L 898.5 43.7 L 898.5 38.0 L 903.5 38.0 L 903.5 66.6 L 898.5 66.6 L 898.5 52.8 L 893.2 66.6 " fill="#FFFEFE"></path><path d="M 923.8 42.2 L 923.8 61.1 C 923.8 64.8 921.5 66.6 916.8 66.6 L 908.2 66.6 L 908.2 38.0 L 917.9 38.0 C 921.8 38.0 923.8 39.4 923.8 42.2 M 918.9 42.8 C 918.9 41.9 918.2 41.5 916.9 41.5 L 913.2 41.5 L 913.2 63.2 L 916.6 63.2 C 918.1 63.2 918.9 62.5 918.9 61.1 L 918.9 42.8 " fill="#FFFEFE"></path><path d="M 877.9 80.2 L 877.9 78.1 C 877.9 76.6 877.2 75.9 876.0 75.9 L 874.7 75.9 C 873.5 75.9 872.8 76.6 872.8 78.1 L 872.8 102.9 C 872.8 104.4 873.5 105.1 874.7 105.1 L 875.7 105.1 C 877.1 105.1 877.9 104.4 877.9 102.9 L 877.9 98.9 L 882.7 98.9 L 882.7 103.3 C 882.7 107.6 880.8 109.8 876.9 109.8 L 873.8 109.8 C 869.9 109.8 868.0 107.6 868.0 103.3 L 868.0 77.7 C 868.0 73.4 869.9 71.2 873.8 71.2 L 876.9 71.2 C 880.8 71.2 882.7 73.4 882.7 77.7 L 882.7 80.2 L 877.9 80.2 " fill="#FFFEFE"></path><path d="M 901.6 77.7 L 901.6 103.2 C 901.6 107.6 899.6 109.8 895.8 109.8 L 891.1 109.8 C 887.3 109.8 885.4 107.6 885.4 103.2 L 885.4 77.7 C 885.4 73.4 887.3 71.2 891.2 71.2 L 895.7 71.2 C 899.6 71.2 901.6 73.4 901.6 77.7 M 896.7 78.1 C 896.7 76.6 896.1 75.9 894.8 75.9 L 892.3 75.9 C 890.9 75.9 890.2 76.6 890.2 78.1 L 890.2 102.9 C 890.2 104.4 890.9 105.1 892.3 105.1 L 894.6 105.1 C 896.0 105.1 896.7 104.4 896.7 102.9 L 896.7 78.1 " fill="#FFFEFE"></path><path d="M 909.5 109.8 L 904.2 109.8 L 904.2 71.2 L 909.0 71.2 L 908.5 96.5 L 912.2 78.2 L 915.9 78.2 L 919.5 96.5 L 919.0 71.2 L 923.8 71.2 L 923.8 109.8 L 918.5 109.8 L 914.0 87.1 L 909.5 109.8 " fill="#FFFEFE"></path><path d="M 938.5 71.2 L 938.5 75.9 L 931.3 75.9 L 931.3 88.7 L 937.7 88.7 L 937.7 93.4 L 931.3 93.4 L 931.3 105.1 L 938.5 105.1 L 938.5 109.8 L 926.5 109.8 L 926.5 71.2 L 938.5 71.2 " fill="#FFFEFE"></path><path d="M 962.6 77.7 L 962.6 103.2 C 962.6 107.6 960.7 109.8 956.8 109.8 L 952.2 109.8 C 948.3 109.8 946.4 107.6 946.4 103.2 L 946.4 77.7 C 946.4 73.4 948.4 71.2 952.3 71.2 L 956.8 71.2 C 960.7 71.2 962.6 73.4 962.6 77.7 M 957.8 78.1 C 957.8 76.6 957.2 75.9 955.9 75.9 L 953.4 75.9 C 952.0 75.9 951.3 76.6 951.3 78.1 L 951.3 102.9 C 951.3 104.4 952.0 105.1 953.4 105.1 L 955.6 105.1 C 957.1 105.1 957.8 104.4 957.8 102.9 L 957.8 78.1 " fill="#FFFFFF"></path><path d="M 976.2 109.8 L 976.2 78.4 C 976.2 76.7 975.5 75.9 974.2 75.9 L 972.2 75.9 C 970.8 75.9 970.1 76.7 970.1 78.4 L 970.1 109.8 L 965.3 109.8 L 965.3 78.5 C 965.3 73.6 967.2 71.2 971.1 71.2 L 975.2 71.2 C 979.1 71.2 981.0 73.6 981.0 78.5 L 981.0 109.8 L 976.2 109.8 " fill="#FFFFFF"></path><path d="M 997.8 105.1 L 997.8 109.8 L 983.7 109.8 L 983.7 105.1 L 988.3 105.1 L 988.3 71.2 L 993.1 71.2 L 993.1 105.1 L 997.8 105.1 " fill="#FFFFFF"></path><path d="M 868.0 120.0 L 997.8 120.0 L 997.8 114.3 L 868.0 114.3 Z M 868.0 120.0 " fill="#FFFEFE"></path></g></g><image xlink:href="../../2EF8FA08-D7AC-4B44-8C94-5EA1C6164627/assets/2277E5E98667D254EBFF3765F84601F0.png" width="748.00" height="748.00" transform="matrix(0.28, 0.00, -0.00, -0.28, 72.0, 534.0)"></image><image xlink:href="../../5096A44B-5040-427E-BEE5-9E1C3C0F5CA3/assets/939B62A8A3DD1C5B2F74F4854CBFB82A.png" width="211.00" height="218.00" transform="matrix(1.00, 0.00, -0.00, 1.00, 72.0, 317.0)"></image><image xlink:href="../../5096A44B-5040-427E-BEE5-9E1C3C0F5CA3/assets/383895026BBC7B93EFF0B7EE4AAE3AE4.jpeg" width="480.00" height="640.00" transform="matrix(0.36, 0.00, -0.00, -0.37, 431.0, 546.0)"></image><image xlink:href="../../5096A44B-5040-427E-BEE5-9E1C3C0F5CA3/assets/6C3CF38764B8201AB18EDBA4FB11FA3B.png" width="174.00" height="241.00" transform="matrix(1.00, 0.00, -0.00, 1.00, 431.0, 306.0)"></image><image xlink:href="../../5096A44B-5040-427E-BEE5-9E1C3C0F5CA3/assets/84E4A69C78118C7AC9B974111DC5E2A5.jpeg" width="958.00" height="652.00" transform="matrix(0.26, 0.00, -0.00, -0.26, 754.0, 512.0)"></image><image xlink:href="../../5096A44B-5040-427E-BEE5-9E1C3C0F5CA3/assets/7A4F5DFB43B2AE545C2C90AD9681EF3B.png" width="244.00" height="174.00" transform="matrix(1.00, 0.00, -0.00, 1.00, 754.0, 339.0)"></image></g></svg>