<?xml version="1.0" encoding="UTF-8" standalone="no"?><svg xmlns="http://www.w3.org/2000/svg" xmlns:xlink="http://www.w3.org/1999/xlink" clip-rule="evenodd" stroke-miterlimit="10" viewBox="0 0 31 10"><desc>SVG generated by Keynote</desc><defs></defs><g transform="matrix(1.00, 0.00, -0.00, -1.00, 0.0, 10.0)"><g><clipPath id="clip0x608000ca7140"><path d="M 2.0 8.0 L 28.0 8.0 L 28.0 2.0 L 2.0 2.0 Z M 1.5 8.0 "></path></clipPath><g clip-path="url(#clip0x608000ca7140)"><g><clipPath id="clip0x608000ca74a0"><path d="M 6.9 8.0 C 6.9 8.0 6.9 8.0 6.8 8.0 C 6.4 8.0 6.1 7.8 5.9 7.4 C 5.8 7.3 5.8 7.2 5.8 6.9 C 5.8 6.6 5.8 6.5 5.8 6.4 C 5.9 6.3 5.9 6.3 5.9 6.2 C 5.8 6.2 5.6 6.2 5.4 6.3 C 5.3 6.3 5.2 6.3 4.8 6.3 C 4.4 6.3 4.4 6.3 4.2 6.2 C 4.0 6.1 3.9 5.9 3.7 6.0 L 4.0 6.0 L 4.0 6.4 C 4.2 6.9 3.8 7.4 3.5 7.7 C 3.2 8.0 3.1 8.0 2.7 8.0 C 2.3 8.0 2.1 8.0 1.9 7.7 C 1.6 7.5 1.5 7.2 1.5 6.9 C 1.5 6.4 1.8 6.0 2.3 5.8 C 2.6 5.7 2.9 5.7 3.2 5.9 C 3.3 5.9 3.3 5.9 3.4 5.9 C 3.5 5.8 3.5 5.6 3.4 5.3 C 3.2 4.9 3.2 4.4 3.4 4.0 C 3.5 3.9 3.5 3.8 3.4 3.7 C 3.4 3.6 3.4 3.6 3.3 3.7 C 3.2 3.8 3.0 3.8 2.9 3.8 C 2.5 3.9 2.1 3.8 1.8 3.5 C 1.6 3.2 1.6 3.1 1.6 2.7 C 1.6 2.4 1.6 2.4 1.6 2.2 C 1.7 2.1 1.8 2.0 1.9 1.9 C 2.0 1.7 2.3 1.6 2.4 1.6 C 2.5 1.6 2.5 1.6 2.5 1.6 C 2.5 1.5 3.0 1.6 3.2 1.7 C 3.5 1.8 3.7 2.0 3.8 2.3 C 3.8 2.5 3.8 2.5 3.8 2.8 C 3.8 2.9 3.8 3.1 3.7 3.2 C 3.7 3.3 3.7 3.3 3.7 3.4 C 3.8 3.4 4.0 3.4 4.2 3.4 C 4.5 3.3 4.8 3.2 5.0 3.2 C 5.2 3.2 5.5 3.4 5.6 3.4 C 5.6 3.5 5.8 3.1 5.8 3.0 L 6.0 3.0 L 6.0 3.2 C 5.9 3.0 5.8 3.0 5.8 2.7 C 5.8 2.4 5.8 2.4 5.9 2.2 C 6.0 1.8 6.4 1.6 6.8 1.6 C 6.9 1.6 7.0 1.6 7.0 1.6 C 7.1 1.6 7.1 1.6 7.2 1.6 C 7.3 1.6 7.5 1.7 7.7 1.9 C 8.1 2.3 8.2 3.0 7.7 3.5 C 7.6 3.6 7.3 3.8 7.2 3.8 C 7.2 3.8 7.2 3.8 7.1 3.8 C 7.0 3.9 6.6 3.9 6.6 3.8 C 6.6 3.8 6.5 3.8 6.5 3.8 C 6.5 3.8 6.4 3.8 6.3 3.7 C 6.1 3.6 6.1 3.8 6.2 4.1 C 6.3 4.2 6.3 4.3 6.3 4.4 C 6.4 4.5 6.4 4.6 6.4 4.6 C 6.4 4.6 6.4 5.0 6.4 5.0 C 6.4 5.0 6.3 5.1 6.4 5.1 C 6.4 5.2 6.3 5.5 6.2 5.6 C 6.1 5.7 6.1 5.8 6.2 5.9 C 6.2 5.9 6.2 5.9 6.4 5.9 C 6.7 5.7 7.0 5.7 7.3 5.8 C 7.4 5.9 7.5 6.0 7.6 6.0 C 7.8 6.1 7.9 6.4 7.9 6.4 C 7.9 6.4 8.0 6.5 8.0 6.6 C 8.0 6.7 8.0 7.2 8.0 7.3 C 8.0 7.3 7.9 7.4 7.9 7.4 C 7.9 7.4 7.8 7.7 7.6 7.8 C 7.4 8.0 7.2 8.0 6.9 8.0 Z M 6.9 7.8 C 6.9 7.8 6.9 7.8 7.0 7.8 C 7.2 7.8 7.3 7.7 7.5 7.5 C 7.8 7.3 7.9 6.8 7.7 6.5 C 7.6 6.3 7.4 6.1 7.2 6.1 C 7.0 6.0 6.8 6.0 6.7 6.0 C 6.6 6.1 6.5 6.1 6.5 6.1 C 6.5 6.1 6.1 6.4 6.1 6.5 C 6.1 6.5 6.1 6.5 6.0 6.6 C 5.9 6.9 6.0 7.3 6.3 7.6 C 6.5 7.7 6.6 7.8 6.9 7.8 Z M 3.1 8.0 L 3.1 7.8 C 3.4 7.4 3.5 7.3 3.5 7.2 C 3.6 6.8 3.6 6.5 3.3 6.3 C 3.2 6.1 3.1 6.1 2.9 6.0 C 2.7 6.0 2.7 6.0 2.5 6.0 C 2.3 6.1 2.1 6.2 2.0 6.4 C 1.7 6.7 1.7 7.2 2.0 7.5 C 2.3 7.8 2.3 8.0 2.7 8.0 L 3.1 8.0 Z M 3.1 7.4 C 3.1 7.4 3.0 7.4 2.9 7.3 C 2.8 7.2 2.7 7.1 2.7 7.1 C 2.6 7.1 2.5 7.0 2.5 6.9 C 2.5 6.9 2.4 6.8 2.3 6.7 C 2.2 6.5 2.1 6.5 2.2 6.4 C 2.3 6.4 2.3 6.4 2.5 6.5 C 2.6 6.6 2.7 6.7 2.7 6.7 C 2.8 6.7 2.9 6.8 2.9 6.8 C 2.9 6.9 2.9 6.9 2.9 6.9 C 2.9 6.9 2.9 7.0 3.0 7.1 C 3.1 7.2 3.2 7.2 3.2 7.2 C 3.2 7.2 3.2 7.3 3.2 7.3 C 3.2 7.3 3.2 7.4 3.1 7.4 Z M 6.4 7.4 C 6.4 7.4 6.4 7.4 6.4 7.3 C 6.4 7.3 6.4 7.2 6.5 7.1 C 6.6 7.0 6.7 6.9 6.7 6.9 C 6.7 6.8 6.7 6.7 6.9 6.7 C 6.9 6.7 7.0 6.6 7.1 6.5 C 7.3 6.4 7.3 6.4 7.4 6.4 C 7.5 6.4 7.4 6.5 7.3 6.7 C 7.2 6.8 7.1 6.9 7.1 6.9 C 7.1 7.0 7.0 7.1 6.9 7.1 C 6.9 7.1 6.8 7.2 6.7 7.3 C 6.6 7.4 6.5 7.4 6.4 7.4 Z M 9.6 5.9 C 9.5 5.9 9.4 5.9 9.3 5.8 C 9.1 5.7 9.0 5.7 8.9 5.5 C 8.8 5.3 8.8 5.2 8.8 4.9 C 8.8 4.6 8.9 4.5 8.9 4.4 C 9.1 4.2 9.3 4.0 9.4 4.0 C 9.4 4.0 9.5 4.0 9.5 4.0 C 9.5 4.0 9.6 4.0 9.7 4.0 C 10.1 4.0 10.3 4.2 10.4 4.7 C 10.5 5.2 10.4 5.7 10.0 5.9 C 9.9 5.9 9.8 5.9 9.6 5.9 Z M 24.8 5.9 C 24.6 5.9 24.6 5.9 24.5 5.7 C 24.4 5.5 24.2 5.0 24.2 5.0 C 24.2 5.0 24.1 5.1 24.1 5.1 C 24.1 5.2 24.0 5.3 24.0 5.4 C 23.9 5.5 23.9 5.6 23.9 5.6 C 23.9 5.7 23.8 5.9 23.7 5.9 C 23.7 5.9 23.4 5.9 23.4 5.9 C 23.3 5.8 23.3 5.7 23.3 5.4 C 23.3 5.1 23.3 4.9 23.3 4.9 C 23.3 4.8 23.3 4.6 23.3 4.4 C 23.3 4.1 23.3 4.0 23.3 4.0 C 23.4 4.0 23.4 4.0 23.4 4.0 C 23.4 4.0 23.5 4.0 23.6 4.0 C 23.6 4.1 23.7 4.1 23.7 4.5 C 23.7 4.8 23.7 4.9 23.7 4.9 C 23.7 4.9 23.8 4.9 23.8 4.8 C 24.0 4.4 24.0 4.4 24.1 4.4 C 24.1 4.4 24.2 4.4 24.2 4.4 C 24.2 4.4 24.3 4.4 24.3 4.4 C 24.3 4.4 24.3 4.4 24.3 4.4 C 24.3 4.5 24.3 4.5 24.3 4.5 C 24.4 4.6 24.4 4.6 24.4 4.7 C 24.5 4.8 24.6 5.0 24.6 5.0 C 24.6 5.0 25.0 4.8 25.0 4.5 L 25.0 4.0 L 24.7 4.0 C 24.8 4.0 24.9 4.0 25.0 4.0 C 25.1 4.1 25.1 4.1 25.0 4.9 C 25.0 5.4 25.0 5.8 25.0 5.8 C 24.9 5.9 24.9 5.9 24.8 5.9 Z M 15.8 5.9 C 15.8 5.9 15.7 6.0 15.7 6.0 L 16.0 6.0 L 16.0 5.0 C 16.0 4.0 15.6 4.0 15.7 4.0 C 15.7 4.0 15.7 4.0 15.8 4.0 C 15.8 4.0 16.3 4.0 16.3 4.0 C 16.3 4.0 16.4 4.0 16.4 4.0 C 16.6 4.0 16.8 4.2 16.9 4.3 C 17.0 4.5 17.1 4.8 17.1 5.0 C 17.1 5.4 16.9 5.7 16.6 5.8 C 16.5 5.9 16.4 5.9 16.1 5.9 C 16.0 5.9 15.9 5.9 15.8 5.9 Z M 9.6 5.5 C 9.8 5.5 9.9 5.5 9.9 5.4 C 10.1 5.0 10.0 4.6 9.8 4.5 C 9.7 4.3 9.6 4.3 9.5 4.4 C 9.4 4.5 9.0 4.6 9.0 4.9 L 9.0 5.3 L 9.0 5.4 C 9.1 5.5 9.5 5.5 9.6 5.5 Z M 16.0 5.5 L 16.2 6.0 C 16.4 6.0 16.4 5.5 16.5 5.4 C 16.7 5.1 16.7 4.6 16.4 4.4 C 16.3 4.4 16.1 4.3 16.1 4.4 C 16.0 4.4 16.0 4.6 16.0 5.0 L 16.0 5.5 Z M 11.6 5.4 C 11.5 5.4 11.5 5.4 11.5 5.4 C 11.5 5.4 11.5 5.4 11.4 5.4 C 11.4 5.4 11.4 5.4 11.3 5.3 C 11.2 5.3 11.2 5.3 11.2 5.3 C 11.1 5.4 10.9 5.4 10.9 5.4 C 10.9 5.3 11.0 4.9 11.0 4.4 L 11.0 3.0 L 11.0 3.0 L 11.0 3.0 L 11.0 3.7 L 11.0 4.0 L 11.4 4.0 C 11.7 4.0 11.9 4.2 12.0 4.3 C 12.1 4.5 12.1 4.9 12.0 5.1 C 11.9 5.3 11.8 5.4 11.7 5.4 C 11.7 5.4 11.6 5.4 11.6 5.4 C 11.6 5.4 11.6 5.4 11.6 5.4 Z M 25.9 5.4 C 25.9 5.4 25.9 5.4 25.9 5.4 C 25.9 5.4 25.8 5.4 25.8 5.4 C 25.7 5.4 25.5 5.4 25.5 5.3 C 25.5 5.3 25.5 5.3 25.5 5.3 C 25.5 5.3 26.0 5.2 26.0 5.1 L 26.0 5.0 L 25.8 5.0 C 26.0 5.0 26.0 5.1 26.1 5.0 C 26.1 4.9 26.1 4.9 25.8 4.9 C 25.5 4.9 25.4 4.7 25.4 4.4 C 25.4 4.3 25.4 4.2 25.5 4.1 C 25.6 4.1 25.7 4.0 25.7 4.0 C 25.8 4.0 25.8 4.0 25.8 4.0 C 25.8 4.0 26.3 3.9 26.5 4.0 L 27.0 4.0 L 27.0 4.6 C 27.0 5.0 26.5 5.1 26.5 5.2 C 26.4 5.3 26.2 5.4 26.1 5.4 C 26.1 5.4 26.0 5.4 26.0 5.4 C 26.0 5.4 25.9 5.4 25.9 5.4 Z M 20.9 5.4 C 20.9 5.4 20.9 5.4 20.9 5.4 C 20.8 5.4 20.8 5.4 20.8 5.4 C 20.7 5.4 20.7 5.4 20.6 5.3 C 20.6 5.3 20.5 5.3 20.5 5.3 C 20.5 5.4 20.4 5.0 20.3 5.0 L 20.0 5.0 L 20.0 4.7 C 20.0 4.1 20.2 4.0 20.2 4.0 C 20.2 4.0 20.3 4.0 20.3 4.0 C 20.3 4.0 20.3 4.0 20.5 4.0 L 21.0 4.0 L 21.0 4.5 C 21.0 4.8 20.6 4.9 20.6 5.0 C 20.7 5.0 20.8 5.1 20.9 5.0 C 20.9 5.0 20.9 4.8 20.9 4.5 C 20.9 4.1 20.9 4.1 21.0 4.0 C 21.0 4.0 21.1 4.0 21.1 4.0 C 21.1 4.0 21.2 4.0 21.3 4.0 L 21.0 4.0 L 21.0 4.6 C 21.0 5.1 21.4 5.1 21.3 5.2 C 21.2 5.4 21.1 5.4 21.0 5.4 C 21.0 5.4 21.0 5.4 20.9 5.4 C 20.9 5.4 20.9 5.4 20.9 5.4 Z M 14.7 5.4 C 14.7 5.4 14.7 5.4 14.7 5.4 C 14.7 5.4 14.6 5.4 14.6 5.4 C 14.6 5.4 14.5 5.4 14.5 5.4 C 14.4 5.3 14.4 5.3 14.3 5.3 C 14.3 5.4 14.2 5.0 14.1 5.0 L 14.0 5.0 L 14.0 4.7 C 14.0 4.1 14.0 4.0 14.0 4.0 C 14.1 4.0 14.2 4.0 14.3 4.0 C 14.4 4.0 14.4 4.0 14.4 4.4 C 14.4 4.8 14.4 4.8 14.5 4.9 C 14.5 5.0 14.5 5.0 14.6 5.0 C 14.7 5.0 15.0 4.9 15.0 4.4 L 15.0 4.0 L 14.9 4.0 C 14.9 4.0 15.0 4.0 15.1 4.0 L 15.0 4.0 L 15.0 4.5 C 15.0 4.8 15.2 5.1 15.1 5.1 C 15.1 5.1 15.1 5.1 15.1 5.2 C 15.2 5.2 15.0 5.4 14.9 5.4 C 14.8 5.4 14.8 5.4 14.8 5.4 C 14.7 5.4 14.7 5.4 14.7 5.4 Z M 27.6 5.4 C 27.6 5.4 27.6 5.4 27.6 5.4 C 27.6 5.4 27.5 5.4 27.5 5.4 C 27.5 5.4 27.4 5.4 27.4 5.4 C 27.3 5.3 27.3 5.3 27.3 5.4 C 27.2 5.4 27.2 5.0 27.1 5.0 L 27.0 5.0 L 27.0 4.4 L 27.0 3.0 L 27.1 3.0 L 27.0 3.0 L 27.0 3.7 L 27.0 4.0 L 27.4 4.0 C 27.5 4.0 27.6 4.0 27.6 4.0 C 27.6 4.0 27.7 4.0 27.7 4.0 C 27.8 4.0 28.2 4.4 28.1 4.5 C 28.1 4.6 28.1 4.6 28.2 4.6 C 28.2 4.7 28.2 4.8 28.2 4.9 C 28.1 4.9 28.1 4.9 28.1 4.9 C 28.2 5.1 27.9 5.4 27.8 5.4 C 27.7 5.4 27.7 5.4 27.7 5.4 C 27.7 5.4 27.6 5.4 27.6 5.4 Z M 13.0 5.4 C 13.0 5.4 13.0 5.4 13.0 5.4 C 12.9 5.4 12.9 5.4 12.9 5.4 C 12.9 5.4 12.7 5.4 12.6 5.3 C 12.5 5.1 12.4 5.0 12.4 4.7 C 12.4 4.3 12.5 4.1 12.8 4.0 C 12.9 4.0 13.3 4.0 13.3 4.0 C 13.3 4.0 13.3 4.0 13.4 4.0 C 13.5 4.0 13.6 4.1 13.5 4.2 C 13.5 4.3 13.5 4.3 13.5 4.4 C 13.5 4.4 13.3 4.4 13.2 4.4 C 13.0 4.3 13.0 4.3 12.9 4.4 C 12.8 4.5 12.8 5.0 13.3 5.0 L 14.0 5.0 L 14.0 4.7 C 14.0 5.0 13.5 5.2 13.4 5.3 C 13.3 5.4 13.2 5.4 13.2 5.4 C 13.2 5.4 13.1 5.4 13.1 5.4 C 13.0 5.4 13.0 5.4 13.0 5.4 Z M 19.1 5.4 C 19.1 5.4 19.1 5.4 19.1 5.4 C 19.0 5.4 19.0 5.4 19.0 5.4 C 18.9 5.5 18.7 5.3 18.6 5.1 C 18.5 5.0 18.5 4.6 18.5 4.5 C 18.6 4.3 18.8 4.1 18.9 4.0 C 19.0 4.0 19.3 4.0 19.3 4.0 C 19.3 4.0 19.3 4.0 19.4 4.0 C 19.5 4.0 19.8 4.3 19.8 4.4 C 19.8 4.5 19.8 4.5 19.8 4.6 C 19.8 4.7 19.8 5.0 19.7 5.1 C 19.6 5.3 19.4 5.4 19.3 5.4 C 19.3 5.4 19.2 5.4 19.2 5.4 C 19.2 5.4 19.1 5.4 19.1 5.4 Z M 22.3 5.4 C 22.3 5.4 22.3 5.4 22.3 5.4 C 22.3 5.4 22.2 5.4 22.2 5.4 C 22.1 5.4 21.9 5.3 21.8 5.1 C 21.7 4.9 21.7 4.5 21.8 4.3 C 21.9 4.1 22.1 4.0 22.1 4.0 C 22.2 4.0 22.2 4.0 22.2 4.0 C 22.3 4.0 22.5 4.0 22.7 4.0 C 22.8 4.1 22.9 4.1 22.9 4.2 C 22.9 4.3 22.8 4.4 22.7 4.4 C 22.7 4.4 22.6 4.4 22.5 4.4 C 22.3 4.3 22.2 4.3 22.2 4.4 C 22.2 4.4 22.1 4.5 22.2 4.5 C 22.2 4.5 22.3 4.5 22.5 4.5 C 22.9 4.5 23.0 4.6 23.0 4.8 C 23.0 4.9 22.9 5.1 22.8 5.2 C 22.7 5.3 22.5 5.4 22.5 5.4 C 22.4 5.4 22.4 5.4 22.4 5.4 C 22.4 5.4 22.4 5.4 22.3 5.4 Z M 18.1 5.4 C 18.1 5.4 18.0 5.4 17.9 5.3 C 17.9 5.3 17.9 5.3 17.8 5.3 C 17.8 5.4 17.7 5.0 17.6 5.0 L 18.0 5.0 L 18.0 4.7 C 18.0 4.1 17.5 4.0 17.5 4.0 C 17.5 4.0 17.6 4.0 17.6 4.0 C 17.6 4.0 17.7 4.0 17.8 4.0 C 17.8 4.0 17.8 4.0 17.8 4.0 C 17.9 4.0 17.9 4.1 17.9 4.5 C 17.9 5.0 17.9 5.0 18.2 5.0 C 18.2 5.0 18.3 5.0 18.3 5.1 C 18.3 5.2 18.3 5.3 18.3 5.4 C 18.3 5.4 18.2 5.4 18.1 5.4 Z M 22.3 5.1 C 22.4 5.1 22.6 5.0 22.5 4.9 C 22.5 4.9 22.4 4.9 22.3 4.9 C 22.1 4.9 22.1 4.9 22.2 5.0 C 22.2 5.0 22.2 5.1 22.3 5.1 Z M 13.0 5.1 C 13.1 5.1 13.2 5.0 13.2 4.9 C 13.2 4.9 13.1 4.9 13.0 4.9 C 12.8 4.9 12.8 4.9 12.9 5.0 C 12.9 5.1 13.0 5.1 13.0 5.1 Z M 19.2 5.1 C 19.2 5.1 19.3 5.0 19.3 5.0 C 19.4 4.9 19.4 4.5 19.3 4.4 C 19.3 4.4 19.3 4.3 19.2 4.3 C 19.0 4.3 19.0 4.4 19.0 4.5 C 18.9 4.6 18.9 4.9 19.0 5.0 C 19.0 5.1 19.1 5.1 19.2 5.1 Z M 11.4 5.0 C 11.6 5.0 11.6 4.9 11.6 4.7 C 11.6 4.5 11.6 4.5 11.5 4.4 C 11.5 4.4 11.3 4.3 11.3 4.4 C 11.2 4.4 11.2 4.8 11.3 4.9 C 11.3 5.0 11.3 5.0 11.4 5.0 Z M 27.5 5.0 C 27.6 5.0 27.6 5.0 27.7 4.9 C 27.7 4.9 27.7 4.8 27.7 4.7 C 27.7 4.5 27.7 4.5 27.6 4.4 C 27.5 4.4 27.4 4.3 27.4 4.4 C 27.3 4.4 27.3 4.9 27.4 5.0 C 27.4 5.0 27.5 5.0 27.5 5.0 Z M 26.0 4.6 C 26.1 4.6 26.1 4.6 26.1 4.5 C 26.1 4.4 26.1 4.4 26.0 4.4 C 25.9 4.3 25.8 4.4 25.8 4.5 C 25.8 4.6 25.9 4.6 26.0 4.6 Z M 6.9 3.6 C 7.0 3.6 7.2 3.6 7.3 3.5 C 7.6 3.4 7.8 3.1 7.8 2.7 C 7.8 2.3 7.6 2.1 7.2 1.9 C 7.0 1.8 6.8 1.8 6.6 1.9 C 6.2 2.0 5.9 2.4 6.0 2.8 C 6.0 3.1 6.2 3.4 6.5 3.5 C 6.6 3.6 6.8 3.6 6.9 3.6 Z M 2.7 3.6 C 3.0 3.6 3.1 3.6 3.3 3.3 C 3.5 3.2 3.5 3.1 3.6 2.9 C 3.6 2.7 3.6 2.7 3.6 2.5 C 3.5 2.2 3.3 2.0 3.0 1.9 C 2.8 1.8 2.6 1.8 2.4 1.9 C 1.8 2.1 1.6 2.8 2.0 3.3 C 2.2 3.5 2.4 3.6 2.7 3.6 Z M 2.3 3.2 C 2.2 3.2 2.2 3.2 2.2 3.2 C 2.1 3.1 2.2 3.1 2.3 2.9 C 2.4 2.8 2.5 2.7 2.5 2.6 C 2.5 2.6 2.6 2.5 2.6 2.5 C 2.7 2.5 2.8 2.4 2.9 2.3 C 3.0 2.2 3.2 2.1 3.2 2.2 C 3.2 2.3 3.2 2.3 3.1 2.5 C 3.0 2.6 2.9 2.7 2.9 2.7 C 2.9 2.8 2.8 2.9 2.7 2.9 C 2.6 3.0 2.5 3.0 2.4 3.1 C 2.4 3.2 2.3 3.2 2.3 3.2 Z M 7.4 3.2 C 7.3 3.2 7.2 3.2 7.1 3.1 C 7.0 3.0 6.9 2.9 6.9 2.9 C 6.8 2.9 6.7 2.8 6.7 2.7 C 6.7 2.7 6.6 2.6 6.5 2.5 C 6.4 2.4 6.3 2.3 6.4 2.2 C 6.4 2.2 6.5 2.2 6.7 2.4 C 6.8 2.4 6.9 2.5 6.9 2.5 C 7.0 2.5 7.1 2.6 7.1 2.7 C 7.1 2.7 7.2 2.8 7.3 2.9 C 7.4 3.0 7.4 3.1 7.4 3.1 C 7.4 3.2 7.4 3.2 7.4 3.2 Z M 7.4 3.2 "></path></clipPath><g clip-path="url(#clip0x608000ca74a0)"><image xlink:href="../../2EF8FA08-D7AC-4B44-8C94-5EA1C6164627/assets/2D5DF9EB3DADFE688DE863307DD942A9.png" width="788.00" height="220.00" transform="matrix(0.04, 0.00, -0.00, -0.04, 1.0, 9.0)"></image></g></g></g></g></g></svg>