<?xml version="1.0" encoding="UTF-8" standalone="no"?><svg xmlns="http://www.w3.org/2000/svg" xmlns:xlink="http://www.w3.org/1999/xlink" clip-rule="evenodd" stroke-miterlimit="10" viewBox="0 0 328 22"><desc>SVG generated by Keynote</desc><defs></defs><g transform="matrix(1.00, 0.00, -0.00, -1.00, 0.0, 22.0)"><text xml:space="preserve" font-family="Aller,Aller" font-size="18.0" fill="#FEFFFF" transform="matrix(1.00, 0.00, -0.00, -1.00, 0.9, 6.6)">*</text><text xml:space="preserve" font-family="Aller,Aller" font-size="18.0" fill="#FEFFFF" transform="matrix(1.00, 0.00, -0.00, -1.00, 9.6, 6.6)"> </text><text xml:space="preserve" font-family="Aller,Aller" font-size="18.0" fill="#FEFFFF" transform="matrix(1.00, 0.00, -0.00, -1.00, 13.9, 6.6)">p</text><text xml:space="preserve" font-family="Aller,Aller" font-size="18.0" fill="#FEFFFF" transform="matrix(1.00, 0.00, -0.00, -1.00, 24.5, 6.6)">e</text><text xml:space="preserve" font-family="Aller,Aller" font-size="18.0" fill="#FEFFFF" transform="matrix(1.00, 0.00, -0.00, -1.00, 34.5, 6.6)">r</text><text xml:space="preserve" font-family="Aller,Aller" font-size="18.0" fill="#FEFFFF" transform="matrix(1.00, 0.00, -0.00, -1.00, 41.2, 6.6)"> </text><text xml:space="preserve" font-family="Aller,Aller" font-size="18.0" fill="#FEFFFF" transform="matrix(1.00, 0.00, -0.00, -1.00, 45.5, 6.6)">r</text><text xml:space="preserve" font-family="Aller,Aller" font-size="18.0" fill="#FEFFFF" transform="matrix(1.00, 0.00, -0.00, -1.00, 51.9, 6.6)">e</text><text xml:space="preserve" font-family="Aller,Aller" font-size="18.0" fill="#FEFFFF" transform="matrix(1.00, 0.00, -0.00, -1.00, 61.8, 6.6)">g</text><text xml:space="preserve" font-family="Aller,Aller" font-size="18.0" fill="#FEFFFF" transform="matrix(1.00, 0.00, -0.00, -1.00, 71.8, 6.6)">u</text><text xml:space="preserve" font-family="Aller,Aller" font-size="18.0" fill="#FEFFFF" transform="matrix(1.00, 0.00, -0.00, -1.00, 82.1, 6.6)">l</text><text xml:space="preserve" font-family="Aller,Aller" font-size="18.0" fill="#FEFFFF" transform="matrix(1.00, 0.00, -0.00, -1.00, 87.5, 6.6)">a</text><text xml:space="preserve" font-family="Aller,Aller" font-size="18.0" fill="#FEFFFF" transform="matrix(1.00, 0.00, -0.00, -1.00, 96.8, 6.6)">t</text><text xml:space="preserve" font-family="Aller,Aller" font-size="18.0" fill="#FEFFFF" transform="matrix(1.00, 0.00, -0.00, -1.00, 103.2, 6.6)">i</text><text xml:space="preserve" font-family="Aller,Aller" font-size="18.0" fill="#FEFFFF" transform="matrix(1.00, 0.00, -0.00, -1.00, 108.4, 6.6)">o</text><text xml:space="preserve" font-family="Aller,Aller" font-size="18.0" fill="#FEFFFF" transform="matrix(1.00, 0.00, -0.00, -1.00, 118.8, 6.6)">n</text><text xml:space="preserve" font-family="Aller,Aller" font-size="18.0" fill="#FEFFFF" transform="matrix(1.00, 0.00, -0.00, -1.00, 129.2, 6.6)">,</text><text xml:space="preserve" font-family="Aller,Aller" font-size="18.0" fill="#FEFFFF" transform="matrix(1.00, 0.00, -0.00, -1.00, 133.0, 6.6)"> </text><text xml:space="preserve" font-family="Aller,Aller" font-size="18.0" fill="#FEFFFF" transform="matrix(1.00, 0.00, -0.00, -1.00, 137.3, 6.6)">n</text><text xml:space="preserve" font-family="Aller,Aller" font-size="18.0" fill="#FEFFFF" transform="matrix(1.00, 0.00, -0.00, -1.00, 147.7, 6.6)">o</text><text xml:space="preserve" font-family="Aller,Aller" font-size="18.0" fill="#FEFFFF" transform="matrix(1.00, 0.00, -0.00, -1.00, 158.1, 6.6)">t</text><text xml:space="preserve" font-family="Aller,Aller" font-size="18.0" fill="#FEFFFF" transform="matrix(1.00, 0.00, -0.00, -1.00, 164.5, 6.6)"> </text><text xml:space="preserve" font-family="Aller,Aller" font-size="18.0" fill="#FEFFFF" transform="matrix(1.00, 0.00, -0.00, -1.00, 168.8, 6.6)">t</text><text xml:space="preserve" font-family="Aller,Aller" font-size="18.0" fill="#FEFFFF" transform="matrix(1.00, 0.00, -0.00, -1.00, 175.2, 6.6)">e</text><text xml:space="preserve" font-family="Aller,Aller" font-size="18.0" fill="#FEFFFF" transform="matrix(1.00, 0.00, -0.00, -1.00, 185.2, 6.6)">c</text><text xml:space="preserve" font-family="Aller,Aller" font-size="18.0" fill="#FEFFFF" transform="matrix(1.00, 0.00, -0.00, -1.00, 193.9, 6.6)">h</text><text xml:space="preserve" font-family="Aller,Aller" font-size="18.0" fill="#FEFFFF" transform="matrix(1.00, 0.00, -0.00, -1.00, 204.3, 6.6)">n</text><text xml:space="preserve" font-family="Aller,Aller" font-size="18.0" fill="#FEFFFF" transform="matrix(1.00, 0.00, -0.00, -1.00, 214.7, 6.6)">i</text><text xml:space="preserve" font-family="Aller,Aller" font-size="18.0" fill="#FEFFFF" transform="matrix(1.00, 0.00, -0.00, -1.00, 219.8, 6.6)">c</text><text xml:space="preserve" font-family="Aller,Aller" font-size="18.0" fill="#FEFFFF" transform="matrix(1.00, 0.00, -0.00, -1.00, 228.4, 6.6)">a</text><text xml:space="preserve" font-family="Aller,Aller" font-size="18.0" fill="#FEFFFF" transform="matrix(1.00, 0.00, -0.00, -1.00, 237.8, 6.6)">l</text><text xml:space="preserve" font-family="Aller,Aller" font-size="18.0" fill="#FEFFFF" transform="matrix(1.00, 0.00, -0.00, -1.00, 243.1, 6.6)"> </text><text xml:space="preserve" font-family="Aller,Aller" font-size="18.0" fill="#FEFFFF" transform="matrix(1.00, 0.00, -0.00, -1.00, 247.4, 6.6)">l</text><text xml:space="preserve" font-family="Aller,Aller" font-size="18.0" fill="#FEFFFF" transform="matrix(1.00, 0.00, -0.00, -1.00, 252.7, 6.6)">i</text><text xml:space="preserve" font-family="Aller,Aller" font-size="18.0" fill="#FEFFFF" transform="matrix(1.00, 0.00, -0.00, -1.00, 257.9, 6.6)">m</text><text xml:space="preserve" font-family="Aller,Aller" font-size="18.0" fill="#FEFFFF" transform="matrix(1.00, 0.00, -0.00, -1.00, 273.3, 6.6)">i</text><text xml:space="preserve" font-family="Aller,Aller" font-size="18.0" fill="#FEFFFF" transform="matrix(1.00, 0.00, -0.00, -1.00, 278.5, 6.6)">t</text><text xml:space="preserve" font-family="Aller,Aller" font-size="18.0" fill="#FEFFFF" transform="matrix(1.00, 0.00, -0.00, -1.00, 284.9, 6.6)">a</text><text xml:space="preserve" font-family="Aller,Aller" font-size="18.0" fill="#FEFFFF" transform="matrix(1.00, 0.00, -0.00, -1.00, 294.2, 6.6)">t</text><text xml:space="preserve" font-family="Aller,Aller" font-size="18.0" fill="#FEFFFF" transform="matrix(1.00, 0.00, -0.00, -1.00, 300.7, 6.6)">i</text><text xml:space="preserve" font-family="Aller,Aller" font-size="18.0" fill="#FEFFFF" transform="matrix(1.00, 0.00, -0.00, -1.00, 305.9, 6.6)">o</text><text xml:space="preserve" font-family="Aller,Aller" font-size="18.0" fill="#FEFFFF" transform="matrix(1.00, 0.00, -0.00, -1.00, 316.3, 6.6)">n</text></g></svg>