<?xml version="1.0" encoding="UTF-8" standalone="no"?><svg xmlns="http://www.w3.org/2000/svg" xmlns:xlink="http://www.w3.org/1999/xlink" clip-rule="evenodd" stroke-miterlimit="10" viewBox="0 0 1024 768"><desc>SVG generated by Keynote</desc><defs></defs><g transform="matrix(1.00, 0.00, -0.00, -1.00, 0.0, 768.0)"><path d="M 0.0 768.0 L 1024.0 768.0 L 1024.0 0.0 L 0.0 0.0 Z M 0.0 768.0 " fill="#000000"></path><text xml:space="preserve" font-family="Aller-Bold,Aller" font-weight="bold" font-size="80.0" fill="#A0CCA2" transform="matrix(1.00, 0.00, -0.00, -1.00, 418.5, 635.0)">F</text><text xml:space="preserve" font-family="Aller-Bold,Aller" font-weight="bold" font-size="80.0" fill="#A0CCA2" transform="matrix(1.00, 0.00, -0.00, -1.00, 459.0, 635.0)">l</text><text xml:space="preserve" font-family="Aller-Bold,Aller" font-weight="bold" font-size="80.0" fill="#A0CCA2" transform="matrix(1.00, 0.00, -0.00, -1.00, 485.0, 635.0)">e</text><text xml:space="preserve" font-family="Aller-Bold,Aller" font-weight="bold" font-size="80.0" fill="#A0CCA2" transform="matrix(1.00, 0.00, -0.00, -1.00, 529.9, 635.0)">e</text><text xml:space="preserve" font-family="Aller-Bold,Aller" font-weight="bold" font-size="80.0" fill="#A0CCA2" transform="matrix(1.00, 0.00, -0.00, -1.00, 574.9, 635.0)">t</text><text xml:space="preserve" font-family="Aller,Aller" font-size="20.8" fill="#FEFFFF" transform="matrix(1.00, 0.00, -0.00, -1.00, 79.0, 535.3)">•</text><text xml:space="preserve" font-family="Aller,Aller" font-size="27.7" fill="#FEFFFF" transform="matrix(1.00, 0.00, -0.00, -1.00, 104.5, 532.6)">F</text><text xml:space="preserve" font-family="Aller,Aller" font-size="27.7" fill="#FEFFFF" transform="matrix(1.00, 0.00, -0.00, -1.00, 118.5, 532.6)">i</text><text xml:space="preserve" font-family="Aller,Aller" font-size="27.7" fill="#FEFFFF" transform="matrix(1.00, 0.00, -0.00, -1.00, 126.5, 532.6)">x</text><text xml:space="preserve" font-family="Aller,Aller" font-size="27.7" fill="#FEFFFF" transform="matrix(1.00, 0.00, -0.00, -1.00, 140.3, 532.6)">e</text><text xml:space="preserve" font-family="Aller,Aller" font-size="27.7" fill="#FEFFFF" transform="matrix(1.00, 0.00, -0.00, -1.00, 155.7, 532.6)">d</text><text xml:space="preserve" font-family="Aller,Aller" font-size="27.7" fill="#FEFFFF" transform="matrix(1.00, 0.00, -0.00, -1.00, 172.0, 532.6)">-</text><text xml:space="preserve" font-family="Aller,Aller" font-size="27.7" fill="#FEFFFF" transform="matrix(1.00, 0.00, -0.00, -1.00, 182.0, 532.6)">w</text><text xml:space="preserve" font-family="Aller,Aller" font-size="27.7" fill="#FEFFFF" transform="matrix(1.00, 0.00, -0.00, -1.00, 203.5, 532.6)">i</text><text xml:space="preserve" font-family="Aller,Aller" font-size="27.7" fill="#FEFFFF" transform="matrix(1.00, 0.00, -0.00, -1.00, 211.5, 532.6)">n</text><text xml:space="preserve" font-family="Aller,Aller" font-size="27.7" fill="#FEFFFF" transform="matrix(1.00, 0.00, -0.00, -1.00, 227.5, 532.6)">g</text><text xml:space="preserve" font-family="Aller,Aller" font-size="27.7" fill="#FEFFFF" transform="matrix(1.00, 0.00, -0.00, -1.00, 242.9, 532.6)"> </text><text xml:space="preserve" font-family="Aller,Aller" font-size="20.8" fill="#FEFFFF" transform="matrix(1.00, 0.00, -0.00, -1.00, 114.0, 470.7)">•</text><text xml:space="preserve" font-family="Aller,Aller" font-size="27.7" fill="#FEFFFF" transform="matrix(1.00, 0.00, -0.00, -1.00, 139.6, 468.0)">S</text><text xml:space="preserve" font-family="Aller,Aller" font-size="27.7" fill="#FEFFFF" transform="matrix(1.00, 0.00, -0.00, -1.00, 154.7, 468.0)">m</text><text xml:space="preserve" font-family="Aller,Aller" font-size="27.7" fill="#FEFFFF" transform="matrix(1.00, 0.00, -0.00, -1.00, 178.4, 468.0)">a</text><text xml:space="preserve" font-family="Aller,Aller" font-size="27.7" fill="#FEFFFF" transform="matrix(1.00, 0.00, -0.00, -1.00, 192.7, 468.0)">l</text><text xml:space="preserve" font-family="Aller,Aller" font-size="27.7" fill="#FEFFFF" transform="matrix(1.00, 0.00, -0.00, -1.00, 201.0, 468.0)">l</text><text xml:space="preserve" font-family="Aller,Aller" font-size="27.7" fill="#FEFFFF" transform="matrix(1.00, 0.00, -0.00, -1.00, 209.2, 468.0)"> </text><text xml:space="preserve" font-family="Aller,Aller" font-size="27.7" fill="#FEFFFF" transform="matrix(1.00, 0.00, -0.00, -1.00, 215.8, 468.0)">&amp;</text><text xml:space="preserve" font-family="Aller,Aller" font-size="27.7" fill="#FEFFFF" transform="matrix(1.00, 0.00, -0.00, -1.00, 236.9, 468.0)"> </text><text xml:space="preserve" font-family="Aller,Aller" font-size="27.7" fill="#FEFFFF" transform="matrix(1.00, 0.00, -0.00, -1.00, 243.5, 468.0)">d</text><text xml:space="preserve" font-family="Aller,Aller" font-size="27.7" fill="#FEFFFF" transform="matrix(1.00, 0.00, -0.00, -1.00, 259.7, 468.0)">e</text><text xml:space="preserve" font-family="Aller,Aller" font-size="27.7" fill="#FEFFFF" transform="matrix(1.00, 0.00, -0.00, -1.00, 275.0, 468.0)">f</text><text xml:space="preserve" font-family="Aller,Aller" font-size="27.7" fill="#FEFFFF" transform="matrix(1.00, 0.00, -0.00, -1.00, 285.3, 468.0)">t</text><text xml:space="preserve" font-family="Aller,Aller" font-size="27.7" fill="#FEFFFF" transform="matrix(1.00, 0.00, -0.00, -1.00, 295.2, 468.0)"> </text><text xml:space="preserve" font-family="Aller,Aller" font-size="20.8" fill="#FEFFFF" transform="matrix(1.00, 0.00, -0.00, -1.00, 114.0, 406.0)">•</text><text xml:space="preserve" font-family="Aller,Aller" font-size="27.7" fill="#FEFFFF" transform="matrix(1.00, 0.00, -0.00, -1.00, 139.6, 403.3)">L</text><text xml:space="preserve" font-family="Aller,Aller" font-size="27.7" fill="#FEFFFF" transform="matrix(1.00, 0.00, -0.00, -1.00, 153.3, 403.3)">a</text><text xml:space="preserve" font-family="Aller,Aller" font-size="27.7" fill="#FEFFFF" transform="matrix(1.00, 0.00, -0.00, -1.00, 167.6, 403.3)">r</text><text xml:space="preserve" font-family="Aller,Aller" font-size="27.7" fill="#FEFFFF" transform="matrix(1.00, 0.00, -0.00, -1.00, 177.8, 403.3)">g</text><text xml:space="preserve" font-family="Aller,Aller" font-size="27.7" fill="#FEFFFF" transform="matrix(1.00, 0.00, -0.00, -1.00, 192.9, 403.3)">e</text><text xml:space="preserve" font-family="Aller,Aller" font-size="27.7" fill="#FEFFFF" transform="matrix(1.00, 0.00, -0.00, -1.00, 208.3, 403.3)"> </text><text xml:space="preserve" font-family="Aller,Aller" font-size="27.7" fill="#FEFFFF" transform="matrix(1.00, 0.00, -0.00, -1.00, 214.9, 403.3)">&amp;</text><text xml:space="preserve" font-family="Aller,Aller" font-size="27.7" fill="#FEFFFF" transform="matrix(1.00, 0.00, -0.00, -1.00, 236.0, 403.3)"> </text><text xml:space="preserve" font-family="Aller,Aller" font-size="27.7" fill="#FEFFFF" transform="matrix(1.00, 0.00, -0.00, -1.00, 242.5, 403.3)">l</text><text xml:space="preserve" font-family="Aller,Aller" font-size="27.7" fill="#FEFFFF" transform="matrix(1.00, 0.00, -0.00, -1.00, 250.8, 403.3)">o</text><text xml:space="preserve" font-family="Aller,Aller" font-size="27.7" fill="#FEFFFF" transform="matrix(1.00, 0.00, -0.00, -1.00, 266.8, 403.3)">n</text><text xml:space="preserve" font-family="Aller,Aller" font-size="27.7" fill="#FEFFFF" transform="matrix(1.00, 0.00, -0.00, -1.00, 282.9, 403.3)">g</text><text xml:space="preserve" font-family="Aller,Aller" font-size="27.7" fill="#FEFFFF" transform="matrix(1.00, 0.00, -0.00, -1.00, 298.2, 403.3)"> </text><text xml:space="preserve" font-family="Aller,Aller" font-size="27.7" fill="#FEFFFF" transform="matrix(1.00, 0.00, -0.00, -1.00, 304.8, 403.3)">ﬂ</text><text xml:space="preserve" font-family="Aller,Aller" font-size="27.7" fill="#FEFFFF" transform="matrix(1.00, 0.00, -0.00, -1.00, 322.3, 403.3)">i</text><text xml:space="preserve" font-family="Aller,Aller" font-size="27.7" fill="#FEFFFF" transform="matrix(1.00, 0.00, -0.00, -1.00, 330.3, 403.3)">g</text><text xml:space="preserve" font-family="Aller,Aller" font-size="27.7" fill="#FEFFFF" transform="matrix(1.00, 0.00, -0.00, -1.00, 345.7, 403.3)">h</text><text xml:space="preserve" font-family="Aller,Aller" font-size="27.7" fill="#FEFFFF" transform="matrix(1.00, 0.00, -0.00, -1.00, 361.7, 403.3)">t</text><text xml:space="preserve" font-family="Aller,Aller" font-size="27.7" fill="#FEFFFF" transform="matrix(1.00, 0.00, -0.00, -1.00, 371.6, 403.3)">s</text><text xml:space="preserve" font-family="Aller,Aller" font-size="27.7" fill="#FEFFFF" transform="matrix(1.00, 0.00, -0.00, -1.00, 384.2, 403.3)"> </text><text xml:space="preserve" font-family="Aller,Aller" font-size="20.8" fill="#FEFFFF" transform="matrix(1.00, 0.00, -0.00, -1.00, 79.0, 341.3)">•</text><text xml:space="preserve" font-family="Aller,Aller" font-size="27.7" fill="#FEFFFF" transform="matrix(1.00, 0.00, -0.00, -1.00, 104.5, 338.6)">R</text><text xml:space="preserve" font-family="Aller,Aller" font-size="27.7" fill="#FEFFFF" transform="matrix(1.00, 0.00, -0.00, -1.00, 120.7, 338.6)">o</text><text xml:space="preserve" font-family="Aller,Aller" font-size="27.7" fill="#FEFFFF" transform="matrix(1.00, 0.00, -0.00, -1.00, 136.7, 338.6)">t</text><text xml:space="preserve" font-family="Aller,Aller" font-size="27.7" fill="#FEFFFF" transform="matrix(1.00, 0.00, -0.00, -1.00, 146.6, 338.6)">o</text><text xml:space="preserve" font-family="Aller,Aller" font-size="27.7" fill="#FEFFFF" transform="matrix(1.00, 0.00, -0.00, -1.00, 162.6, 338.6)">r</text><text xml:space="preserve" font-family="Aller,Aller" font-size="27.7" fill="#FEFFFF" transform="matrix(1.00, 0.00, -0.00, -1.00, 172.5, 338.6)">c</text><text xml:space="preserve" font-family="Aller,Aller" font-size="27.7" fill="#FEFFFF" transform="matrix(1.00, 0.00, -0.00, -1.00, 185.8, 338.6)">r</text><text xml:space="preserve" font-family="Aller,Aller" font-size="27.7" fill="#FEFFFF" transform="matrix(1.00, 0.00, -0.00, -1.00, 195.8, 338.6)">a</text><text xml:space="preserve" font-family="Aller,Aller" font-size="27.7" fill="#FEFFFF" transform="matrix(1.00, 0.00, -0.00, -1.00, 210.2, 338.6)">f</text><text xml:space="preserve" font-family="Aller,Aller" font-size="27.7" fill="#FEFFFF" transform="matrix(1.00, 0.00, -0.00, -1.00, 220.4, 338.6)">t</text><text xml:space="preserve" font-family="Aller,Aller" font-size="27.7" fill="#FEFFFF" transform="matrix(1.00, 0.00, -0.00, -1.00, 230.4, 338.6)"> </text><text xml:space="preserve" font-family="Aller,Aller" font-size="20.8" fill="#FEFFFF" transform="matrix(1.00, 0.00, -0.00, -1.00, 114.0, 276.7)">•</text><text xml:space="preserve" font-family="Aller,Aller" font-size="27.7" fill="#FEFFFF" transform="matrix(1.00, 0.00, -0.00, -1.00, 139.6, 274.0)">4</text><text xml:space="preserve" font-family="Aller,Aller" font-size="27.7" fill="#FEFFFF" transform="matrix(1.00, 0.00, -0.00, -1.00, 156.2, 274.0)"> </text><text xml:space="preserve" font-family="Aller,Aller" font-size="27.7" fill="#FEFFFF" transform="matrix(1.00, 0.00, -0.00, -1.00, 162.8, 274.0)">r</text><text xml:space="preserve" font-family="Aller,Aller" font-size="27.7" fill="#FEFFFF" transform="matrix(1.00, 0.00, -0.00, -1.00, 172.7, 274.0)">o</text><text xml:space="preserve" font-family="Aller,Aller" font-size="27.7" fill="#FEFFFF" transform="matrix(1.00, 0.00, -0.00, -1.00, 188.7, 274.0)">t</text><text xml:space="preserve" font-family="Aller,Aller" font-size="27.7" fill="#FEFFFF" transform="matrix(1.00, 0.00, -0.00, -1.00, 198.6, 274.0)">o</text><text xml:space="preserve" font-family="Aller,Aller" font-size="27.7" fill="#FEFFFF" transform="matrix(1.00, 0.00, -0.00, -1.00, 214.6, 274.0)">r</text><text xml:space="preserve" font-family="Aller,Aller" font-size="27.7" fill="#FEFFFF" transform="matrix(1.00, 0.00, -0.00, -1.00, 224.9, 274.0)"> </text><text xml:space="preserve" font-family="Aller,Aller" font-size="20.8" fill="#FEFFFF" transform="matrix(1.00, 0.00, -0.00, -1.00, 114.0, 212.0)">•</text><text xml:space="preserve" font-family="Aller,Aller" font-size="27.7" fill="#FEFFFF" transform="matrix(1.00, 0.00, -0.00, -1.00, 139.6, 209.3)">6</text><text xml:space="preserve" font-family="Aller,Aller" font-size="27.7" fill="#FEFFFF" transform="matrix(1.00, 0.00, -0.00, -1.00, 156.2, 209.3)"> </text><text xml:space="preserve" font-family="Aller,Aller" font-size="27.7" fill="#FEFFFF" transform="matrix(1.00, 0.00, -0.00, -1.00, 162.8, 209.3)">r</text><text xml:space="preserve" font-family="Aller,Aller" font-size="27.7" fill="#FEFFFF" transform="matrix(1.00, 0.00, -0.00, -1.00, 172.7, 209.3)">o</text><text xml:space="preserve" font-family="Aller,Aller" font-size="27.7" fill="#FEFFFF" transform="matrix(1.00, 0.00, -0.00, -1.00, 188.7, 209.3)">t</text><text xml:space="preserve" font-family="Aller,Aller" font-size="27.7" fill="#FEFFFF" transform="matrix(1.00, 0.00, -0.00, -1.00, 198.6, 209.3)">o</text><text xml:space="preserve" font-family="Aller,Aller" font-size="27.7" fill="#FEFFFF" transform="matrix(1.00, 0.00, -0.00, -1.00, 214.6, 209.3)">r</text><text xml:space="preserve" font-family="Aller,Aller" font-size="27.7" fill="#FEFFFF" transform="matrix(1.00, 0.00, -0.00, -1.00, 224.9, 209.3)"> </text><text xml:space="preserve" font-family="Aller,Aller" font-size="20.8" fill="#FEFFFF" transform="matrix(1.00, 0.00, -0.00, -1.00, 79.0, 147.4)">•</text><text xml:space="preserve" font-family="Aller,Aller" font-size="27.7" fill="#FEFFFF" transform="matrix(1.00, 0.00, -0.00, -1.00, 104.5, 144.7)">K</text><text xml:space="preserve" font-family="Aller,Aller" font-size="27.7" fill="#FEFFFF" transform="matrix(1.00, 0.00, -0.00, -1.00, 121.2, 144.7)">i</text><text xml:space="preserve" font-family="Aller,Aller" font-size="27.7" fill="#FEFFFF" transform="matrix(1.00, 0.00, -0.00, -1.00, 129.2, 144.7)">t</text><text xml:space="preserve" font-family="Aller,Aller" font-size="27.7" fill="#FEFFFF" transform="matrix(1.00, 0.00, -0.00, -1.00, 139.1, 144.7)">e</text><text xml:space="preserve" font-family="Aller,Aller" font-size="27.7" fill="#FEFFFF" transform="matrix(1.00, 0.00, -0.00, -1.00, 154.6, 144.7)">s</text><text xml:space="preserve" font-family="Aller,Aller" font-size="27.7" fill="#FEFFFF" transform="matrix(1.00, 0.00, -0.00, -1.00, 167.2, 144.7)"> </text><text xml:space="preserve" font-family="Aller,Aller" font-size="20.8" fill="#FEFFFF" transform="matrix(1.00, 0.00, -0.00, -1.00, 79.0, 82.7)">•</text><text xml:space="preserve" font-family="Aller,Aller" font-size="27.7" fill="#FEFFFF" transform="matrix(1.00, 0.00, -0.00, -1.00, 104.5, 80.0)">A</text><text xml:space="preserve" font-family="Aller,Aller" font-size="27.7" fill="#FEFFFF" transform="matrix(1.00, 0.00, -0.00, -1.00, 121.5, 80.0)">e</text><text xml:space="preserve" font-family="Aller,Aller" font-size="27.7" fill="#FEFFFF" transform="matrix(1.00, 0.00, -0.00, -1.00, 136.9, 80.0)">r</text><text xml:space="preserve" font-family="Aller,Aller" font-size="27.7" fill="#FEFFFF" transform="matrix(1.00, 0.00, -0.00, -1.00, 146.8, 80.0)">o</text><text xml:space="preserve" font-family="Aller,Aller" font-size="27.7" fill="#FEFFFF" transform="matrix(1.00, 0.00, -0.00, -1.00, 162.8, 80.0)">s</text><text xml:space="preserve" font-family="Aller,Aller" font-size="27.7" fill="#FEFFFF" transform="matrix(1.00, 0.00, -0.00, -1.00, 175.5, 80.0)">t</text><text xml:space="preserve" font-family="Aller,Aller" font-size="27.7" fill="#FEFFFF" transform="matrix(1.00, 0.00, -0.00, -1.00, 185.4, 80.0)">a</text><text xml:space="preserve" font-family="Aller,Aller" font-size="27.7" fill="#FEFFFF" transform="matrix(1.00, 0.00, -0.00, -1.00, 199.7, 80.0)">t</text><text xml:space="preserve" font-family="Aller,Aller" font-size="27.7" fill="#FEFFFF" transform="matrix(1.00, 0.00, -0.00, -1.00, 209.7, 80.0)"> </text><text xml:space="preserve" font-family="Aller,Aller" font-size="27.7" fill="#FEFFFF" transform="matrix(1.00, 0.00, -0.00, -1.00, 216.2, 80.0)">(</text><text xml:space="preserve" font-family="Aller,Aller" font-size="27.7" fill="#FEFFFF" transform="matrix(1.00, 0.00, -0.00, -1.00, 225.1, 80.0)">h</text><text xml:space="preserve" font-family="Aller,Aller" font-size="27.7" fill="#FEFFFF" transform="matrix(1.00, 0.00, -0.00, -1.00, 241.1, 80.0)">e</text><text xml:space="preserve" font-family="Aller,Aller" font-size="27.7" fill="#FEFFFF" transform="matrix(1.00, 0.00, -0.00, -1.00, 256.5, 80.0)">l</text><text xml:space="preserve" font-family="Aller,Aller" font-size="27.7" fill="#FEFFFF" transform="matrix(1.00, 0.00, -0.00, -1.00, 264.8, 80.0)">i</text><text xml:space="preserve" font-family="Aller,Aller" font-size="27.7" fill="#FEFFFF" transform="matrix(1.00, 0.00, -0.00, -1.00, 272.8, 80.0)">k</text><text xml:space="preserve" font-family="Aller,Aller" font-size="27.7" fill="#FEFFFF" transform="matrix(1.00, 0.00, -0.00, -1.00, 287.1, 80.0)">i</text><text xml:space="preserve" font-family="Aller,Aller" font-size="27.7" fill="#FEFFFF" transform="matrix(1.00, 0.00, -0.00, -1.00, 295.0, 80.0)">t</text><text xml:space="preserve" font-family="Aller,Aller" font-size="27.7" fill="#FEFFFF" transform="matrix(1.00, 0.00, -0.00, -1.00, 305.0, 80.0)">e</text><text xml:space="preserve" font-family="Aller,Aller" font-size="27.7" fill="#FEFFFF" transform="matrix(1.00, 0.00, -0.00, -1.00, 320.4, 80.0)">)</text><image xlink:href="799030E5B847BA20C9D7FE35086C0861.jpeg" width="744.00" height="992.00" transform="matrix(0.50, 0.00, -0.00, -0.50, 520.0, 564.0)"></image><g><clipPath id="clip0x608000ea8880"><path d="M 868.0 755.5 L 997.8 755.5 L 997.8 589.0 L 868.0 589.0 Z M 868.0 755.5 "></path></clipPath><g clip-path="url(#clip0x608000ea8880)"><g><clipPath id="clip0x608000ea8a00"><path d="M 868.0 589.0 L 998.0 589.0 L 998.0 756.0 L 868.0 756.0 Z M 868.0 589.0 "></path></clipPath><g clip-path="url(#clip0x608000ea8a00)"><path d="M 868.0 594.6 L 923.8 594.6 L 923.8 589.0 L 868.0 589.0 Z M 868.0 594.6 " fill="#FFFEFE"></path></g></g></g></g><g><clipPath id="clip0x608000ea8be0"><path d="M 868.0 589.0 L 998.0 589.0 L 998.0 756.0 L 868.0 756.0 Z M 868.0 589.0 "></path></clipPath><g clip-path="url(#clip0x608000ea8be0)"><path d="M 933.2 733.0 C 936.1 732.9 938.6 735.2 938.7 738.1 C 938.8 741.1 936.5 743.5 933.5 743.6 C 930.6 743.7 928.1 741.4 928.0 738.4 C 928.0 735.5 930.3 733.1 933.2 733.0 " fill="#FFFEFE"></path><path d="M 923.3 734.6 C 924.2 734.6 927.3 734.1 929.4 732.6 C 931.4 731.0 933.7 727.7 933.7 727.3 C 933.8 727.7 936.1 731.0 937.0 731.7 C 938.5 733.0 940.2 734.3 944.3 734.7 L 944.3 729.1 C 943.5 729.1 941.9 728.6 940.5 727.5 C 939.1 726.3 937.6 724.0 937.1 722.4 C 936.6 720.8 936.5 719.4 936.5 718.5 L 936.6 707.6 L 931.0 707.6 L 931.2 718.4 C 931.1 719.4 930.9 721.5 930.4 722.6 C 929.9 723.6 928.7 726.4 926.5 727.8 C 925.9 728.2 924.9 729.1 923.3 729.1 L 923.3 734.6 " fill="#FFFEFE"></path><path d="M 933.7 748.9 C 933.8 748.8 938.6 745.6 942.5 741.7 C 943.8 740.4 947.1 736.4 947.1 731.5 C 947.1 727.0 944.6 723.9 944.3 723.5 C 943.4 722.5 940.0 719.8 938.0 719.5 L 938.0 713.8 C 940.4 714.3 944.6 715.9 946.9 718.2 C 949.3 720.6 951.3 723.5 952.1 727.1 C 953.1 731.2 952.4 736.0 951.1 738.7 C 949.4 742.3 946.5 745.8 942.8 748.8 L 933.7 755.5 L 924.6 748.7 C 920.9 745.7 918.0 742.3 916.3 738.6 C 915.0 735.9 914.3 731.1 915.4 727.0 C 916.3 723.4 918.2 720.5 920.6 718.2 C 923.0 715.8 927.1 714.2 929.6 713.8 L 929.5 719.5 C 927.6 719.7 924.1 722.4 923.2 723.5 C 922.9 723.8 920.4 727.0 920.4 731.4 C 920.4 736.4 923.7 740.4 924.9 741.6 C 928.8 745.6 933.6 748.8 933.7 748.9 " fill="#FFFEFE"></path><path d="M 907.7 702.8 C 907.6 703.7 907.0 704.3 906.0 704.3 C 904.9 704.3 904.3 703.4 904.3 701.5 C 904.3 700.2 904.6 699.0 906.1 699.0 C 907.1 699.0 907.6 699.7 907.7 700.6 L 910.6 700.6 C 910.3 698.1 908.6 696.6 906.2 696.6 C 903.1 696.6 901.2 698.6 901.2 701.6 C 901.2 704.7 903.3 706.6 905.9 706.6 C 908.7 706.6 910.3 705.2 910.6 702.8 L 907.7 702.8 " fill="#FFFEFE"></path><path d="M 911.3 706.4 L 914.0 706.4 L 914.0 696.9 L 911.3 696.9 Z M 911.3 706.4 " fill="#FFFEFE"></path><path d="M 917.5 699.7 C 917.5 698.9 918.1 698.4 918.8 698.4 C 919.2 698.4 919.6 698.6 919.8 699.0 L 922.4 699.0 C 921.9 697.3 920.2 696.7 918.6 696.7 C 916.5 696.7 914.8 697.9 914.8 700.3 C 914.8 702.5 916.5 704.0 918.6 704.0 C 921.1 704.0 922.7 702.2 922.6 699.7 L 917.5 699.7 Z M 919.9 701.1 C 919.9 701.7 919.4 702.3 918.7 702.3 C 917.9 702.3 917.5 701.9 917.5 701.1 L 919.9 701.1 " fill="#FFFEFE"></path><path d="M 922.6 703.8 L 925.3 703.8 L 926.5 699.4 L 927.6 703.8 L 930.2 703.8 L 927.9 696.9 L 924.9 696.9 L 922.6 703.8 " fill="#FFFEFE"></path><path d="M 932.6 699.7 C 932.6 698.9 933.2 698.4 933.9 698.4 C 934.4 698.4 934.8 698.6 935.0 699.0 L 937.5 699.0 C 937.1 697.3 935.4 696.7 933.8 696.7 C 931.6 696.7 929.9 697.9 929.9 700.3 C 929.9 702.5 931.6 704.0 933.8 704.0 C 936.3 704.0 937.8 702.2 937.7 699.7 L 932.6 699.7 Z M 935.1 701.1 C 935.1 701.7 934.5 702.3 933.9 702.3 C 933.1 702.3 932.6 701.9 932.6 701.1 L 935.1 701.1 " fill="#FFFEFE"></path><path d="M 938.4 706.4 L 941.0 706.4 L 941.0 696.9 L 938.4 696.9 Z M 938.4 706.4 " fill="#FFFEFE"></path><path d="M 946.8 696.9 L 946.7 697.6 C 945.9 696.9 945.2 696.7 944.1 696.7 C 942.9 696.7 941.7 697.3 941.7 698.8 C 941.7 701.9 946.6 700.5 946.6 701.8 C 946.6 702.3 946.0 702.3 945.7 702.3 C 945.3 702.3 944.8 702.3 944.7 701.7 L 942.1 701.7 C 942.1 703.1 943.2 704.0 945.8 704.0 C 949.1 704.0 949.2 702.8 949.2 701.1 L 949.2 697.9 C 949.2 697.5 949.3 697.3 949.6 697.0 L 949.6 696.9 L 946.8 696.9 Z M 946.6 699.9 C 945.7 699.5 944.5 699.7 944.5 698.8 C 944.5 698.5 944.8 698.2 945.4 698.2 C 946.3 698.2 946.6 699.0 946.6 699.9 " fill="#FFFEFE"></path><path d="M 950.3 703.8 L 952.8 703.8 L 952.8 702.7 C 953.4 703.5 954.0 704.0 955.0 704.0 C 956.8 704.0 957.7 702.9 957.7 701.0 L 957.7 696.9 L 955.0 696.9 L 955.0 700.5 C 955.0 701.2 954.8 701.8 954.0 701.8 C 953.2 701.8 953.0 701.3 953.0 700.4 L 953.0 696.9 L 950.3 696.9 L 950.3 703.8 " fill="#FFFEFE"></path><path d="M 963.4 696.9 L 963.4 697.8 C 962.8 697.0 962.2 696.7 961.4 696.7 C 959.3 696.7 958.3 698.3 958.3 700.2 C 958.3 702.5 959.5 704.0 961.2 704.0 C 962.0 704.0 962.6 703.8 963.2 703.1 L 963.2 706.4 L 965.9 706.4 L 965.9 696.9 L 963.4 696.9 Z M 963.3 700.3 C 963.3 701.0 963.0 701.9 962.1 701.9 C 961.2 701.9 961.0 701.0 961.0 700.2 C 961.0 699.5 961.2 698.7 962.0 698.7 C 963.0 698.7 963.3 699.5 963.3 700.3 " fill="#FFFEFE"></path><path d="M 896.5 685.2 L 896.5 694.7 L 900.1 694.7 L 901.8 688.7 L 903.4 694.7 L 907.1 694.7 L 907.1 685.2 L 904.4 685.2 L 904.4 688.1 L 904.4 689.6 L 904.6 691.3 L 904.5 691.3 L 902.9 685.2 L 900.7 685.2 L 899.0 691.3 L 899.0 691.3 L 899.1 689.9 L 899.2 688.4 L 899.2 685.2 L 896.5 685.2 " fill="#FFFEFE"></path><path d="M 910.4 688.0 C 910.4 687.2 911.0 686.7 911.7 686.7 C 912.2 686.7 912.5 686.8 912.7 687.3 L 915.3 687.3 C 914.9 685.5 913.1 685.0 911.6 685.0 C 909.4 685.0 907.7 686.2 907.7 688.6 C 907.7 690.8 909.4 692.3 911.6 692.3 C 914.1 692.3 915.6 690.5 915.5 688.0 L 910.4 688.0 Z M 912.8 689.4 C 912.8 690.0 912.3 690.6 911.7 690.6 C 910.9 690.6 910.4 690.1 910.4 689.4 L 912.8 689.4 " fill="#FFFEFE"></path><path d="M 920.6 685.2 C 917.0 685.0 916.6 685.2 916.6 687.6 L 916.6 690.5 L 915.7 690.5 L 915.7 692.1 L 916.7 692.1 L 916.7 694.2 L 919.3 694.2 L 919.3 692.1 L 920.6 692.1 L 920.6 690.5 L 919.3 690.5 L 919.3 688.0 C 919.3 687.4 919.4 687.1 920.2 687.1 L 920.6 687.1 L 920.6 685.2 " fill="#FFFEFE"></path><path d="M 921.3 692.1 L 923.8 692.1 L 923.8 690.7 L 923.8 690.7 C 924.2 691.8 924.8 692.3 925.9 692.3 C 926.0 692.3 926.1 692.3 926.2 692.2 L 926.2 689.5 C 926.0 689.5 925.8 689.6 925.7 689.6 C 924.6 689.6 924.0 689.1 924.0 687.6 L 924.0 685.2 L 921.3 685.2 L 921.3 692.1 " fill="#FFFEFE"></path><path d="M 930.1 692.3 C 932.5 692.3 934.0 690.8 934.0 688.7 C 934.0 686.2 932.3 685.0 930.1 685.0 C 927.9 685.0 926.2 686.2 926.2 688.6 C 926.2 691.0 927.8 692.3 930.1 692.3 M 928.9 688.7 C 928.9 687.4 929.4 686.8 930.1 686.8 C 930.8 686.8 931.3 687.4 931.3 688.7 C 931.3 689.7 930.8 690.5 930.1 690.4 C 929.2 690.4 928.9 689.5 928.9 688.7 " fill="#FFFEFE"></path><path d="M 936.9 692.1 L 936.9 691.1 L 937.0 691.1 C 937.3 691.9 938.3 692.3 939.1 692.3 C 941.1 692.3 942.1 690.6 942.1 688.7 C 942.1 686.0 940.5 685.0 939.0 685.0 C 938.2 685.0 937.7 685.3 937.2 685.9 L 937.2 682.8 L 934.5 682.8 L 934.5 692.1 L 936.9 692.1 Z M 939.4 688.6 C 939.4 689.7 939.0 690.3 938.3 690.3 C 937.6 690.3 937.2 689.6 937.2 688.7 C 937.2 687.7 937.6 687.1 938.3 687.1 C 939.0 687.1 939.4 687.7 939.4 688.6 " fill="#FFFEFE"></path><path d="M 947.6 685.2 L 947.4 685.9 C 946.7 685.2 945.9 685.0 944.9 685.0 C 943.6 685.0 942.5 685.6 942.5 687.1 C 942.5 690.2 947.3 688.8 947.3 690.1 C 947.3 690.6 946.7 690.6 946.4 690.6 C 946.0 690.6 945.5 690.6 945.5 690.0 L 942.9 690.0 C 942.9 691.4 943.9 692.3 946.6 692.3 C 949.8 692.3 950.0 691.1 950.0 689.4 L 950.0 686.2 C 950.0 685.8 950.0 685.6 950.3 685.3 L 950.3 685.2 L 947.6 685.2 Z M 947.3 688.2 C 946.4 687.8 945.2 688.0 945.2 687.1 C 945.2 686.8 945.6 686.5 946.1 686.5 C 947.0 686.5 947.3 687.3 947.3 688.2 " fill="#FFFEFE"></path><path d="M 951.1 692.1 L 953.6 692.1 L 953.6 690.7 L 953.6 690.7 C 954.0 691.8 954.6 692.3 955.7 692.3 C 955.8 692.3 955.9 692.3 956.0 692.2 L 956.0 689.5 C 955.8 689.5 955.6 689.6 955.5 689.6 C 954.4 689.6 953.8 689.1 953.8 687.6 L 953.8 685.2 L 951.1 685.2 L 951.1 692.1 " fill="#FFFEFE"></path><path d="M 959.2 687.1 L 959.2 685.2 L 956.5 685.2 L 956.5 694.7 L 959.2 694.7 L 959.2 690.0 L 960.9 692.1 L 964.1 692.1 L 961.6 689.4 L 964.4 685.2 L 961.2 685.2 L 959.7 687.6 L 959.2 687.1 " fill="#FFFEFE"></path></g></g><g><clipPath id="clip0x608000ea9540"><path d="M 868.0 755.5 L 997.8 755.5 L 997.8 589.0 L 868.0 589.0 Z M 868.0 755.5 "></path></clipPath><g clip-path="url(#clip0x608000ea9540)"><g><clipPath id="clip0x608000ea96c0"><path d="M 868.0 589.0 L 998.0 589.0 L 998.0 756.0 L 868.0 756.0 Z M 868.0 589.0 "></path></clipPath><g clip-path="url(#clip0x608000ea96c0)"><path d="M 966.8 687.3 C 966.8 687.0 966.9 686.8 967.1 686.7 C 967.3 686.6 967.5 686.5 967.8 686.5 C 968.2 686.5 968.6 686.6 968.6 687.1 C 968.6 688.2 964.5 687.3 964.5 690.0 C 964.5 691.8 966.3 692.3 967.7 692.3 C 969.2 692.3 970.9 691.9 971.0 690.1 L 968.6 690.1 C 968.6 690.3 968.5 690.5 968.3 690.6 C 968.2 690.7 968.0 690.8 967.8 690.8 C 967.3 690.8 967.0 690.6 967.0 690.3 C 967.0 689.3 971.3 690.0 971.3 687.4 C 971.3 686.0 970.2 685.0 967.7 685.0 C 966.1 685.0 964.4 685.5 964.3 687.3 L 966.8 687.3 " fill="#FFFEFE"></path><path d="M 947.6 610.7 L 947.6 621.4 C 947.6 625.6 945.6 627.6 941.6 627.6 L 932.6 627.6 L 932.6 589.0 L 937.6 589.0 L 937.6 604.6 L 941.7 604.6 C 945.6 604.6 947.6 606.6 947.6 610.7 M 942.7 611.1 C 942.7 609.7 942.0 609.0 940.7 609.0 L 937.6 609.0 L 937.6 623.3 L 940.5 623.3 C 941.9 623.3 942.7 622.6 942.7 621.1 L 942.7 611.1 " fill="#FFFFFF"></path><path d="M 961.8 593.4 L 955.0 593.4 L 955.0 627.7 L 950.1 627.7 L 950.1 589.0 L 961.8 589.0 L 961.8 593.4 " fill="#FFFFFF"></path><path d="M 979.5 589.0 L 979.5 621.4 C 979.5 625.6 977.5 627.6 973.6 627.6 L 969.9 627.6 C 965.9 627.6 963.9 625.6 963.9 621.4 L 963.9 589.0 L 968.9 589.0 L 968.9 604.8 L 974.6 604.8 L 974.6 589.0 L 979.5 589.0 Z M 974.6 609.1 L 968.9 609.1 L 968.9 621.1 C 968.9 622.6 969.6 623.3 971.1 623.3 L 972.4 623.3 C 973.8 623.3 974.6 622.6 974.6 621.1 L 974.6 609.1 " fill="#FFFFFF"></path><path d="M 991.8 604.8 L 997.8 627.6 L 992.9 627.6 L 989.5 611.9 L 989.4 611.9 L 985.7 627.6 L 980.8 627.6 L 986.9 604.8 L 986.9 589.0 L 991.8 589.0 L 991.8 604.8 " fill="#FFFFFF"></path></g></g></g></g><g><clipPath id="clip0x608000ea9a20"><path d="M 868.0 589.0 L 998.0 589.0 L 998.0 756.0 L 868.0 756.0 Z M 868.0 589.0 "></path></clipPath><g clip-path="url(#clip0x608000ea9a20)"><path d="M 883.5 599.0 L 883.5 622.7 C 883.5 626.0 881.6 627.6 877.6 627.6 L 873.9 627.6 C 870.0 627.6 868.0 626.0 868.0 622.7 L 868.0 599.0 L 872.9 599.0 L 872.9 609.5 L 878.6 609.5 L 878.6 599.0 L 883.5 599.0 Z M 878.6 613.0 L 872.9 613.0 L 872.9 622.5 C 872.9 623.6 873.7 624.2 875.1 624.2 L 876.4 624.2 C 877.9 624.2 878.6 623.6 878.6 622.5 L 878.6 613.0 " fill="#FFFEFE"></path><path d="M 893.2 627.6 L 888.3 627.6 L 888.3 599.0 L 893.2 599.0 L 893.2 617.8 L 898.5 604.7 L 898.5 599.0 L 903.5 599.0 L 903.5 627.6 L 898.5 627.6 L 898.5 613.8 L 893.2 627.6 " fill="#FFFEFE"></path><path d="M 923.8 603.2 L 923.8 622.1 C 923.8 625.8 921.5 627.6 916.8 627.6 L 908.2 627.6 L 908.2 599.0 L 917.9 599.0 C 921.8 599.0 923.8 600.4 923.8 603.2 M 918.9 603.8 C 918.9 602.9 918.2 602.5 916.9 602.5 L 913.2 602.5 L 913.2 624.2 L 916.6 624.2 C 918.1 624.2 918.9 623.5 918.9 622.1 L 918.9 603.8 " fill="#FFFEFE"></path><path d="M 877.9 641.2 L 877.9 639.1 C 877.9 637.6 877.2 636.9 876.0 636.9 L 874.7 636.9 C 873.5 636.9 872.8 637.6 872.8 639.1 L 872.8 663.9 C 872.8 665.4 873.5 666.1 874.7 666.1 L 875.7 666.1 C 877.1 666.1 877.9 665.4 877.9 663.9 L 877.9 659.9 L 882.7 659.9 L 882.7 664.3 C 882.7 668.6 880.8 670.8 876.9 670.8 L 873.8 670.8 C 869.9 670.8 868.0 668.6 868.0 664.3 L 868.0 638.7 C 868.0 634.4 869.9 632.2 873.8 632.2 L 876.9 632.2 C 880.8 632.2 882.7 634.4 882.7 638.7 L 882.7 641.2 L 877.9 641.2 " fill="#FFFEFE"></path><path d="M 901.6 638.7 L 901.6 664.2 C 901.6 668.6 899.6 670.8 895.8 670.8 L 891.1 670.8 C 887.3 670.8 885.4 668.6 885.4 664.2 L 885.4 638.7 C 885.4 634.4 887.3 632.2 891.2 632.2 L 895.7 632.2 C 899.6 632.2 901.6 634.4 901.6 638.7 M 896.7 639.1 C 896.7 637.6 896.1 636.9 894.8 636.9 L 892.3 636.9 C 890.9 636.9 890.2 637.6 890.2 639.1 L 890.2 663.9 C 890.2 665.4 890.9 666.1 892.3 666.1 L 894.6 666.1 C 896.0 666.1 896.7 665.4 896.7 663.9 L 896.7 639.1 " fill="#FFFEFE"></path><path d="M 909.5 670.8 L 904.2 670.8 L 904.2 632.2 L 909.0 632.2 L 908.5 657.5 L 912.2 639.2 L 915.9 639.2 L 919.5 657.5 L 919.0 632.2 L 923.8 632.2 L 923.8 670.8 L 918.5 670.8 L 914.0 648.1 L 909.5 670.8 " fill="#FFFEFE"></path><path d="M 938.5 632.2 L 938.5 636.9 L 931.3 636.9 L 931.3 649.7 L 937.7 649.7 L 937.7 654.4 L 931.3 654.4 L 931.3 666.1 L 938.5 666.1 L 938.5 670.8 L 926.5 670.8 L 926.5 632.2 L 938.5 632.2 " fill="#FFFEFE"></path><path d="M 962.6 638.7 L 962.6 664.2 C 962.6 668.6 960.7 670.8 956.8 670.8 L 952.2 670.8 C 948.3 670.8 946.4 668.6 946.4 664.2 L 946.4 638.7 C 946.4 634.4 948.4 632.2 952.3 632.2 L 956.8 632.2 C 960.7 632.2 962.6 634.4 962.6 638.7 M 957.8 639.1 C 957.8 637.6 957.2 636.9 955.9 636.9 L 953.4 636.9 C 952.0 636.9 951.3 637.6 951.3 639.1 L 951.3 663.9 C 951.3 665.4 952.0 666.1 953.4 666.1 L 955.6 666.1 C 957.1 666.1 957.8 665.4 957.8 663.9 L 957.8 639.1 " fill="#FFFFFF"></path><path d="M 976.2 670.8 L 976.2 639.4 C 976.2 637.7 975.5 636.9 974.2 636.9 L 972.2 636.9 C 970.8 636.9 970.1 637.7 970.1 639.4 L 970.1 670.8 L 965.3 670.8 L 965.3 639.5 C 965.3 634.6 967.2 632.2 971.1 632.2 L 975.2 632.2 C 979.1 632.2 981.0 634.6 981.0 639.5 L 981.0 670.8 L 976.2 670.8 " fill="#FFFFFF"></path><path d="M 997.8 666.1 L 997.8 670.8 L 983.7 670.8 L 983.7 666.1 L 988.3 666.1 L 988.3 632.2 L 993.1 632.2 L 993.1 666.1 L 997.8 666.1 " fill="#FFFFFF"></path><path d="M 868.0 681.0 L 997.8 681.0 L 997.8 675.3 L 868.0 675.3 Z M 868.0 681.0 " fill="#FFFEFE"></path></g></g></g></svg>