<?xml version="1.0" encoding="UTF-8" standalone="no"?><svg xmlns="http://www.w3.org/2000/svg" xmlns:xlink="http://www.w3.org/1999/xlink" clip-rule="evenodd" stroke-miterlimit="10" viewBox="0 0 351 35"><desc>SVG generated by Keynote</desc><defs></defs><g transform="matrix(1.00, 0.00, -0.00, -1.00, 0.0, 35.0)"><text xml:space="preserve" font-family="Aller,Aller" font-size="28.5" fill="#FEFFFF" transform="matrix(1.00, 0.00, -0.00, -1.00, 0.8, 8.0)">•</text><text xml:space="preserve" font-family="Aller,Aller" font-size="38.0" fill="#FEFFFF" transform="matrix(1.00, 0.00, -0.00, -1.00, 35.8, 5.0)">3</text><text xml:space="preserve" font-family="Aller,Aller" font-size="38.0" fill="#FEFFFF" transform="matrix(1.00, 0.00, -0.00, -1.00, 58.6, 5.0)">D</text><text xml:space="preserve" font-family="Aller,Aller" font-size="38.0" fill="#FEFFFF" transform="matrix(1.00, 0.00, -0.00, -1.00, 85.2, 5.0)"> </text><text xml:space="preserve" font-family="Aller,Aller" font-size="38.0" fill="#FEFFFF" transform="matrix(1.00, 0.00, -0.00, -1.00, 94.2, 5.0)">R</text><text xml:space="preserve" font-family="Aller,Aller" font-size="38.0" fill="#FEFFFF" transform="matrix(1.00, 0.00, -0.00, -1.00, 116.3, 5.0)">e</text><text xml:space="preserve" font-family="Aller,Aller" font-size="38.0" fill="#FEFFFF" transform="matrix(1.00, 0.00, -0.00, -1.00, 137.4, 5.0)">c</text><text xml:space="preserve" font-family="Aller,Aller" font-size="38.0" fill="#FEFFFF" transform="matrix(1.00, 0.00, -0.00, -1.00, 155.0, 5.0)">o</text><text xml:space="preserve" font-family="Aller,Aller" font-size="38.0" fill="#FEFFFF" transform="matrix(1.00, 0.00, -0.00, -1.00, 176.9, 5.0)">n</text><text xml:space="preserve" font-family="Aller,Aller" font-size="38.0" fill="#FEFFFF" transform="matrix(1.00, 0.00, -0.00, -1.00, 198.9, 5.0)">s</text><text xml:space="preserve" font-family="Aller,Aller" font-size="38.0" fill="#FEFFFF" transform="matrix(1.00, 0.00, -0.00, -1.00, 216.2, 5.0)">t</text><text xml:space="preserve" font-family="Aller,Aller" font-size="38.0" fill="#FEFFFF" transform="matrix(1.00, 0.00, -0.00, -1.00, 229.8, 5.0)">r</text><text xml:space="preserve" font-family="Aller,Aller" font-size="38.0" fill="#FEFFFF" transform="matrix(1.00, 0.00, -0.00, -1.00, 243.9, 5.0)">u</text><text xml:space="preserve" font-family="Aller,Aller" font-size="38.0" fill="#FEFFFF" transform="matrix(1.00, 0.00, -0.00, -1.00, 265.7, 5.0)">c</text><text xml:space="preserve" font-family="Aller,Aller" font-size="38.0" fill="#FEFFFF" transform="matrix(1.00, 0.00, -0.00, -1.00, 283.9, 5.0)">t</text><text xml:space="preserve" font-family="Aller,Aller" font-size="38.0" fill="#FEFFFF" transform="matrix(1.00, 0.00, -0.00, -1.00, 297.5, 5.0)">i</text><text xml:space="preserve" font-family="Aller,Aller" font-size="38.0" fill="#FEFFFF" transform="matrix(1.00, 0.00, -0.00, -1.00, 308.5, 5.0)">o</text><text xml:space="preserve" font-family="Aller,Aller" font-size="38.0" fill="#FEFFFF" transform="matrix(1.00, 0.00, -0.00, -1.00, 330.4, 5.0)">n</text></g></svg>