<?xml version="1.0" encoding="UTF-8" standalone="no"?><svg xmlns="http://www.w3.org/2000/svg" xmlns:xlink="http://www.w3.org/1999/xlink" clip-rule="evenodd" stroke-miterlimit="10" viewBox="0 0 799 63"><desc>SVG generated by Keynote</desc><defs></defs><g transform="matrix(1.00, 0.00, -0.00, -1.00, 0.0, 63.0)"><text xml:space="preserve" font-family="Aller-Bold,Aller" font-weight="bold" font-size="80.0" fill="#FEFFFF" transform="matrix(1.00, 0.00, -0.00, -1.00, -2.3, 2.0)">C</text><text xml:space="preserve" font-family="Aller-Bold,Aller" font-weight="bold" font-size="80.0" fill="#FEFFFF" transform="matrix(1.00, 0.00, -0.00, -1.00, 46.4, 2.0)">o</text><text xml:space="preserve" font-family="Aller-Bold,Aller" font-weight="bold" font-size="80.0" fill="#FEFFFF" transform="matrix(1.00, 0.00, -0.00, -1.00, 92.8, 2.0)">l</text><text xml:space="preserve" font-family="Aller-Bold,Aller" font-weight="bold" font-size="80.0" fill="#FEFFFF" transform="matrix(1.00, 0.00, -0.00, -1.00, 118.7, 2.0)">l</text><text xml:space="preserve" font-family="Aller-Bold,Aller" font-weight="bold" font-size="80.0" fill="#FEFFFF" transform="matrix(1.00, 0.00, -0.00, -1.00, 144.6, 2.0)">a</text><text xml:space="preserve" font-family="Aller-Bold,Aller" font-weight="bold" font-size="80.0" fill="#FEFFFF" transform="matrix(1.00, 0.00, -0.00, -1.00, 186.4, 2.0)">b</text><text xml:space="preserve" font-family="Aller-Bold,Aller" font-weight="bold" font-size="80.0" fill="#FEFFFF" transform="matrix(1.00, 0.00, -0.00, -1.00, 233.6, 2.0)">o</text><text xml:space="preserve" font-family="Aller-Bold,Aller" font-weight="bold" font-size="80.0" fill="#FEFFFF" transform="matrix(1.00, 0.00, -0.00, -1.00, 280.0, 2.0)">r</text><text xml:space="preserve" font-family="Aller-Bold,Aller" font-weight="bold" font-size="80.0" fill="#FEFFFF" transform="matrix(1.00, 0.00, -0.00, -1.00, 311.3, 2.0)">a</text><text xml:space="preserve" font-family="Aller-Bold,Aller" font-weight="bold" font-size="80.0" fill="#FEFFFF" transform="matrix(1.00, 0.00, -0.00, -1.00, 353.1, 2.0)">t</text><text xml:space="preserve" font-family="Aller-Bold,Aller" font-weight="bold" font-size="80.0" fill="#FEFFFF" transform="matrix(1.00, 0.00, -0.00, -1.00, 383.7, 2.0)">i</text><text xml:space="preserve" font-family="Aller-Bold,Aller" font-weight="bold" font-size="80.0" fill="#FEFFFF" transform="matrix(1.00, 0.00, -0.00, -1.00, 408.3, 2.0)">o</text><text xml:space="preserve" font-family="Aller-Bold,Aller" font-weight="bold" font-size="80.0" fill="#FEFFFF" transform="matrix(1.00, 0.00, -0.00, -1.00, 454.7, 2.0)">n</text><text xml:space="preserve" font-family="Aller-Bold,Aller" font-weight="bold" font-size="80.0" fill="#FEFFFF" transform="matrix(1.00, 0.00, -0.00, -1.00, 501.6, 2.0)">:</text><text xml:space="preserve" font-family="Aller-Bold,Aller" font-weight="bold" font-size="80.0" fill="#FEFFFF" transform="matrix(1.00, 0.00, -0.00, -1.00, 524.8, 2.0)"> </text><text xml:space="preserve" font-family="Aller-Bold,Aller" font-weight="bold" font-size="80.0" fill="#A7D3A9" transform="matrix(1.00, 0.00, -0.00, -1.00, 542.4, 2.0)">F</text><text xml:space="preserve" font-family="Aller-Bold,Aller" font-weight="bold" font-size="80.0" fill="#A7D3A9" transform="matrix(1.00, 0.00, -0.00, -1.00, 581.7, 2.0)">o</text><text xml:space="preserve" font-family="Aller-Bold,Aller" font-weight="bold" font-size="80.0" fill="#A7D3A9" transform="matrix(1.00, 0.00, -0.00, -1.00, 628.1, 2.0)">r</text><text xml:space="preserve" font-family="Aller-Bold,Aller" font-weight="bold" font-size="80.0" fill="#A7D3A9" transform="matrix(1.00, 0.00, -0.00, -1.00, 660.3, 2.0)">m</text><text xml:space="preserve" font-family="Aller-Bold,Aller" font-weight="bold" font-size="80.0" fill="#A7D3A9" transform="matrix(1.00, 0.00, -0.00, -1.00, 730.6, 2.0)">a</text><text xml:space="preserve" font-family="Aller-Bold,Aller" font-weight="bold" font-size="80.0" fill="#A7D3A9" transform="matrix(1.00, 0.00, -0.00, -1.00, 772.4, 2.0)">l</text></g></svg>