<?xml version="1.0" encoding="UTF-8" standalone="no"?><svg xmlns="http://www.w3.org/2000/svg" xmlns:xlink="http://www.w3.org/1999/xlink" clip-rule="evenodd" stroke-miterlimit="10" viewBox="0 0 227 29"><desc>SVG generated by Keynote</desc><defs></defs><g transform="matrix(1.00, 0.00, -0.00, -1.00, 0.0, 29.0)"><text xml:space="preserve" font-family="Aller,Aller" font-size="24.0" fill="#FEFFFF" transform="matrix(1.00, 0.00, -0.00, -1.00, 0.7, 8.3)">(</text><text xml:space="preserve" font-family="Aller,Aller" font-size="24.0" fill="#FEFFFF" transform="matrix(1.00, 0.00, -0.00, -1.00, 8.3, 8.3)">p</text><text xml:space="preserve" font-family="Aller,Aller" font-size="24.0" fill="#FEFFFF" transform="matrix(1.00, 0.00, -0.00, -1.00, 22.5, 8.3)">h</text><text xml:space="preserve" font-family="Aller,Aller" font-size="24.0" fill="#FEFFFF" transform="matrix(1.00, 0.00, -0.00, -1.00, 36.4, 8.3)">y</text><text xml:space="preserve" font-family="Aller,Aller" font-size="24.0" fill="#FEFFFF" transform="matrix(1.00, 0.00, -0.00, -1.00, 49.1, 8.3)">s</text><text xml:space="preserve" font-family="Aller,Aller" font-size="24.0" fill="#FEFFFF" transform="matrix(1.00, 0.00, -0.00, -1.00, 60.0, 8.3)">i</text><text xml:space="preserve" font-family="Aller,Aller" font-size="24.0" fill="#FEFFFF" transform="matrix(1.00, 0.00, -0.00, -1.00, 66.9, 8.3)">c</text><text xml:space="preserve" font-family="Aller,Aller" font-size="24.0" fill="#FEFFFF" transform="matrix(1.00, 0.00, -0.00, -1.00, 78.4, 8.3)">a</text><text xml:space="preserve" font-family="Aller,Aller" font-size="24.0" fill="#FEFFFF" transform="matrix(1.00, 0.00, -0.00, -1.00, 90.8, 8.3)">l</text><text xml:space="preserve" font-family="Aller,Aller" font-size="24.0" fill="#FEFFFF" transform="matrix(1.00, 0.00, -0.00, -1.00, 97.9, 8.3)"> </text><text xml:space="preserve" font-family="Aller,Aller" font-size="24.0" fill="#FEFFFF" transform="matrix(1.00, 0.00, -0.00, -1.00, 103.6, 8.3)">c</text><text xml:space="preserve" font-family="Aller,Aller" font-size="24.0" fill="#FEFFFF" transform="matrix(1.00, 0.00, -0.00, -1.00, 114.7, 8.3)">o</text><text xml:space="preserve" font-family="Aller,Aller" font-size="24.0" fill="#FEFFFF" transform="matrix(1.00, 0.00, -0.00, -1.00, 128.6, 8.3)">n</text><text xml:space="preserve" font-family="Aller,Aller" font-size="24.0" fill="#FEFFFF" transform="matrix(1.00, 0.00, -0.00, -1.00, 142.4, 8.3)">d</text><text xml:space="preserve" font-family="Aller,Aller" font-size="24.0" fill="#FEFFFF" transform="matrix(1.00, 0.00, -0.00, -1.00, 156.5, 8.3)">i</text><text xml:space="preserve" font-family="Aller,Aller" font-size="24.0" fill="#FEFFFF" transform="matrix(1.00, 0.00, -0.00, -1.00, 163.4, 8.3)">t</text><text xml:space="preserve" font-family="Aller,Aller" font-size="24.0" fill="#FEFFFF" transform="matrix(1.00, 0.00, -0.00, -1.00, 172.0, 8.3)">i</text><text xml:space="preserve" font-family="Aller,Aller" font-size="24.0" fill="#FEFFFF" transform="matrix(1.00, 0.00, -0.00, -1.00, 178.9, 8.3)">o</text><text xml:space="preserve" font-family="Aller,Aller" font-size="24.0" fill="#FEFFFF" transform="matrix(1.00, 0.00, -0.00, -1.00, 192.8, 8.3)">n</text><text xml:space="preserve" font-family="Aller,Aller" font-size="24.0" fill="#FEFFFF" transform="matrix(1.00, 0.00, -0.00, -1.00, 206.6, 8.3)">s</text><text xml:space="preserve" font-family="Aller,Aller" font-size="24.0" fill="#FEFFFF" transform="matrix(1.00, 0.00, -0.00, -1.00, 217.6, 8.3)">)</text></g></svg>