<?xml version="1.0" encoding="UTF-8" standalone="no"?><svg xmlns="http://www.w3.org/2000/svg" xmlns:xlink="http://www.w3.org/1999/xlink" clip-rule="evenodd" stroke-miterlimit="10" viewBox="0 0 133 170"><desc>SVG generated by Keynote</desc><defs></defs><g transform="matrix(1.00, 0.00, -0.00, -1.00, 0.0, 170.0)"><g><clipPath id="clip0x600000ea0960"><path d="M 1.0 168.5 L 130.8 168.5 L 130.8 2.0 L 1.0 2.0 Z M 1.0 168.5 "></path></clipPath><g clip-path="url(#clip0x600000ea0960)"><g><clipPath id="clip0x600000ea0a80"><path d="M 1.0 2.0 L 131.0 2.0 L 131.0 169.0 L 1.0 169.0 Z M 1.0 2.0 "></path></clipPath><g clip-path="url(#clip0x600000ea0a80)"><path d="M 1.0 7.6 L 56.8 7.6 L 56.8 2.0 L 1.0 2.0 Z M 1.0 7.6 " fill="#FFFEFE"></path></g></g></g></g><g><clipPath id="clip0x600000ea0c60"><path d="M 1.0 2.0 L 131.0 2.0 L 131.0 169.0 L 1.0 169.0 Z M 1.0 2.0 "></path></clipPath><g clip-path="url(#clip0x600000ea0c60)"><path d="M 66.2 146.0 C 69.1 145.9 71.6 148.2 71.7 151.1 C 71.8 154.1 69.5 156.5 66.5 156.6 C 63.6 156.7 61.1 154.4 61.0 151.4 C 61.0 148.5 63.3 146.1 66.2 146.0 " fill="#FFFEFE"></path><path d="M 56.3 147.6 C 57.2 147.6 60.3 147.1 62.4 145.6 C 64.4 144.0 66.7 140.7 66.7 140.3 C 66.8 140.7 69.1 144.0 70.0 144.7 C 71.5 146.0 73.2 147.3 77.3 147.7 L 77.3 142.1 C 76.5 142.1 74.9 141.6 73.5 140.5 C 72.1 139.3 70.6 137.0 70.1 135.4 C 69.6 133.8 69.5 132.4 69.5 131.5 L 69.6 120.6 L 64.0 120.6 L 64.2 131.4 C 64.1 132.4 63.9 134.5 63.4 135.6 C 62.9 136.6 61.7 139.4 59.5 140.8 C 58.9 141.2 57.9 142.1 56.3 142.1 L 56.3 147.6 " fill="#FFFEFE"></path><path d="M 66.7 161.9 C 66.8 161.8 71.6 158.6 75.5 154.7 C 76.8 153.4 80.1 149.4 80.1 144.5 C 80.1 140.0 77.6 136.9 77.3 136.5 C 76.4 135.5 73.0 132.8 71.0 132.5 L 71.0 126.8 C 73.4 127.3 77.6 128.9 79.9 131.2 C 82.3 133.6 84.3 136.5 85.1 140.1 C 86.1 144.2 85.4 149.0 84.1 151.7 C 82.4 155.3 79.5 158.8 75.8 161.8 L 66.7 168.5 L 57.6 161.7 C 53.9 158.7 51.0 155.3 49.3 151.6 C 48.0 148.9 47.3 144.1 48.4 140.0 C 49.3 136.4 51.2 133.5 53.6 131.2 C 56.0 128.8 60.1 127.2 62.6 126.8 L 62.5 132.5 C 60.6 132.7 57.1 135.4 56.2 136.5 C 55.9 136.8 53.4 140.0 53.4 144.4 C 53.4 149.4 56.7 153.4 57.9 154.6 C 61.8 158.6 66.6 161.8 66.7 161.9 " fill="#FFFEFE"></path><path d="M 40.7 115.8 C 40.6 116.7 40.0 117.3 39.0 117.3 C 37.9 117.3 37.3 116.4 37.3 114.5 C 37.3 113.2 37.6 112.0 39.1 112.0 C 40.1 112.0 40.6 112.7 40.7 113.6 L 43.6 113.6 C 43.3 111.1 41.6 109.6 39.2 109.6 C 36.1 109.6 34.2 111.6 34.2 114.6 C 34.2 117.7 36.3 119.6 38.9 119.6 C 41.7 119.6 43.3 118.2 43.6 115.8 L 40.7 115.8 " fill="#FFFEFE"></path><path d="M 44.3 119.4 L 47.0 119.4 L 47.0 109.9 L 44.3 109.9 Z M 44.3 119.4 " fill="#FFFEFE"></path><path d="M 50.5 112.7 C 50.5 111.9 51.1 111.4 51.8 111.4 C 52.2 111.4 52.6 111.6 52.8 112.0 L 55.4 112.0 C 54.9 110.3 53.2 109.7 51.6 109.7 C 49.5 109.7 47.8 110.9 47.8 113.3 C 47.8 115.5 49.5 117.0 51.6 117.0 C 54.1 117.0 55.7 115.2 55.6 112.7 L 50.5 112.7 Z M 52.9 114.1 C 52.9 114.7 52.4 115.3 51.7 115.3 C 50.9 115.3 50.5 114.9 50.5 114.1 L 52.9 114.1 " fill="#FFFEFE"></path><path d="M 55.6 116.8 L 58.3 116.8 L 59.5 112.4 L 60.6 116.8 L 63.2 116.8 L 60.9 109.9 L 57.9 109.9 L 55.6 116.8 " fill="#FFFEFE"></path><path d="M 65.6 112.7 C 65.6 111.9 66.2 111.4 66.9 111.4 C 67.4 111.4 67.8 111.6 68.0 112.0 L 70.5 112.0 C 70.1 110.3 68.4 109.7 66.8 109.7 C 64.6 109.7 62.9 110.9 62.9 113.3 C 62.9 115.5 64.6 117.0 66.8 117.0 C 69.3 117.0 70.8 115.2 70.7 112.7 L 65.6 112.7 Z M 68.1 114.1 C 68.1 114.7 67.5 115.3 66.9 115.3 C 66.1 115.3 65.6 114.9 65.6 114.1 L 68.1 114.1 " fill="#FFFEFE"></path><path d="M 71.4 119.4 L 74.0 119.4 L 74.0 109.9 L 71.4 109.9 Z M 71.4 119.4 " fill="#FFFEFE"></path><path d="M 79.8 109.9 L 79.7 110.6 C 78.9 109.9 78.2 109.7 77.1 109.7 C 75.9 109.7 74.7 110.3 74.7 111.8 C 74.7 114.9 79.6 113.5 79.6 114.8 C 79.6 115.3 79.0 115.3 78.7 115.3 C 78.3 115.3 77.8 115.3 77.7 114.7 L 75.1 114.7 C 75.1 116.1 76.2 117.0 78.8 117.0 C 82.1 117.0 82.2 115.8 82.2 114.1 L 82.2 110.9 C 82.2 110.5 82.3 110.3 82.6 110.0 L 82.6 109.9 L 79.8 109.9 Z M 79.6 112.9 C 78.7 112.5 77.5 112.7 77.5 111.8 C 77.5 111.5 77.8 111.2 78.4 111.2 C 79.3 111.2 79.6 112.0 79.6 112.9 " fill="#FFFEFE"></path><path d="M 83.3 116.8 L 85.8 116.8 L 85.8 115.7 C 86.4 116.5 87.0 117.0 88.0 117.0 C 89.8 117.0 90.7 115.9 90.7 114.0 L 90.7 109.9 L 88.0 109.9 L 88.0 113.5 C 88.0 114.2 87.8 114.8 87.0 114.8 C 86.2 114.8 86.0 114.3 86.0 113.4 L 86.0 109.9 L 83.3 109.9 L 83.3 116.8 " fill="#FFFEFE"></path><path d="M 96.4 109.9 L 96.4 110.8 C 95.8 110.0 95.2 109.7 94.4 109.7 C 92.3 109.7 91.3 111.3 91.3 113.2 C 91.3 115.5 92.5 117.0 94.2 117.0 C 95.0 117.0 95.6 116.8 96.2 116.1 L 96.2 119.4 L 98.9 119.4 L 98.9 109.9 L 96.4 109.9 Z M 96.3 113.3 C 96.3 114.0 96.0 114.9 95.1 114.9 C 94.2 114.9 94.0 114.0 94.0 113.2 C 94.0 112.5 94.2 111.7 95.0 111.7 C 96.0 111.7 96.3 112.5 96.3 113.3 " fill="#FFFEFE"></path><path d="M 29.5 98.2 L 29.5 107.7 L 33.1 107.7 L 34.8 101.7 L 36.4 107.7 L 40.1 107.7 L 40.1 98.2 L 37.4 98.2 L 37.4 101.1 L 37.4 102.6 L 37.6 104.3 L 37.5 104.3 L 35.9 98.2 L 33.7 98.2 L 32.0 104.3 L 32.0 104.3 L 32.1 102.9 L 32.2 101.4 L 32.2 98.2 L 29.5 98.2 " fill="#FFFEFE"></path><path d="M 43.4 101.0 C 43.4 100.2 44.0 99.7 44.7 99.7 C 45.2 99.7 45.5 99.8 45.7 100.3 L 48.3 100.3 C 47.9 98.5 46.1 98.0 44.6 98.0 C 42.4 98.0 40.7 99.2 40.7 101.6 C 40.7 103.8 42.4 105.3 44.6 105.3 C 47.1 105.3 48.6 103.5 48.5 101.0 L 43.4 101.0 Z M 45.8 102.4 C 45.8 103.0 45.3 103.6 44.7 103.6 C 43.9 103.6 43.4 103.1 43.4 102.4 L 45.8 102.4 " fill="#FFFEFE"></path><path d="M 53.6 98.2 C 50.0 98.0 49.6 98.2 49.6 100.6 L 49.6 103.5 L 48.7 103.5 L 48.7 105.1 L 49.7 105.1 L 49.7 107.2 L 52.3 107.2 L 52.3 105.1 L 53.6 105.1 L 53.6 103.5 L 52.3 103.5 L 52.3 101.0 C 52.3 100.4 52.4 100.1 53.2 100.1 L 53.6 100.1 L 53.6 98.2 " fill="#FFFEFE"></path><path d="M 54.3 105.1 L 56.8 105.1 L 56.8 103.7 L 56.8 103.7 C 57.2 104.8 57.8 105.3 58.9 105.3 C 59.0 105.3 59.1 105.3 59.2 105.2 L 59.2 102.5 C 59.0 102.5 58.8 102.6 58.7 102.6 C 57.6 102.6 57.0 102.1 57.0 100.6 L 57.0 98.2 L 54.3 98.2 L 54.3 105.1 " fill="#FFFEFE"></path><path d="M 63.1 105.3 C 65.5 105.3 67.0 103.8 67.0 101.7 C 67.0 99.2 65.3 98.0 63.1 98.0 C 60.9 98.0 59.2 99.2 59.2 101.6 C 59.2 104.0 60.8 105.3 63.1 105.3 M 61.9 101.7 C 61.9 100.4 62.4 99.8 63.1 99.8 C 63.8 99.8 64.3 100.4 64.3 101.7 C 64.3 102.7 63.8 103.5 63.1 103.4 C 62.2 103.4 61.9 102.5 61.9 101.7 " fill="#FFFEFE"></path><path d="M 69.9 105.1 L 69.9 104.1 L 70.0 104.1 C 70.3 104.9 71.3 105.3 72.1 105.3 C 74.1 105.3 75.1 103.6 75.1 101.7 C 75.1 99.0 73.5 98.0 72.0 98.0 C 71.2 98.0 70.7 98.3 70.2 98.9 L 70.2 95.8 L 67.5 95.8 L 67.5 105.1 L 69.9 105.1 Z M 72.4 101.6 C 72.4 102.7 72.0 103.3 71.3 103.3 C 70.6 103.3 70.2 102.6 70.2 101.7 C 70.2 100.7 70.6 100.1 71.3 100.1 C 72.0 100.1 72.4 100.7 72.4 101.6 " fill="#FFFEFE"></path><path d="M 80.6 98.2 L 80.4 98.9 C 79.7 98.2 78.9 98.0 77.9 98.0 C 76.6 98.0 75.5 98.6 75.5 100.1 C 75.5 103.2 80.3 101.8 80.3 103.1 C 80.3 103.6 79.7 103.6 79.4 103.6 C 79.0 103.6 78.5 103.6 78.5 103.0 L 75.9 103.0 C 75.9 104.4 76.9 105.3 79.6 105.3 C 82.8 105.3 83.0 104.1 83.0 102.4 L 83.0 99.2 C 83.0 98.8 83.0 98.6 83.3 98.3 L 83.3 98.2 L 80.6 98.2 Z M 80.3 101.2 C 79.4 100.8 78.2 101.0 78.2 100.1 C 78.2 99.8 78.6 99.5 79.1 99.5 C 80.0 99.5 80.3 100.3 80.3 101.2 " fill="#FFFEFE"></path><path d="M 84.1 105.1 L 86.6 105.1 L 86.6 103.7 L 86.6 103.7 C 87.0 104.8 87.6 105.3 88.7 105.3 C 88.8 105.3 88.9 105.3 89.0 105.2 L 89.0 102.5 C 88.8 102.5 88.6 102.6 88.5 102.6 C 87.4 102.6 86.8 102.1 86.8 100.6 L 86.8 98.2 L 84.1 98.2 L 84.1 105.1 " fill="#FFFEFE"></path><path d="M 92.2 100.1 L 92.2 98.2 L 89.5 98.2 L 89.5 107.7 L 92.2 107.7 L 92.2 103.0 L 93.9 105.1 L 97.1 105.1 L 94.6 102.4 L 97.4 98.2 L 94.2 98.2 L 92.7 100.6 L 92.2 100.1 " fill="#FFFEFE"></path></g></g><g><clipPath id="clip0x600000ea15c0"><path d="M 1.0 168.5 L 130.8 168.5 L 130.8 2.0 L 1.0 2.0 Z M 1.0 168.5 "></path></clipPath><g clip-path="url(#clip0x600000ea15c0)"><g><clipPath id="clip0x600000ea1740"><path d="M 1.0 2.0 L 131.0 2.0 L 131.0 169.0 L 1.0 169.0 Z M 1.0 2.0 "></path></clipPath><g clip-path="url(#clip0x600000ea1740)"><path d="M 99.8 100.3 C 99.8 100.0 99.9 99.8 100.1 99.7 C 100.3 99.6 100.5 99.5 100.8 99.5 C 101.2 99.5 101.6 99.6 101.6 100.1 C 101.6 101.2 97.5 100.3 97.5 103.0 C 97.5 104.8 99.3 105.3 100.7 105.3 C 102.2 105.3 103.9 104.9 104.0 103.1 L 101.6 103.1 C 101.6 103.3 101.5 103.5 101.3 103.6 C 101.2 103.7 101.0 103.8 100.8 103.8 C 100.3 103.8 100.0 103.6 100.0 103.3 C 100.0 102.3 104.3 103.0 104.3 100.4 C 104.3 99.0 103.2 98.0 100.7 98.0 C 99.1 98.0 97.4 98.5 97.3 100.3 L 99.8 100.3 " fill="#FFFEFE"></path><path d="M 80.6 23.7 L 80.6 34.4 C 80.6 38.6 78.6 40.6 74.6 40.6 L 65.6 40.6 L 65.6 2.0 L 70.6 2.0 L 70.6 17.6 L 74.7 17.6 C 78.6 17.6 80.6 19.6 80.6 23.7 M 75.7 24.1 C 75.7 22.7 75.0 22.0 73.7 22.0 L 70.6 22.0 L 70.6 36.3 L 73.5 36.3 C 74.9 36.3 75.7 35.6 75.7 34.1 L 75.7 24.1 " fill="#FFFFFF"></path><path d="M 94.8 6.4 L 88.0 6.4 L 88.0 40.7 L 83.1 40.7 L 83.1 2.0 L 94.8 2.0 L 94.8 6.4 " fill="#FFFFFF"></path><path d="M 112.5 2.0 L 112.5 34.4 C 112.5 38.6 110.5 40.6 106.6 40.6 L 102.9 40.6 C 98.9 40.6 96.9 38.6 96.9 34.4 L 96.9 2.0 L 101.9 2.0 L 101.9 17.8 L 107.6 17.8 L 107.6 2.0 L 112.5 2.0 Z M 107.6 22.1 L 101.9 22.1 L 101.9 34.1 C 101.9 35.6 102.6 36.3 104.1 36.3 L 105.4 36.3 C 106.8 36.3 107.6 35.6 107.6 34.1 L 107.6 22.1 " fill="#FFFFFF"></path><path d="M 124.8 17.8 L 130.8 40.6 L 125.9 40.6 L 122.5 24.9 L 122.4 24.9 L 118.7 40.6 L 113.8 40.6 L 119.9 17.8 L 119.9 2.0 L 124.8 2.0 L 124.8 17.8 " fill="#FFFFFF"></path></g></g></g></g><g><clipPath id="clip0x600000ea1aa0"><path d="M 1.0 2.0 L 131.0 2.0 L 131.0 169.0 L 1.0 169.0 Z M 1.0 2.0 "></path></clipPath><g clip-path="url(#clip0x600000ea1aa0)"><path d="M 16.5 12.0 L 16.5 35.7 C 16.5 39.0 14.6 40.6 10.6 40.6 L 6.9 40.6 C 3.0 40.6 1.0 39.0 1.0 35.7 L 1.0 12.0 L 5.9 12.0 L 5.9 22.5 L 11.6 22.5 L 11.6 12.0 L 16.5 12.0 Z M 11.6 26.0 L 5.9 26.0 L 5.9 35.5 C 5.9 36.6 6.7 37.2 8.1 37.2 L 9.4 37.2 C 10.9 37.2 11.6 36.6 11.6 35.5 L 11.6 26.0 " fill="#FFFEFE"></path><path d="M 26.2 40.6 L 21.3 40.6 L 21.3 12.0 L 26.2 12.0 L 26.2 30.8 L 31.5 17.7 L 31.5 12.0 L 36.5 12.0 L 36.5 40.6 L 31.5 40.6 L 31.5 26.8 L 26.2 40.6 " fill="#FFFEFE"></path><path d="M 56.8 16.2 L 56.8 35.1 C 56.8 38.8 54.5 40.6 49.8 40.6 L 41.2 40.6 L 41.2 12.0 L 50.9 12.0 C 54.8 12.0 56.8 13.4 56.8 16.2 M 51.9 16.8 C 51.9 15.9 51.2 15.5 49.9 15.5 L 46.2 15.5 L 46.2 37.2 L 49.6 37.2 C 51.1 37.2 51.9 36.5 51.9 35.1 L 51.9 16.8 " fill="#FFFEFE"></path><path d="M 10.9 54.2 L 10.9 52.1 C 10.9 50.6 10.2 49.9 9.0 49.9 L 7.7 49.9 C 6.5 49.9 5.8 50.6 5.8 52.1 L 5.8 76.9 C 5.8 78.4 6.5 79.1 7.7 79.1 L 8.7 79.1 C 10.1 79.1 10.9 78.4 10.9 76.9 L 10.9 72.9 L 15.7 72.9 L 15.7 77.3 C 15.7 81.6 13.8 83.8 9.9 83.8 L 6.8 83.8 C 2.9 83.8 1.0 81.6 1.0 77.3 L 1.0 51.7 C 1.0 47.4 2.9 45.2 6.8 45.2 L 9.9 45.2 C 13.8 45.2 15.7 47.4 15.7 51.7 L 15.7 54.2 L 10.9 54.2 " fill="#FFFEFE"></path><path d="M 34.6 51.7 L 34.6 77.2 C 34.6 81.6 32.6 83.8 28.8 83.8 L 24.1 83.8 C 20.3 83.8 18.4 81.6 18.4 77.2 L 18.4 51.7 C 18.4 47.4 20.3 45.2 24.2 45.2 L 28.7 45.2 C 32.6 45.2 34.6 47.4 34.6 51.7 M 29.7 52.1 C 29.7 50.6 29.1 49.9 27.8 49.9 L 25.3 49.9 C 23.9 49.9 23.2 50.6 23.2 52.1 L 23.2 76.9 C 23.2 78.4 23.9 79.1 25.3 79.1 L 27.6 79.1 C 29.0 79.1 29.7 78.4 29.7 76.9 L 29.7 52.1 " fill="#FFFEFE"></path><path d="M 42.5 83.8 L 37.2 83.8 L 37.2 45.2 L 42.0 45.2 L 41.5 70.5 L 45.2 52.2 L 48.9 52.2 L 52.5 70.5 L 52.0 45.2 L 56.8 45.2 L 56.8 83.8 L 51.5 83.8 L 47.0 61.1 L 42.5 83.8 " fill="#FFFEFE"></path><path d="M 71.5 45.2 L 71.5 49.9 L 64.3 49.9 L 64.3 62.7 L 70.7 62.7 L 70.7 67.4 L 64.3 67.4 L 64.3 79.1 L 71.5 79.1 L 71.5 83.8 L 59.5 83.8 L 59.5 45.2 L 71.5 45.2 " fill="#FFFEFE"></path><path d="M 95.6 51.7 L 95.6 77.2 C 95.6 81.6 93.7 83.8 89.8 83.8 L 85.2 83.8 C 81.3 83.8 79.4 81.6 79.4 77.2 L 79.4 51.7 C 79.4 47.4 81.4 45.2 85.3 45.2 L 89.8 45.2 C 93.7 45.2 95.6 47.4 95.6 51.7 M 90.8 52.1 C 90.8 50.6 90.2 49.9 88.9 49.9 L 86.4 49.9 C 85.0 49.9 84.3 50.6 84.3 52.1 L 84.3 76.9 C 84.3 78.4 85.0 79.1 86.4 79.1 L 88.6 79.1 C 90.1 79.1 90.8 78.4 90.8 76.9 L 90.8 52.1 " fill="#FFFFFF"></path><path d="M 109.2 83.8 L 109.2 52.4 C 109.2 50.7 108.5 49.9 107.2 49.9 L 105.2 49.9 C 103.8 49.9 103.1 50.7 103.1 52.4 L 103.1 83.8 L 98.3 83.8 L 98.3 52.5 C 98.3 47.6 100.2 45.2 104.1 45.2 L 108.2 45.2 C 112.1 45.2 114.0 47.6 114.0 52.5 L 114.0 83.8 L 109.2 83.8 " fill="#FFFFFF"></path><path d="M 130.8 79.1 L 130.8 83.8 L 116.7 83.8 L 116.7 79.1 L 121.3 79.1 L 121.3 45.2 L 126.1 45.2 L 126.1 79.1 L 130.8 79.1 " fill="#FFFFFF"></path><path d="M 1.0 94.0 L 130.8 94.0 L 130.8 88.3 L 1.0 88.3 Z M 1.0 94.0 " fill="#FFFEFE"></path></g></g></g></svg>