<?xml version="1.0" encoding="UTF-8" standalone="no"?><svg xmlns="http://www.w3.org/2000/svg" xmlns:xlink="http://www.w3.org/1999/xlink" clip-rule="evenodd" stroke-miterlimit="10" viewBox="0 0 225 27"><desc>SVG generated by Keynote</desc><defs></defs><g transform="matrix(1.00, 0.00, -0.00, -1.00, 0.0, 27.0)"><text xml:space="preserve" font-family="Aller,Aller" font-size="24.0" fill="#FEFFFF" transform="matrix(1.00, 0.00, -0.00, -1.00, 0.9, 6.3)">(</text><text xml:space="preserve" font-family="Aller,Aller" font-size="24.0" fill="#FEFFFF" transform="matrix(1.00, 0.00, -0.00, -1.00, 8.5, 6.3)">w</text><text xml:space="preserve" font-family="Aller,Aller" font-size="24.0" fill="#FEFFFF" transform="matrix(1.00, 0.00, -0.00, -1.00, 26.7, 6.3)">e</text><text xml:space="preserve" font-family="Aller,Aller" font-size="24.0" fill="#FEFFFF" transform="matrix(1.00, 0.00, -0.00, -1.00, 40.1, 6.3)">a</text><text xml:space="preserve" font-family="Aller,Aller" font-size="24.0" fill="#FEFFFF" transform="matrix(1.00, 0.00, -0.00, -1.00, 52.5, 6.3)">t</text><text xml:space="preserve" font-family="Aller,Aller" font-size="24.0" fill="#FEFFFF" transform="matrix(1.00, 0.00, -0.00, -1.00, 61.1, 6.3)">h</text><text xml:space="preserve" font-family="Aller,Aller" font-size="24.0" fill="#FEFFFF" transform="matrix(1.00, 0.00, -0.00, -1.00, 75.0, 6.3)">e</text><text xml:space="preserve" font-family="Aller,Aller" font-size="24.0" fill="#FEFFFF" transform="matrix(1.00, 0.00, -0.00, -1.00, 88.3, 6.3)">r</text><text xml:space="preserve" font-family="Aller,Aller" font-size="24.0" fill="#FEFFFF" transform="matrix(1.00, 0.00, -0.00, -1.00, 97.2, 6.3)"> </text><text xml:space="preserve" font-family="Aller,Aller" font-size="24.0" fill="#FEFFFF" transform="matrix(1.00, 0.00, -0.00, -1.00, 102.9, 6.3)">c</text><text xml:space="preserve" font-family="Aller,Aller" font-size="24.0" fill="#FEFFFF" transform="matrix(1.00, 0.00, -0.00, -1.00, 114.0, 6.3)">o</text><text xml:space="preserve" font-family="Aller,Aller" font-size="24.0" fill="#FEFFFF" transform="matrix(1.00, 0.00, -0.00, -1.00, 127.9, 6.3)">n</text><text xml:space="preserve" font-family="Aller,Aller" font-size="24.0" fill="#FEFFFF" transform="matrix(1.00, 0.00, -0.00, -1.00, 141.7, 6.3)">d</text><text xml:space="preserve" font-family="Aller,Aller" font-size="24.0" fill="#FEFFFF" transform="matrix(1.00, 0.00, -0.00, -1.00, 155.8, 6.3)">i</text><text xml:space="preserve" font-family="Aller,Aller" font-size="24.0" fill="#FEFFFF" transform="matrix(1.00, 0.00, -0.00, -1.00, 162.7, 6.3)">t</text><text xml:space="preserve" font-family="Aller,Aller" font-size="24.0" fill="#FEFFFF" transform="matrix(1.00, 0.00, -0.00, -1.00, 171.3, 6.3)">i</text><text xml:space="preserve" font-family="Aller,Aller" font-size="24.0" fill="#FEFFFF" transform="matrix(1.00, 0.00, -0.00, -1.00, 178.2, 6.3)">o</text><text xml:space="preserve" font-family="Aller,Aller" font-size="24.0" fill="#FEFFFF" transform="matrix(1.00, 0.00, -0.00, -1.00, 192.1, 6.3)">n</text><text xml:space="preserve" font-family="Aller,Aller" font-size="24.0" fill="#FEFFFF" transform="matrix(1.00, 0.00, -0.00, -1.00, 205.9, 6.3)">s</text><text xml:space="preserve" font-family="Aller,Aller" font-size="24.0" fill="#FEFFFF" transform="matrix(1.00, 0.00, -0.00, -1.00, 216.9, 6.3)">)</text></g></svg>