<?xml version="1.0" encoding="UTF-8" standalone="no"?><svg xmlns="http://www.w3.org/2000/svg" xmlns:xlink="http://www.w3.org/1999/xlink" clip-rule="evenodd" stroke-miterlimit="10" viewBox="0 0 1024 768"><desc>SVG generated by Keynote</desc><defs></defs><g transform="matrix(1.00, 0.00, -0.00, -1.00, 0.0, 768.0)"><path d="M 0.0 768.0 L 1024.0 768.0 L 1024.0 0.0 L 0.0 0.0 Z M 0.0 768.0 " fill="#000000"></path><text xml:space="preserve" font-family="Aller-Bold,Aller" font-weight="bold" font-size="80.0" fill="#FEFFFF" transform="matrix(1.00, 0.00, -0.00, -1.00, 348.2, 635.0)">T</text><text xml:space="preserve" font-family="Aller-Bold,Aller" font-weight="bold" font-size="80.0" fill="#FEFFFF" transform="matrix(1.00, 0.00, -0.00, -1.00, 393.6, 635.0)">i</text><text xml:space="preserve" font-family="Aller-Bold,Aller" font-weight="bold" font-size="80.0" fill="#FEFFFF" transform="matrix(1.00, 0.00, -0.00, -1.00, 418.1, 635.0)">m</text><text xml:space="preserve" font-family="Aller-Bold,Aller" font-weight="bold" font-size="80.0" fill="#FEFFFF" transform="matrix(1.00, 0.00, -0.00, -1.00, 488.4, 635.0)">e</text><text xml:space="preserve" font-family="Aller-Bold,Aller" font-weight="bold" font-size="80.0" fill="#FEFFFF" transform="matrix(1.00, 0.00, -0.00, -1.00, 533.4, 635.0)">l</text><text xml:space="preserve" font-family="Aller-Bold,Aller" font-weight="bold" font-size="80.0" fill="#FEFFFF" transform="matrix(1.00, 0.00, -0.00, -1.00, 559.3, 635.0)">i</text><text xml:space="preserve" font-family="Aller-Bold,Aller" font-weight="bold" font-size="80.0" fill="#FEFFFF" transform="matrix(1.00, 0.00, -0.00, -1.00, 583.9, 635.0)">n</text><text xml:space="preserve" font-family="Aller-Bold,Aller" font-weight="bold" font-size="80.0" fill="#FEFFFF" transform="matrix(1.00, 0.00, -0.00, -1.00, 630.8, 635.0)">e</text><text xml:space="preserve" font-family="Aller,Aller" font-size="28.5" fill="#FEFFFF" transform="matrix(1.00, 0.00, -0.00, -1.00, 79.0, 461.5)">•</text><text xml:space="preserve" font-family="Aller,Aller" font-size="38.0" fill="#FEFFFF" transform="matrix(1.00, 0.00, -0.00, -1.00, 114.0, 458.4)">D</text><text xml:space="preserve" font-family="Aller,Aller" font-size="38.0" fill="#FEFFFF" transform="matrix(1.00, 0.00, -0.00, -1.00, 140.6, 458.4)">e</text><text xml:space="preserve" font-family="Aller,Aller" font-size="38.0" fill="#FEFFFF" transform="matrix(1.00, 0.00, -0.00, -1.00, 161.7, 458.4)">c</text><text xml:space="preserve" font-family="Aller,Aller" font-size="38.0" fill="#FEFFFF" transform="matrix(1.00, 0.00, -0.00, -1.00, 179.3, 458.4)">e</text><text xml:space="preserve" font-family="Aller,Aller" font-size="38.0" fill="#FEFFFF" transform="matrix(1.00, 0.00, -0.00, -1.00, 200.4, 458.4)">m</text><text xml:space="preserve" font-family="Aller,Aller" font-size="38.0" fill="#FEFFFF" transform="matrix(1.00, 0.00, -0.00, -1.00, 232.9, 458.4)">b</text><text xml:space="preserve" font-family="Aller,Aller" font-size="38.0" fill="#FEFFFF" transform="matrix(1.00, 0.00, -0.00, -1.00, 255.3, 458.4)">e</text><text xml:space="preserve" font-family="Aller,Aller" font-size="38.0" fill="#FEFFFF" transform="matrix(1.00, 0.00, -0.00, -1.00, 276.4, 458.4)">r</text><text xml:space="preserve" font-family="Aller,Aller" font-size="38.0" fill="#FEFFFF" transform="matrix(1.00, 0.00, -0.00, -1.00, 290.5, 458.4)"> </text><text xml:space="preserve" font-family="Aller,Aller" font-size="38.0" fill="#FEFFFF" transform="matrix(1.00, 0.00, -0.00, -1.00, 299.6, 458.4)">2</text><text xml:space="preserve" font-family="Aller,Aller" font-size="38.0" fill="#FEFFFF" transform="matrix(1.00, 0.00, -0.00, -1.00, 322.4, 458.4)">0</text><text xml:space="preserve" font-family="Aller,Aller" font-size="38.0" fill="#FEFFFF" transform="matrix(1.00, 0.00, -0.00, -1.00, 345.2, 458.4)">1</text><text xml:space="preserve" font-family="Aller,Aller" font-size="38.0" fill="#FEFFFF" transform="matrix(1.00, 0.00, -0.00, -1.00, 368.0, 458.4)">3</text><text xml:space="preserve" font-family="Aller,Aller" font-size="38.0" fill="#FEFFFF" transform="matrix(1.00, 0.00, -0.00, -1.00, 390.8, 458.4)"> </text><text xml:space="preserve" font-family="Aller,Aller" font-size="38.0" fill="#FEFFFF" transform="matrix(1.00, 0.00, -0.00, -1.00, 399.8, 458.4)">—</text><text xml:space="preserve" font-family="Aller,Aller" font-size="38.0" fill="#FEFFFF" transform="matrix(1.00, 0.00, -0.00, -1.00, 437.8, 458.4)"> </text><text xml:space="preserve" font-family="Aller,Aller" font-size="38.0" fill="#A7D3A9" transform="matrix(1.00, 0.00, -0.00, -1.00, 446.8, 458.4)">P</text><text xml:space="preserve" font-family="Aller,Aller" font-size="38.0" fill="#A7D3A9" transform="matrix(1.00, 0.00, -0.00, -1.00, 468.3, 458.4)">r</text><text xml:space="preserve" font-family="Aller,Aller" font-size="38.0" fill="#A7D3A9" transform="matrix(1.00, 0.00, -0.00, -1.00, 481.8, 458.4)">o</text><text xml:space="preserve" font-family="Aller,Aller" font-size="38.0" fill="#A7D3A9" transform="matrix(1.00, 0.00, -0.00, -1.00, 503.8, 458.4)">p</text><text xml:space="preserve" font-family="Aller,Aller" font-size="38.0" fill="#A7D3A9" transform="matrix(1.00, 0.00, -0.00, -1.00, 526.2, 458.4)">o</text><text xml:space="preserve" font-family="Aller,Aller" font-size="38.0" fill="#A7D3A9" transform="matrix(1.00, 0.00, -0.00, -1.00, 548.1, 458.4)">s</text><text xml:space="preserve" font-family="Aller,Aller" font-size="38.0" fill="#A7D3A9" transform="matrix(1.00, 0.00, -0.00, -1.00, 565.4, 458.4)">e</text><text xml:space="preserve" font-family="Aller,Aller" font-size="38.0" fill="#FEFFFF" transform="matrix(1.00, 0.00, -0.00, -1.00, 586.5, 458.4)"> </text><text xml:space="preserve" font-family="Aller,Aller" font-size="38.0" fill="#FEFFFF" transform="matrix(1.00, 0.00, -0.00, -1.00, 595.5, 458.4)">p</text><text xml:space="preserve" font-family="Aller,Aller" font-size="38.0" fill="#FEFFFF" transform="matrix(1.00, 0.00, -0.00, -1.00, 618.0, 458.4)">a</text><text xml:space="preserve" font-family="Aller,Aller" font-size="38.0" fill="#FEFFFF" transform="matrix(1.00, 0.00, -0.00, -1.00, 637.6, 458.4)">r</text><text xml:space="preserve" font-family="Aller,Aller" font-size="38.0" fill="#FEFFFF" transform="matrix(1.00, 0.00, -0.00, -1.00, 651.7, 458.4)">k</text><text xml:space="preserve" font-family="Aller,Aller" font-size="38.0" fill="#FEFFFF" transform="matrix(1.00, 0.00, -0.00, -1.00, 671.3, 458.4)">s</text><text xml:space="preserve" font-family="Aller,Aller" font-size="38.0" fill="#FEFFFF" transform="matrix(1.00, 0.00, -0.00, -1.00, 688.6, 458.4)"> </text><text xml:space="preserve" font-family="Aller,Aller" font-size="38.0" fill="#A7D3A9" transform="matrix(1.00, 0.00, -0.00, -1.00, 697.6, 458.4)">s</text><text xml:space="preserve" font-family="Aller,Aller" font-size="38.0" fill="#A7D3A9" transform="matrix(1.00, 0.00, -0.00, -1.00, 714.9, 458.4)">U</text><text xml:space="preserve" font-family="Aller,Aller" font-size="38.0" fill="#A7D3A9" transform="matrix(1.00, 0.00, -0.00, -1.00, 740.5, 458.4)">A</text><text xml:space="preserve" font-family="Aller,Aller" font-size="38.0" fill="#A7D3A9" transform="matrix(1.00, 0.00, -0.00, -1.00, 763.9, 458.4)">S</text><text xml:space="preserve" font-family="Aller,Aller" font-size="38.0" fill="#FEFFFF" transform="matrix(1.00, 0.00, -0.00, -1.00, 784.6, 458.4)"> </text><text xml:space="preserve" font-family="Aller,Aller" font-size="38.0" fill="#FEFFFF" transform="matrix(1.00, 0.00, -0.00, -1.00, 793.6, 458.4)">p</text><text xml:space="preserve" font-family="Aller,Aller" font-size="38.0" fill="#FEFFFF" transform="matrix(1.00, 0.00, -0.00, -1.00, 816.0, 458.4)">r</text><text xml:space="preserve" font-family="Aller,Aller" font-size="38.0" fill="#FEFFFF" transform="matrix(1.00, 0.00, -0.00, -1.00, 829.6, 458.4)">o</text><text xml:space="preserve" font-family="Aller,Aller" font-size="38.0" fill="#FEFFFF" transform="matrix(1.00, 0.00, -0.00, -1.00, 851.4, 458.4)">g</text><text xml:space="preserve" font-family="Aller,Aller" font-size="38.0" fill="#FEFFFF" transform="matrix(1.00, 0.00, -0.00, -1.00, 872.4, 458.4)">r</text><text xml:space="preserve" font-family="Aller,Aller" font-size="38.0" fill="#FEFFFF" transform="matrix(1.00, 0.00, -0.00, -1.00, 886.1, 458.4)">a</text><text xml:space="preserve" font-family="Aller,Aller" font-size="38.0" fill="#FEFFFF" transform="matrix(1.00, 0.00, -0.00, -1.00, 905.8, 458.4)">m</text><text xml:space="preserve" font-family="Aller,Aller" font-size="38.0" fill="#FEFFFF" transform="matrix(1.00, 0.00, -0.00, -1.00, 938.2, 458.4)"> </text><text xml:space="preserve" font-family="Aller,Aller" font-size="28.5" fill="#FEFFFF" transform="matrix(1.00, 0.00, -0.00, -1.00, 79.0, 373.5)">•</text><text xml:space="preserve" font-family="Aller,Aller" font-size="38.0" fill="#FEFFFF" transform="matrix(1.00, 0.00, -0.00, -1.00, 114.0, 370.4)">J</text><text xml:space="preserve" font-family="Aller,Aller" font-size="38.0" fill="#FEFFFF" transform="matrix(1.00, 0.00, -0.00, -1.00, 129.0, 370.4)">u</text><text xml:space="preserve" font-family="Aller,Aller" font-size="38.0" fill="#FEFFFF" transform="matrix(1.00, 0.00, -0.00, -1.00, 150.9, 370.4)">n</text><text xml:space="preserve" font-family="Aller,Aller" font-size="38.0" fill="#FEFFFF" transform="matrix(1.00, 0.00, -0.00, -1.00, 172.8, 370.4)">e</text><text xml:space="preserve" font-family="Aller,Aller" font-size="38.0" fill="#FEFFFF" transform="matrix(1.00, 0.00, -0.00, -1.00, 194.0, 370.4)"> </text><text xml:space="preserve" font-family="Aller,Aller" font-size="38.0" fill="#FEFFFF" transform="matrix(1.00, 0.00, -0.00, -1.00, 203.0, 370.4)">2</text><text xml:space="preserve" font-family="Aller,Aller" font-size="38.0" fill="#FEFFFF" transform="matrix(1.00, 0.00, -0.00, -1.00, 225.8, 370.4)">0</text><text xml:space="preserve" font-family="Aller,Aller" font-size="38.0" fill="#FEFFFF" transform="matrix(1.00, 0.00, -0.00, -1.00, 248.6, 370.4)">1</text><text xml:space="preserve" font-family="Aller,Aller" font-size="38.0" fill="#FEFFFF" transform="matrix(1.00, 0.00, -0.00, -1.00, 271.4, 370.4)">4</text><text xml:space="preserve" font-family="Aller,Aller" font-size="38.0" fill="#FEFFFF" transform="matrix(1.00, 0.00, -0.00, -1.00, 294.2, 370.4)"> </text><text xml:space="preserve" font-family="Aller,Aller" font-size="38.0" fill="#FEFFFF" transform="matrix(1.00, 0.00, -0.00, -1.00, 303.2, 370.4)">—</text><text xml:space="preserve" font-family="Aller,Aller" font-size="38.0" fill="#FEFFFF" transform="matrix(1.00, 0.00, -0.00, -1.00, 341.2, 370.4)"> </text><text xml:space="preserve" font-family="Aller,Aller" font-size="38.0" fill="#A7D3A9" transform="matrix(1.00, 0.00, -0.00, -1.00, 350.2, 370.4)">E</text><text xml:space="preserve" font-family="Aller,Aller" font-size="38.0" fill="#A7D3A9" transform="matrix(1.00, 0.00, -0.00, -1.00, 370.5, 370.4)">n</text><text xml:space="preserve" font-family="Aller,Aller" font-size="38.0" fill="#A7D3A9" transform="matrix(1.00, 0.00, -0.00, -1.00, 392.5, 370.4)">t</text><text xml:space="preserve" font-family="Aller,Aller" font-size="38.0" fill="#A7D3A9" transform="matrix(1.00, 0.00, -0.00, -1.00, 406.1, 370.4)">e</text><text xml:space="preserve" font-family="Aller,Aller" font-size="38.0" fill="#A7D3A9" transform="matrix(1.00, 0.00, -0.00, -1.00, 427.2, 370.4)">r</text><text xml:space="preserve" font-family="Aller,Aller" font-size="38.0" fill="#A7D3A9" transform="matrix(1.00, 0.00, -0.00, -1.00, 441.4, 370.4)"> </text><text xml:space="preserve" font-family="Aller,Aller" font-size="38.0" fill="#A7D3A9" transform="matrix(1.00, 0.00, -0.00, -1.00, 450.4, 370.4)">a</text><text xml:space="preserve" font-family="Aller,Aller" font-size="38.0" fill="#A7D3A9" transform="matrix(1.00, 0.00, -0.00, -1.00, 470.0, 370.4)">g</text><text xml:space="preserve" font-family="Aller,Aller" font-size="38.0" fill="#A7D3A9" transform="matrix(1.00, 0.00, -0.00, -1.00, 491.0, 370.4)">r</text><text xml:space="preserve" font-family="Aller,Aller" font-size="38.0" fill="#A7D3A9" transform="matrix(1.00, 0.00, -0.00, -1.00, 504.6, 370.4)">e</text><text xml:space="preserve" font-family="Aller,Aller" font-size="38.0" fill="#A7D3A9" transform="matrix(1.00, 0.00, -0.00, -1.00, 525.7, 370.4)">e</text><text xml:space="preserve" font-family="Aller,Aller" font-size="38.0" fill="#A7D3A9" transform="matrix(1.00, 0.00, -0.00, -1.00, 546.9, 370.4)">m</text><text xml:space="preserve" font-family="Aller,Aller" font-size="38.0" fill="#A7D3A9" transform="matrix(1.00, 0.00, -0.00, -1.00, 579.3, 370.4)">e</text><text xml:space="preserve" font-family="Aller,Aller" font-size="38.0" fill="#A7D3A9" transform="matrix(1.00, 0.00, -0.00, -1.00, 600.4, 370.4)">n</text><text xml:space="preserve" font-family="Aller,Aller" font-size="38.0" fill="#A7D3A9" transform="matrix(1.00, 0.00, -0.00, -1.00, 622.4, 370.4)">t</text><text xml:space="preserve" font-family="Aller,Aller" font-size="38.0" fill="#FEFFFF" transform="matrix(1.00, 0.00, -0.00, -1.00, 636.0, 370.4)"> </text><text xml:space="preserve" font-family="Aller,Aller" font-size="38.0" fill="#FEFFFF" transform="matrix(1.00, 0.00, -0.00, -1.00, 645.0, 370.4)">w</text><text xml:space="preserve" font-family="Aller,Aller" font-size="38.0" fill="#FEFFFF" transform="matrix(1.00, 0.00, -0.00, -1.00, 674.5, 370.4)">i</text><text xml:space="preserve" font-family="Aller,Aller" font-size="38.0" fill="#FEFFFF" transform="matrix(1.00, 0.00, -0.00, -1.00, 685.4, 370.4)">t</text><text xml:space="preserve" font-family="Aller,Aller" font-size="38.0" fill="#FEFFFF" transform="matrix(1.00, 0.00, -0.00, -1.00, 699.0, 370.4)">h</text><text xml:space="preserve" font-family="Aller,Aller" font-size="38.0" fill="#FEFFFF" transform="matrix(1.00, 0.00, -0.00, -1.00, 721.0, 370.4)"> </text><text xml:space="preserve" font-family="Aller,Aller" font-size="38.0" fill="#FEFFFF" transform="matrix(1.00, 0.00, -0.00, -1.00, 730.0, 370.4)">O</text><text xml:space="preserve" font-family="Aller,Aller" font-size="38.0" fill="#FEFFFF" transform="matrix(1.00, 0.00, -0.00, -1.00, 757.7, 370.4)">h</text><text xml:space="preserve" font-family="Aller,Aller" font-size="38.0" fill="#FEFFFF" transform="matrix(1.00, 0.00, -0.00, -1.00, 779.6, 370.4)">i</text><text xml:space="preserve" font-family="Aller,Aller" font-size="38.0" fill="#FEFFFF" transform="matrix(1.00, 0.00, -0.00, -1.00, 790.6, 370.4)">o</text><text xml:space="preserve" font-family="Aller,Aller" font-size="38.0" fill="#FEFFFF" transform="matrix(1.00, 0.00, -0.00, -1.00, 812.5, 370.4)"> </text><text xml:space="preserve" font-family="Aller,Aller" font-size="38.0" fill="#FEFFFF" transform="matrix(1.00, 0.00, -0.00, -1.00, 821.5, 370.4)">&amp;</text><text xml:space="preserve" font-family="Aller,Aller" font-size="38.0" fill="#FEFFFF" transform="matrix(1.00, 0.00, -0.00, -1.00, 850.4, 370.4)"> </text><text xml:space="preserve" font-family="Aller,Aller" font-size="38.0" fill="#FEFFFF" transform="matrix(1.00, 0.00, -0.00, -1.00, 114.0, 324.4)">I</text><text xml:space="preserve" font-family="Aller,Aller" font-size="38.0" fill="#FEFFFF" transform="matrix(1.00, 0.00, -0.00, -1.00, 124.6, 324.4)">n</text><text xml:space="preserve" font-family="Aller,Aller" font-size="38.0" fill="#FEFFFF" transform="matrix(1.00, 0.00, -0.00, -1.00, 146.5, 324.4)">d</text><text xml:space="preserve" font-family="Aller,Aller" font-size="38.0" fill="#FEFFFF" transform="matrix(1.00, 0.00, -0.00, -1.00, 168.8, 324.4)">i</text><text xml:space="preserve" font-family="Aller,Aller" font-size="38.0" fill="#FEFFFF" transform="matrix(1.00, 0.00, -0.00, -1.00, 179.7, 324.4)">a</text><text xml:space="preserve" font-family="Aller,Aller" font-size="38.0" fill="#FEFFFF" transform="matrix(1.00, 0.00, -0.00, -1.00, 199.4, 324.4)">n</text><text xml:space="preserve" font-family="Aller,Aller" font-size="38.0" fill="#FEFFFF" transform="matrix(1.00, 0.00, -0.00, -1.00, 221.3, 324.4)">a</text><text xml:space="preserve" font-family="Aller,Aller" font-size="38.0" fill="#FEFFFF" transform="matrix(1.00, 0.00, -0.00, -1.00, 241.0, 324.4)"> </text><text xml:space="preserve" font-family="Aller,Aller" font-size="38.0" fill="#FEFFFF" transform="matrix(1.00, 0.00, -0.00, -1.00, 250.0, 324.4)">U</text><text xml:space="preserve" font-family="Aller,Aller" font-size="38.0" fill="#FEFFFF" transform="matrix(1.00, 0.00, -0.00, -1.00, 275.6, 324.4)">A</text><text xml:space="preserve" font-family="Aller,Aller" font-size="38.0" fill="#FEFFFF" transform="matrix(1.00, 0.00, -0.00, -1.00, 299.1, 324.4)">S</text><text xml:space="preserve" font-family="Aller,Aller" font-size="38.0" fill="#FEFFFF" transform="matrix(1.00, 0.00, -0.00, -1.00, 319.8, 324.4)"> </text><text xml:space="preserve" font-family="Aller,Aller" font-size="38.0" fill="#FEFFFF" transform="matrix(1.00, 0.00, -0.00, -1.00, 328.8, 324.4)">C</text><text xml:space="preserve" font-family="Aller,Aller" font-size="38.0" fill="#FEFFFF" transform="matrix(1.00, 0.00, -0.00, -1.00, 351.7, 324.4)">e</text><text xml:space="preserve" font-family="Aller,Aller" font-size="38.0" fill="#FEFFFF" transform="matrix(1.00, 0.00, -0.00, -1.00, 372.8, 324.4)">n</text><text xml:space="preserve" font-family="Aller,Aller" font-size="38.0" fill="#FEFFFF" transform="matrix(1.00, 0.00, -0.00, -1.00, 394.8, 324.4)">t</text><text xml:space="preserve" font-family="Aller,Aller" font-size="38.0" fill="#FEFFFF" transform="matrix(1.00, 0.00, -0.00, -1.00, 408.4, 324.4)">e</text><text xml:space="preserve" font-family="Aller,Aller" font-size="38.0" fill="#FEFFFF" transform="matrix(1.00, 0.00, -0.00, -1.00, 429.5, 324.4)">r</text><text xml:space="preserve" font-family="Aller,Aller" font-size="38.0" fill="#FEFFFF" transform="matrix(1.00, 0.00, -0.00, -1.00, 443.7, 324.4)"> </text><text xml:space="preserve" font-family="Aller,Aller" font-size="28.5" fill="#FEFFFF" transform="matrix(1.00, 0.00, -0.00, -1.00, 79.0, 239.5)">•</text><text xml:space="preserve" font-family="Aller,Aller" font-size="38.0" fill="#FEFFFF" transform="matrix(1.00, 0.00, -0.00, -1.00, 114.0, 236.4)">D</text><text xml:space="preserve" font-family="Aller,Aller" font-size="38.0" fill="#FEFFFF" transform="matrix(1.00, 0.00, -0.00, -1.00, 140.6, 236.4)">e</text><text xml:space="preserve" font-family="Aller,Aller" font-size="38.0" fill="#FEFFFF" transform="matrix(1.00, 0.00, -0.00, -1.00, 161.7, 236.4)">c</text><text xml:space="preserve" font-family="Aller,Aller" font-size="38.0" fill="#FEFFFF" transform="matrix(1.00, 0.00, -0.00, -1.00, 179.3, 236.4)">e</text><text xml:space="preserve" font-family="Aller,Aller" font-size="38.0" fill="#FEFFFF" transform="matrix(1.00, 0.00, -0.00, -1.00, 200.4, 236.4)">m</text><text xml:space="preserve" font-family="Aller,Aller" font-size="38.0" fill="#FEFFFF" transform="matrix(1.00, 0.00, -0.00, -1.00, 232.9, 236.4)">b</text><text xml:space="preserve" font-family="Aller,Aller" font-size="38.0" fill="#FEFFFF" transform="matrix(1.00, 0.00, -0.00, -1.00, 255.3, 236.4)">e</text><text xml:space="preserve" font-family="Aller,Aller" font-size="38.0" fill="#FEFFFF" transform="matrix(1.00, 0.00, -0.00, -1.00, 276.4, 236.4)">r</text><text xml:space="preserve" font-family="Aller,Aller" font-size="38.0" fill="#FEFFFF" transform="matrix(1.00, 0.00, -0.00, -1.00, 290.5, 236.4)"> </text><text xml:space="preserve" font-family="Aller,Aller" font-size="38.0" fill="#FEFFFF" transform="matrix(1.00, 0.00, -0.00, -1.00, 299.6, 236.4)">2</text><text xml:space="preserve" font-family="Aller,Aller" font-size="38.0" fill="#FEFFFF" transform="matrix(1.00, 0.00, -0.00, -1.00, 322.4, 236.4)">0</text><text xml:space="preserve" font-family="Aller,Aller" font-size="38.0" fill="#FEFFFF" transform="matrix(1.00, 0.00, -0.00, -1.00, 345.2, 236.4)">1</text><text xml:space="preserve" font-family="Aller,Aller" font-size="38.0" fill="#FEFFFF" transform="matrix(1.00, 0.00, -0.00, -1.00, 368.0, 236.4)">4</text><text xml:space="preserve" font-family="Aller,Aller" font-size="38.0" fill="#FEFFFF" transform="matrix(1.00, 0.00, -0.00, -1.00, 390.8, 236.4)"> </text><text xml:space="preserve" font-family="Aller,Aller" font-size="38.0" fill="#FEFFFF" transform="matrix(1.00, 0.00, -0.00, -1.00, 399.8, 236.4)">—</text><text xml:space="preserve" font-family="Aller,Aller" font-size="38.0" fill="#FEFFFF" transform="matrix(1.00, 0.00, -0.00, -1.00, 437.8, 236.4)"> </text><text xml:space="preserve" font-family="Aller,Aller" font-size="38.0" fill="#A7D3A9" transform="matrix(1.00, 0.00, -0.00, -1.00, 446.8, 236.4)">F</text><text xml:space="preserve" font-family="Aller,Aller" font-size="38.0" fill="#A7D3A9" transform="matrix(1.00, 0.00, -0.00, -1.00, 465.9, 236.4)">i</text><text xml:space="preserve" font-family="Aller,Aller" font-size="38.0" fill="#A7D3A9" transform="matrix(1.00, 0.00, -0.00, -1.00, 476.9, 236.4)">r</text><text xml:space="preserve" font-family="Aller,Aller" font-size="38.0" fill="#A7D3A9" transform="matrix(1.00, 0.00, -0.00, -1.00, 490.6, 236.4)">s</text><text xml:space="preserve" font-family="Aller,Aller" font-size="38.0" fill="#A7D3A9" transform="matrix(1.00, 0.00, -0.00, -1.00, 507.9, 236.4)">t</text><text xml:space="preserve" font-family="Aller,Aller" font-size="38.0" fill="#A7D3A9" transform="matrix(1.00, 0.00, -0.00, -1.00, 521.5, 236.4)"> </text><text xml:space="preserve" font-family="Aller,Aller" font-size="38.0" fill="#A7D3A9" transform="matrix(1.00, 0.00, -0.00, -1.00, 530.5, 236.4)">C</text><text xml:space="preserve" font-family="Aller,Aller" font-size="38.0" fill="#A7D3A9" transform="matrix(1.00, 0.00, -0.00, -1.00, 553.1, 236.4)">O</text><text xml:space="preserve" font-family="Aller,Aller" font-size="38.0" fill="#A7D3A9" transform="matrix(1.00, 0.00, -0.00, -1.00, 579.8, 236.4)">A</text><text xml:space="preserve" font-family="Aller,Aller" font-size="38.0" fill="#A7D3A9" transform="matrix(1.00, 0.00, -0.00, -1.00, 603.2, 236.4)">s</text><text xml:space="preserve" font-family="Aller,Aller" font-size="38.0" fill="#FEFFFF" transform="matrix(1.00, 0.00, -0.00, -1.00, 620.5, 236.4)"> </text><text xml:space="preserve" font-family="Aller,Aller" font-size="38.0" fill="#FEFFFF" transform="matrix(1.00, 0.00, -0.00, -1.00, 629.5, 236.4)">a</text><text xml:space="preserve" font-family="Aller,Aller" font-size="38.0" fill="#FEFFFF" transform="matrix(1.00, 0.00, -0.00, -1.00, 649.2, 236.4)">p</text><text xml:space="preserve" font-family="Aller,Aller" font-size="38.0" fill="#FEFFFF" transform="matrix(1.00, 0.00, -0.00, -1.00, 671.6, 236.4)">p</text><text xml:space="preserve" font-family="Aller,Aller" font-size="38.0" fill="#FEFFFF" transform="matrix(1.00, 0.00, -0.00, -1.00, 694.0, 236.4)">r</text><text xml:space="preserve" font-family="Aller,Aller" font-size="38.0" fill="#FEFFFF" transform="matrix(1.00, 0.00, -0.00, -1.00, 707.6, 236.4)">o</text><text xml:space="preserve" font-family="Aller,Aller" font-size="38.0" fill="#FEFFFF" transform="matrix(1.00, 0.00, -0.00, -1.00, 728.8, 236.4)">v</text><text xml:space="preserve" font-family="Aller,Aller" font-size="38.0" fill="#FEFFFF" transform="matrix(1.00, 0.00, -0.00, -1.00, 748.2, 236.4)">e</text><text xml:space="preserve" font-family="Aller,Aller" font-size="38.0" fill="#FEFFFF" transform="matrix(1.00, 0.00, -0.00, -1.00, 769.3, 236.4)">d</text><text xml:space="preserve" font-family="Aller,Aller" font-size="38.0" fill="#FEFFFF" transform="matrix(1.00, 0.00, -0.00, -1.00, 791.6, 236.4)"> </text><text xml:space="preserve" font-family="Aller,Aller" font-size="28.5" fill="#FEFFFF" transform="matrix(1.00, 0.00, -0.00, -1.00, 79.0, 151.5)">•</text><text xml:space="preserve" font-family="Aller,Aller" font-size="38.0" fill="#FEFFFF" transform="matrix(1.00, 0.00, -0.00, -1.00, 114.0, 148.4)">J</text><text xml:space="preserve" font-family="Aller,Aller" font-size="38.0" fill="#FEFFFF" transform="matrix(1.00, 0.00, -0.00, -1.00, 129.0, 148.4)">u</text><text xml:space="preserve" font-family="Aller,Aller" font-size="38.0" fill="#FEFFFF" transform="matrix(1.00, 0.00, -0.00, -1.00, 150.9, 148.4)">l</text><text xml:space="preserve" font-family="Aller,Aller" font-size="38.0" fill="#FEFFFF" transform="matrix(1.00, 0.00, -0.00, -1.00, 162.2, 148.4)">y</text><text xml:space="preserve" font-family="Aller,Aller" font-size="38.0" fill="#FEFFFF" transform="matrix(1.00, 0.00, -0.00, -1.00, 182.3, 148.4)"> </text><text xml:space="preserve" font-family="Aller,Aller" font-size="38.0" fill="#FEFFFF" transform="matrix(1.00, 0.00, -0.00, -1.00, 191.3, 148.4)">2</text><text xml:space="preserve" font-family="Aller,Aller" font-size="38.0" fill="#FEFFFF" transform="matrix(1.00, 0.00, -0.00, -1.00, 214.1, 148.4)">0</text><text xml:space="preserve" font-family="Aller,Aller" font-size="38.0" fill="#FEFFFF" transform="matrix(1.00, 0.00, -0.00, -1.00, 236.9, 148.4)">1</text><text xml:space="preserve" font-family="Aller,Aller" font-size="38.0" fill="#FEFFFF" transform="matrix(1.00, 0.00, -0.00, -1.00, 259.7, 148.4)">5</text><text xml:space="preserve" font-family="Aller,Aller" font-size="38.0" fill="#FEFFFF" transform="matrix(1.00, 0.00, -0.00, -1.00, 282.5, 148.4)"> </text><text xml:space="preserve" font-family="Aller,Aller" font-size="38.0" fill="#FEFFFF" transform="matrix(1.00, 0.00, -0.00, -1.00, 291.5, 148.4)">—</text><text xml:space="preserve" font-family="Aller,Aller" font-size="38.0" fill="#FEFFFF" transform="matrix(1.00, 0.00, -0.00, -1.00, 329.5, 148.4)"> </text><text xml:space="preserve" font-family="Aller,Aller" font-size="38.0" fill="#A7D3A9" transform="matrix(1.00, 0.00, -0.00, -1.00, 338.5, 148.4)">F</text><text xml:space="preserve" font-family="Aller,Aller" font-size="38.0" fill="#A7D3A9" transform="matrix(1.00, 0.00, -0.00, -1.00, 357.7, 148.4)">i</text><text xml:space="preserve" font-family="Aller,Aller" font-size="38.0" fill="#A7D3A9" transform="matrix(1.00, 0.00, -0.00, -1.00, 368.6, 148.4)">r</text><text xml:space="preserve" font-family="Aller,Aller" font-size="38.0" fill="#A7D3A9" transform="matrix(1.00, 0.00, -0.00, -1.00, 382.3, 148.4)">s</text><text xml:space="preserve" font-family="Aller,Aller" font-size="38.0" fill="#A7D3A9" transform="matrix(1.00, 0.00, -0.00, -1.00, 399.6, 148.4)">t</text><text xml:space="preserve" font-family="Aller,Aller" font-size="38.0" fill="#A7D3A9" transform="matrix(1.00, 0.00, -0.00, -1.00, 413.2, 148.4)"> </text><text xml:space="preserve" font-family="Aller,Aller" font-size="38.0" fill="#A7D3A9" transform="matrix(1.00, 0.00, -0.00, -1.00, 422.2, 148.4)">d</text><text xml:space="preserve" font-family="Aller,Aller" font-size="38.0" fill="#A7D3A9" transform="matrix(1.00, 0.00, -0.00, -1.00, 444.5, 148.4)">r</text><text xml:space="preserve" font-family="Aller,Aller" font-size="38.0" fill="#A7D3A9" transform="matrix(1.00, 0.00, -0.00, -1.00, 458.1, 148.4)">o</text><text xml:space="preserve" font-family="Aller,Aller" font-size="38.0" fill="#A7D3A9" transform="matrix(1.00, 0.00, -0.00, -1.00, 480.0, 148.4)">n</text><text xml:space="preserve" font-family="Aller,Aller" font-size="38.0" fill="#A7D3A9" transform="matrix(1.00, 0.00, -0.00, -1.00, 501.9, 148.4)">e</text><text xml:space="preserve" font-family="Aller,Aller" font-size="38.0" fill="#A7D3A9" transform="matrix(1.00, 0.00, -0.00, -1.00, 523.1, 148.4)"> </text><text xml:space="preserve" font-family="Aller,Aller" font-size="38.0" fill="#A7D3A9" transform="matrix(1.00, 0.00, -0.00, -1.00, 532.1, 148.4)">ﬂ</text><text xml:space="preserve" font-family="Aller,Aller" font-size="38.0" fill="#A7D3A9" transform="matrix(1.00, 0.00, -0.00, -1.00, 556.1, 148.4)">i</text><text xml:space="preserve" font-family="Aller,Aller" font-size="38.0" fill="#A7D3A9" transform="matrix(1.00, 0.00, -0.00, -1.00, 567.1, 148.4)">g</text><text xml:space="preserve" font-family="Aller,Aller" font-size="38.0" fill="#A7D3A9" transform="matrix(1.00, 0.00, -0.00, -1.00, 588.1, 148.4)">h</text><text xml:space="preserve" font-family="Aller,Aller" font-size="38.0" fill="#A7D3A9" transform="matrix(1.00, 0.00, -0.00, -1.00, 610.1, 148.4)">t</text><text xml:space="preserve" font-family="Aller,Aller" font-size="38.0" fill="#A7D3A9" transform="matrix(1.00, 0.00, -0.00, -1.00, 623.7, 148.4)">s</text><g><clipPath id="clip0x6080012b3a40"><path d="M 884.0 759.5 L 1013.8 759.5 L 1013.8 593.0 L 884.0 593.0 Z M 884.0 759.5 "></path></clipPath><g clip-path="url(#clip0x6080012b3a40)"><g><clipPath id="clip0x6080010ac660"><path d="M 884.0 593.0 L 1014.0 593.0 L 1014.0 760.0 L 884.0 760.0 Z M 884.0 593.0 "></path></clipPath><g clip-path="url(#clip0x6080010ac660)"><path d="M 884.0 598.6 L 939.8 598.6 L 939.8 593.0 L 884.0 593.0 Z M 884.0 598.6 " fill="#FFFEFE"></path></g></g></g></g><g><clipPath id="clip0x6080010bf500"><path d="M 884.0 593.0 L 1014.0 593.0 L 1014.0 760.0 L 884.0 760.0 Z M 884.0 593.0 "></path></clipPath><g clip-path="url(#clip0x6080010bf500)"><path d="M 949.2 737.0 C 952.1 736.9 954.6 739.2 954.7 742.1 C 954.8 745.1 952.5 747.5 949.5 747.6 C 946.6 747.7 944.1 745.4 944.0 742.4 C 944.0 739.5 946.3 737.1 949.2 737.0 " fill="#FFFEFE"></path><path d="M 939.3 738.6 C 940.2 738.6 943.3 738.1 945.4 736.6 C 947.4 735.0 949.7 731.7 949.7 731.3 C 949.8 731.7 952.1 735.0 953.0 735.7 C 954.5 737.0 956.2 738.3 960.3 738.7 L 960.3 733.1 C 959.5 733.1 957.9 732.6 956.5 731.5 C 955.1 730.3 953.6 728.0 953.1 726.4 C 952.6 724.8 952.5 723.4 952.5 722.5 L 952.6 711.6 L 947.0 711.6 L 947.2 722.4 C 947.1 723.4 946.9 725.5 946.4 726.6 C 945.9 727.6 944.7 730.4 942.5 731.8 C 941.9 732.2 940.9 733.1 939.3 733.1 L 939.3 738.6 " fill="#FFFEFE"></path><path d="M 949.7 752.9 C 949.8 752.8 954.6 749.6 958.5 745.7 C 959.8 744.4 963.1 740.4 963.1 735.5 C 963.1 731.0 960.6 727.9 960.3 727.5 C 959.4 726.5 956.0 723.8 954.0 723.5 L 954.0 717.8 C 956.4 718.3 960.6 719.9 962.9 722.2 C 965.3 724.6 967.3 727.5 968.1 731.1 C 969.1 735.2 968.4 740.0 967.1 742.7 C 965.4 746.3 962.5 749.8 958.8 752.8 L 949.7 759.5 L 940.6 752.7 C 936.9 749.7 934.0 746.3 932.3 742.6 C 931.0 739.9 930.3 735.1 931.4 731.0 C 932.3 727.4 934.2 724.5 936.6 722.2 C 939.0 719.8 943.1 718.2 945.6 717.8 L 945.5 723.5 C 943.6 723.7 940.1 726.4 939.2 727.5 C 938.9 727.8 936.4 731.0 936.4 735.4 C 936.4 740.4 939.7 744.4 940.9 745.6 C 944.8 749.6 949.6 752.8 949.7 752.9 " fill="#FFFEFE"></path><path d="M 923.7 706.8 C 923.6 707.7 923.0 708.3 922.0 708.3 C 920.9 708.3 920.3 707.4 920.3 705.5 C 920.3 704.2 920.6 703.0 922.1 703.0 C 923.1 703.0 923.6 703.7 923.7 704.6 L 926.6 704.6 C 926.3 702.1 924.6 700.6 922.2 700.6 C 919.1 700.6 917.2 702.6 917.2 705.6 C 917.2 708.7 919.3 710.6 921.9 710.6 C 924.7 710.6 926.3 709.2 926.6 706.8 L 923.7 706.8 " fill="#FFFEFE"></path><path d="M 927.3 710.4 L 930.0 710.4 L 930.0 700.9 L 927.3 700.9 Z M 927.3 710.4 " fill="#FFFEFE"></path><path d="M 933.5 703.7 C 933.5 702.9 934.1 702.4 934.8 702.4 C 935.2 702.4 935.6 702.6 935.8 703.0 L 938.4 703.0 C 937.9 701.3 936.2 700.7 934.6 700.7 C 932.5 700.7 930.8 701.9 930.8 704.3 C 930.8 706.5 932.5 708.0 934.6 708.0 C 937.1 708.0 938.7 706.2 938.6 703.7 L 933.5 703.7 Z M 935.9 705.1 C 935.9 705.7 935.4 706.3 934.7 706.3 C 933.9 706.3 933.5 705.9 933.5 705.1 L 935.9 705.1 " fill="#FFFEFE"></path><path d="M 938.6 707.8 L 941.3 707.8 L 942.5 703.4 L 943.6 707.8 L 946.2 707.8 L 943.9 700.9 L 940.9 700.9 L 938.6 707.8 " fill="#FFFEFE"></path><path d="M 948.6 703.7 C 948.6 702.9 949.2 702.4 949.9 702.4 C 950.4 702.4 950.8 702.6 951.0 703.0 L 953.5 703.0 C 953.1 701.3 951.4 700.7 949.8 700.7 C 947.6 700.7 945.9 701.9 945.9 704.3 C 945.9 706.5 947.6 708.0 949.8 708.0 C 952.3 708.0 953.8 706.2 953.7 703.7 L 948.6 703.7 Z M 951.1 705.1 C 951.1 705.7 950.5 706.3 949.9 706.3 C 949.1 706.3 948.6 705.9 948.6 705.1 L 951.1 705.1 " fill="#FFFEFE"></path><path d="M 954.4 710.4 L 957.0 710.4 L 957.0 700.9 L 954.4 700.9 Z M 954.4 710.4 " fill="#FFFEFE"></path><path d="M 962.8 700.9 L 962.7 701.6 C 961.9 700.9 961.2 700.7 960.1 700.7 C 958.9 700.7 957.7 701.3 957.7 702.8 C 957.7 705.9 962.6 704.5 962.6 705.8 C 962.6 706.3 962.0 706.3 961.7 706.3 C 961.3 706.3 960.8 706.3 960.7 705.7 L 958.1 705.7 C 958.1 707.1 959.2 708.0 961.8 708.0 C 965.1 708.0 965.2 706.8 965.2 705.1 L 965.2 701.9 C 965.2 701.5 965.3 701.3 965.6 701.0 L 965.6 700.9 L 962.8 700.9 Z M 962.6 703.9 C 961.7 703.5 960.5 703.7 960.5 702.8 C 960.5 702.5 960.8 702.2 961.4 702.2 C 962.3 702.2 962.6 703.0 962.6 703.9 " fill="#FFFEFE"></path><path d="M 966.3 707.8 L 968.8 707.8 L 968.8 706.7 C 969.4 707.5 970.0 708.0 971.0 708.0 C 972.8 708.0 973.7 706.9 973.7 705.0 L 973.7 700.9 L 971.0 700.9 L 971.0 704.5 C 971.0 705.2 970.8 705.8 970.0 705.8 C 969.2 705.8 969.0 705.3 969.0 704.4 L 969.0 700.9 L 966.3 700.9 L 966.3 707.8 " fill="#FFFEFE"></path><path d="M 979.4 700.9 L 979.4 701.8 C 978.8 701.0 978.2 700.7 977.4 700.7 C 975.3 700.7 974.3 702.3 974.3 704.2 C 974.3 706.5 975.5 708.0 977.2 708.0 C 978.0 708.0 978.6 707.8 979.2 707.1 L 979.2 710.4 L 981.9 710.4 L 981.9 700.9 L 979.4 700.9 Z M 979.3 704.3 C 979.3 705.0 979.0 705.9 978.1 705.9 C 977.2 705.9 977.0 705.0 977.0 704.2 C 977.0 703.5 977.2 702.7 978.0 702.7 C 979.0 702.7 979.3 703.5 979.3 704.3 " fill="#FFFEFE"></path><path d="M 912.5 689.2 L 912.5 698.7 L 916.1 698.7 L 917.8 692.7 L 919.4 698.7 L 923.1 698.7 L 923.1 689.2 L 920.4 689.2 L 920.4 692.1 L 920.4 693.6 L 920.6 695.3 L 920.5 695.3 L 918.9 689.2 L 916.7 689.2 L 915.0 695.3 L 915.0 695.3 L 915.1 693.9 L 915.2 692.4 L 915.2 689.2 L 912.5 689.2 " fill="#FFFEFE"></path><path d="M 926.4 692.0 C 926.4 691.2 927.0 690.7 927.7 690.7 C 928.2 690.7 928.5 690.8 928.7 691.3 L 931.3 691.3 C 930.9 689.5 929.1 689.0 927.6 689.0 C 925.4 689.0 923.7 690.2 923.7 692.6 C 923.7 694.8 925.4 696.3 927.6 696.3 C 930.1 696.3 931.6 694.5 931.5 692.0 L 926.4 692.0 Z M 928.8 693.4 C 928.8 694.0 928.3 694.6 927.7 694.6 C 926.9 694.6 926.4 694.1 926.4 693.4 L 928.8 693.4 " fill="#FFFEFE"></path><path d="M 936.6 689.2 C 933.0 689.0 932.6 689.2 932.6 691.6 L 932.6 694.5 L 931.7 694.5 L 931.7 696.1 L 932.7 696.1 L 932.7 698.2 L 935.3 698.2 L 935.3 696.1 L 936.6 696.1 L 936.6 694.5 L 935.3 694.5 L 935.3 692.0 C 935.3 691.4 935.4 691.1 936.2 691.1 L 936.6 691.1 L 936.6 689.2 " fill="#FFFEFE"></path><path d="M 937.3 696.1 L 939.8 696.1 L 939.8 694.7 L 939.8 694.7 C 940.2 695.8 940.8 696.3 941.9 696.3 C 942.0 696.3 942.1 696.3 942.2 696.2 L 942.2 693.5 C 942.0 693.5 941.8 693.6 941.7 693.6 C 940.6 693.6 940.0 693.1 940.0 691.6 L 940.0 689.2 L 937.3 689.2 L 937.3 696.1 " fill="#FFFEFE"></path><path d="M 946.1 696.3 C 948.5 696.3 950.0 694.8 950.0 692.7 C 950.0 690.2 948.3 689.0 946.1 689.0 C 943.9 689.0 942.2 690.2 942.2 692.6 C 942.2 695.0 943.8 696.3 946.1 696.3 M 944.9 692.7 C 944.9 691.4 945.4 690.8 946.1 690.8 C 946.8 690.8 947.3 691.4 947.3 692.7 C 947.3 693.7 946.8 694.5 946.1 694.4 C 945.2 694.4 944.9 693.5 944.9 692.7 " fill="#FFFEFE"></path><path d="M 952.9 696.1 L 952.9 695.1 L 953.0 695.1 C 953.3 695.9 954.3 696.3 955.1 696.3 C 957.1 696.3 958.1 694.6 958.1 692.7 C 958.1 690.0 956.5 689.0 955.0 689.0 C 954.2 689.0 953.7 689.3 953.2 689.9 L 953.2 686.8 L 950.5 686.8 L 950.5 696.1 L 952.9 696.1 Z M 955.4 692.6 C 955.4 693.7 955.0 694.3 954.3 694.3 C 953.6 694.3 953.2 693.6 953.2 692.7 C 953.2 691.7 953.6 691.1 954.3 691.1 C 955.0 691.1 955.4 691.7 955.4 692.6 " fill="#FFFEFE"></path><path d="M 963.6 689.2 L 963.4 689.9 C 962.7 689.2 961.9 689.0 960.9 689.0 C 959.6 689.0 958.5 689.6 958.5 691.1 C 958.5 694.2 963.3 692.8 963.3 694.1 C 963.3 694.6 962.7 694.6 962.4 694.6 C 962.0 694.6 961.5 694.6 961.5 694.0 L 958.9 694.0 C 958.9 695.4 959.9 696.3 962.6 696.3 C 965.8 696.3 966.0 695.1 966.0 693.4 L 966.0 690.2 C 966.0 689.8 966.0 689.6 966.3 689.3 L 966.3 689.2 L 963.6 689.2 Z M 963.3 692.2 C 962.4 691.8 961.2 692.0 961.2 691.1 C 961.2 690.8 961.6 690.5 962.1 690.5 C 963.0 690.5 963.3 691.3 963.3 692.2 " fill="#FFFEFE"></path><path d="M 967.1 696.1 L 969.6 696.1 L 969.6 694.7 L 969.6 694.7 C 970.0 695.8 970.6 696.3 971.7 696.3 C 971.8 696.3 971.9 696.3 972.0 696.2 L 972.0 693.5 C 971.8 693.5 971.6 693.6 971.5 693.6 C 970.4 693.6 969.8 693.1 969.8 691.6 L 969.8 689.2 L 967.1 689.2 L 967.1 696.1 " fill="#FFFEFE"></path><path d="M 975.2 691.1 L 975.2 689.2 L 972.5 689.2 L 972.5 698.7 L 975.2 698.7 L 975.2 694.0 L 976.9 696.1 L 980.1 696.1 L 977.6 693.4 L 980.4 689.2 L 977.2 689.2 L 975.7 691.6 L 975.2 691.1 " fill="#FFFEFE"></path></g></g><g><clipPath id="clip0x6080012a7680"><path d="M 884.0 759.5 L 1013.8 759.5 L 1013.8 593.0 L 884.0 593.0 Z M 884.0 759.5 "></path></clipPath><g clip-path="url(#clip0x6080012a7680)"><g><clipPath id="clip0x6080012a7bc0"><path d="M 884.0 593.0 L 1014.0 593.0 L 1014.0 760.0 L 884.0 760.0 Z M 884.0 593.0 "></path></clipPath><g clip-path="url(#clip0x6080012a7bc0)"><path d="M 982.8 691.3 C 982.8 691.0 982.9 690.8 983.1 690.7 C 983.3 690.6 983.5 690.5 983.8 690.5 C 984.2 690.5 984.6 690.6 984.6 691.1 C 984.6 692.2 980.5 691.3 980.5 694.0 C 980.5 695.8 982.3 696.3 983.7 696.3 C 985.2 696.3 986.9 695.9 987.0 694.1 L 984.6 694.1 C 984.6 694.3 984.5 694.5 984.3 694.6 C 984.2 694.7 984.0 694.8 983.8 694.8 C 983.3 694.8 983.0 694.6 983.0 694.3 C 983.0 693.3 987.3 694.0 987.3 691.4 C 987.3 690.0 986.2 689.0 983.7 689.0 C 982.1 689.0 980.4 689.5 980.3 691.3 L 982.8 691.3 " fill="#FFFEFE"></path><path d="M 963.6 614.7 L 963.6 625.4 C 963.6 629.6 961.6 631.6 957.6 631.6 L 948.6 631.6 L 948.6 593.0 L 953.6 593.0 L 953.6 608.6 L 957.7 608.6 C 961.6 608.6 963.6 610.6 963.6 614.7 M 958.7 615.1 C 958.7 613.7 958.0 613.0 956.7 613.0 L 953.6 613.0 L 953.6 627.3 L 956.5 627.3 C 957.9 627.3 958.7 626.6 958.7 625.1 L 958.7 615.1 " fill="#FFFFFF"></path><path d="M 977.8 597.4 L 971.0 597.4 L 971.0 631.7 L 966.1 631.7 L 966.1 593.0 L 977.8 593.0 L 977.8 597.4 " fill="#FFFFFF"></path><path d="M 995.5 593.0 L 995.5 625.4 C 995.5 629.6 993.5 631.6 989.6 631.6 L 985.9 631.6 C 981.9 631.6 979.9 629.6 979.9 625.4 L 979.9 593.0 L 984.9 593.0 L 984.9 608.8 L 990.6 608.8 L 990.6 593.0 L 995.5 593.0 Z M 990.6 613.1 L 984.9 613.1 L 984.9 625.1 C 984.9 626.6 985.6 627.3 987.1 627.3 L 988.4 627.3 C 989.8 627.3 990.6 626.6 990.6 625.1 L 990.6 613.1 " fill="#FFFFFF"></path><path d="M 1007.8 608.8 L 1013.8 631.6 L 1008.9 631.6 L 1005.5 615.9 L 1005.4 615.9 L 1001.7 631.6 L 996.8 631.6 L 1002.9 608.8 L 1002.9 593.0 L 1007.8 593.0 L 1007.8 608.8 " fill="#FFFFFF"></path></g></g></g></g><g><clipPath id="clip0x6080012bd940"><path d="M 884.0 593.0 L 1014.0 593.0 L 1014.0 760.0 L 884.0 760.0 Z M 884.0 593.0 "></path></clipPath><g clip-path="url(#clip0x6080012bd940)"><path d="M 899.5 603.0 L 899.5 626.7 C 899.5 630.0 897.6 631.6 893.6 631.6 L 889.9 631.6 C 886.0 631.6 884.0 630.0 884.0 626.7 L 884.0 603.0 L 888.9 603.0 L 888.9 613.5 L 894.6 613.5 L 894.6 603.0 L 899.5 603.0 Z M 894.6 617.0 L 888.9 617.0 L 888.9 626.5 C 888.9 627.6 889.7 628.2 891.1 628.2 L 892.4 628.2 C 893.9 628.2 894.6 627.6 894.6 626.5 L 894.6 617.0 " fill="#FFFEFE"></path><path d="M 909.2 631.6 L 904.3 631.6 L 904.3 603.0 L 909.2 603.0 L 909.2 621.8 L 914.5 608.7 L 914.5 603.0 L 919.5 603.0 L 919.5 631.6 L 914.5 631.6 L 914.5 617.8 L 909.2 631.6 " fill="#FFFEFE"></path><path d="M 939.8 607.2 L 939.8 626.1 C 939.8 629.8 937.5 631.6 932.8 631.6 L 924.2 631.6 L 924.2 603.0 L 933.9 603.0 C 937.8 603.0 939.8 604.4 939.8 607.2 M 934.9 607.8 C 934.9 606.9 934.2 606.5 932.9 606.5 L 929.2 606.5 L 929.2 628.2 L 932.6 628.2 C 934.1 628.2 934.9 627.5 934.9 626.1 L 934.9 607.8 " fill="#FFFEFE"></path><path d="M 893.9 645.2 L 893.9 643.1 C 893.9 641.6 893.2 640.9 892.0 640.9 L 890.7 640.9 C 889.5 640.9 888.8 641.6 888.8 643.1 L 888.8 667.9 C 888.8 669.4 889.5 670.1 890.7 670.1 L 891.7 670.1 C 893.1 670.1 893.9 669.4 893.9 667.9 L 893.9 663.9 L 898.7 663.9 L 898.7 668.3 C 898.7 672.6 896.8 674.8 892.9 674.8 L 889.8 674.8 C 885.9 674.8 884.0 672.6 884.0 668.3 L 884.0 642.7 C 884.0 638.4 885.9 636.2 889.8 636.2 L 892.9 636.2 C 896.8 636.2 898.7 638.4 898.7 642.7 L 898.7 645.2 L 893.9 645.2 " fill="#FFFEFE"></path><path d="M 917.6 642.7 L 917.6 668.2 C 917.6 672.6 915.6 674.8 911.8 674.8 L 907.1 674.8 C 903.3 674.8 901.4 672.6 901.4 668.2 L 901.4 642.7 C 901.4 638.4 903.3 636.2 907.2 636.2 L 911.7 636.2 C 915.6 636.2 917.6 638.4 917.6 642.7 M 912.7 643.1 C 912.7 641.6 912.1 640.9 910.8 640.9 L 908.3 640.9 C 906.9 640.9 906.2 641.6 906.2 643.1 L 906.2 667.9 C 906.2 669.4 906.9 670.1 908.3 670.1 L 910.6 670.1 C 912.0 670.1 912.7 669.4 912.7 667.9 L 912.7 643.1 " fill="#FFFEFE"></path><path d="M 925.5 674.8 L 920.2 674.8 L 920.2 636.2 L 925.0 636.2 L 924.5 661.5 L 928.2 643.2 L 931.9 643.2 L 935.5 661.5 L 935.0 636.2 L 939.8 636.2 L 939.8 674.8 L 934.5 674.8 L 930.0 652.1 L 925.5 674.8 " fill="#FFFEFE"></path><path d="M 954.5 636.2 L 954.5 640.9 L 947.3 640.9 L 947.3 653.7 L 953.7 653.7 L 953.7 658.4 L 947.3 658.4 L 947.3 670.1 L 954.5 670.1 L 954.5 674.8 L 942.5 674.8 L 942.5 636.2 L 954.5 636.2 " fill="#FFFEFE"></path><path d="M 978.6 642.7 L 978.6 668.2 C 978.6 672.6 976.7 674.8 972.8 674.8 L 968.2 674.8 C 964.3 674.8 962.4 672.6 962.4 668.2 L 962.4 642.7 C 962.4 638.4 964.4 636.2 968.3 636.2 L 972.8 636.2 C 976.7 636.2 978.6 638.4 978.6 642.7 M 973.8 643.1 C 973.8 641.6 973.2 640.9 971.9 640.9 L 969.4 640.9 C 968.0 640.9 967.3 641.6 967.3 643.1 L 967.3 667.9 C 967.3 669.4 968.0 670.1 969.4 670.1 L 971.6 670.1 C 973.1 670.1 973.8 669.4 973.8 667.9 L 973.8 643.1 " fill="#FFFFFF"></path><path d="M 992.2 674.8 L 992.2 643.4 C 992.2 641.7 991.5 640.9 990.2 640.9 L 988.2 640.9 C 986.8 640.9 986.1 641.7 986.1 643.4 L 986.1 674.8 L 981.3 674.8 L 981.3 643.5 C 981.3 638.6 983.2 636.2 987.1 636.2 L 991.2 636.2 C 995.1 636.2 997.0 638.6 997.0 643.5 L 997.0 674.8 L 992.2 674.8 " fill="#FFFFFF"></path><path d="M 1013.8 670.1 L 1013.8 674.8 L 999.7 674.8 L 999.7 670.1 L 1004.3 670.1 L 1004.3 636.2 L 1009.1 636.2 L 1009.1 670.1 L 1013.8 670.1 " fill="#FFFFFF"></path><path d="M 884.0 685.0 L 1013.8 685.0 L 1013.8 679.3 L 884.0 679.3 Z M 884.0 685.0 " fill="#FFFEFE"></path></g></g></g></svg>