<?xml version="1.0" encoding="UTF-8" standalone="no"?><svg xmlns="http://www.w3.org/2000/svg" xmlns:xlink="http://www.w3.org/1999/xlink" clip-rule="evenodd" stroke-miterlimit="10" viewBox="0 0 498 41"><desc>SVG generated by Keynote</desc><defs></defs><g transform="matrix(1.00, 0.00, -0.00, -1.00, 0.0, 41.0)"><text xml:space="preserve" font-family="Aller,Aller" font-size="36.0" fill="#FEFFFF" transform="matrix(1.00, 0.00, -0.00, -1.00, -0.3, 11.4)">(</text><text xml:space="preserve" font-family="Aller,Aller" font-size="36.0" fill="#FEFFFF" transform="matrix(1.00, 0.00, -0.00, -1.00, 11.1, 11.4)">e</text><text xml:space="preserve" font-family="Aller,Aller" font-size="36.0" fill="#FEFFFF" transform="matrix(1.00, 0.00, -0.00, -1.00, 31.2, 11.4)">a</text><text xml:space="preserve" font-family="Aller,Aller" font-size="36.0" fill="#FEFFFF" transform="matrix(1.00, 0.00, -0.00, -1.00, 49.8, 11.4)">s</text><text xml:space="preserve" font-family="Aller,Aller" font-size="36.0" fill="#FEFFFF" transform="matrix(1.00, 0.00, -0.00, -1.00, 66.1, 11.4)">i</text><text xml:space="preserve" font-family="Aller,Aller" font-size="36.0" fill="#FEFFFF" transform="matrix(1.00, 0.00, -0.00, -1.00, 76.5, 11.4)">e</text><text xml:space="preserve" font-family="Aller,Aller" font-size="36.0" fill="#FEFFFF" transform="matrix(1.00, 0.00, -0.00, -1.00, 96.5, 11.4)">s</text><text xml:space="preserve" font-family="Aller,Aller" font-size="36.0" fill="#FEFFFF" transform="matrix(1.00, 0.00, -0.00, -1.00, 112.9, 11.4)">t</text><text xml:space="preserve" font-family="Aller,Aller" font-size="36.0" fill="#FEFFFF" transform="matrix(1.00, 0.00, -0.00, -1.00, 125.8, 11.4)"> </text><text xml:space="preserve" font-family="Aller,Aller" font-size="36.0" fill="#FEFFFF" transform="matrix(1.00, 0.00, -0.00, -1.00, 134.3, 11.4)">t</text><text xml:space="preserve" font-family="Aller,Aller" font-size="36.0" fill="#FEFFFF" transform="matrix(1.00, 0.00, -0.00, -1.00, 147.2, 11.4)">o</text><text xml:space="preserve" font-family="Aller,Aller" font-size="36.0" fill="#FEFFFF" transform="matrix(1.00, 0.00, -0.00, -1.00, 168.0, 11.4)"> </text><text xml:space="preserve" font-family="Aller,Aller" font-size="36.0" fill="#FEFFFF" transform="matrix(1.00, 0.00, -0.00, -1.00, 176.5, 11.4)">ﬂ</text><text xml:space="preserve" font-family="Aller,Aller" font-size="36.0" fill="#FEFFFF" transform="matrix(1.00, 0.00, -0.00, -1.00, 199.3, 11.4)">y</text><text xml:space="preserve" font-family="Aller,Aller" font-size="36.0" fill="#FEFFFF" transform="matrix(1.00, 0.00, -0.00, -1.00, 218.4, 11.4)"> </text><text xml:space="preserve" font-family="Aller,Aller" font-size="36.0" fill="#FEFFFF" transform="matrix(1.00, 0.00, -0.00, -1.00, 226.9, 11.4)">i</text><text xml:space="preserve" font-family="Aller,Aller" font-size="36.0" fill="#FEFFFF" transform="matrix(1.00, 0.00, -0.00, -1.00, 237.3, 11.4)">n</text><text xml:space="preserve" font-family="Aller,Aller" font-size="36.0" fill="#FEFFFF" transform="matrix(1.00, 0.00, -0.00, -1.00, 258.1, 11.4)"> </text><text xml:space="preserve" font-family="Aller,Aller" font-size="36.0" fill="#FEFFFF" transform="matrix(1.00, 0.00, -0.00, -1.00, 266.6, 11.4)">a</text><text xml:space="preserve" font-family="Aller,Aller" font-size="36.0" fill="#FEFFFF" transform="matrix(1.00, 0.00, -0.00, -1.00, 285.2, 11.4)">n</text><text xml:space="preserve" font-family="Aller,Aller" font-size="36.0" fill="#FEFFFF" transform="matrix(1.00, 0.00, -0.00, -1.00, 306.0, 11.4)">y</text><text xml:space="preserve" font-family="Aller,Aller" font-size="36.0" fill="#FEFFFF" transform="matrix(1.00, 0.00, -0.00, -1.00, 325.1, 11.4)"> </text><text xml:space="preserve" font-family="Aller,Aller" font-size="36.0" fill="#FEFFFF" transform="matrix(1.00, 0.00, -0.00, -1.00, 333.6, 11.4)">a</text><text xml:space="preserve" font-family="Aller,Aller" font-size="36.0" fill="#FEFFFF" transform="matrix(1.00, 0.00, -0.00, -1.00, 352.2, 11.4)">i</text><text xml:space="preserve" font-family="Aller,Aller" font-size="36.0" fill="#FEFFFF" transform="matrix(1.00, 0.00, -0.00, -1.00, 362.6, 11.4)">r</text><text xml:space="preserve" font-family="Aller,Aller" font-size="36.0" fill="#FEFFFF" transform="matrix(1.00, 0.00, -0.00, -1.00, 375.6, 11.4)">s</text><text xml:space="preserve" font-family="Aller,Aller" font-size="36.0" fill="#FEFFFF" transform="matrix(1.00, 0.00, -0.00, -1.00, 391.9, 11.4)">p</text><text xml:space="preserve" font-family="Aller,Aller" font-size="36.0" fill="#FEFFFF" transform="matrix(1.00, 0.00, -0.00, -1.00, 413.2, 11.4)">a</text><text xml:space="preserve" font-family="Aller,Aller" font-size="36.0" fill="#FEFFFF" transform="matrix(1.00, 0.00, -0.00, -1.00, 431.8, 11.4)">c</text><text xml:space="preserve" font-family="Aller,Aller" font-size="36.0" fill="#FEFFFF" transform="matrix(1.00, 0.00, -0.00, -1.00, 448.5, 11.4)">e</text><text xml:space="preserve" font-family="Aller,Aller" font-size="36.0" fill="#FEFFFF" transform="matrix(1.00, 0.00, -0.00, -1.00, 467.4, 11.4)">*</text><text xml:space="preserve" font-family="Aller,Aller" font-size="36.0" fill="#FEFFFF" transform="matrix(1.00, 0.00, -0.00, -1.00, 484.9, 11.4)">)</text></g></svg>