<?xml version="1.0" encoding="UTF-8" standalone="no"?><svg xmlns="http://www.w3.org/2000/svg" xmlns:xlink="http://www.w3.org/1999/xlink" clip-rule="evenodd" stroke-miterlimit="10" viewBox="0 0 568 82"><desc>SVG generated by Keynote</desc><defs></defs><g transform="matrix(1.00, 0.00, -0.00, -1.00, 0.0, 82.0)"><text xml:space="preserve" font-family="Aller-Bold,Aller" font-weight="bold" font-size="80.0" fill="#A0CCA2" transform="matrix(1.00, 0.00, -0.00, -1.00, -4.2, 21.0)">F</text><text xml:space="preserve" font-family="Aller-Bold,Aller" font-weight="bold" font-size="80.0" fill="#A0CCA2" transform="matrix(1.00, 0.00, -0.00, -1.00, 36.4, 21.0)">l</text><text xml:space="preserve" font-family="Aller-Bold,Aller" font-weight="bold" font-size="80.0" fill="#A0CCA2" transform="matrix(1.00, 0.00, -0.00, -1.00, 62.3, 21.0)">i</text><text xml:space="preserve" font-family="Aller-Bold,Aller" font-weight="bold" font-size="80.0" fill="#A0CCA2" transform="matrix(1.00, 0.00, -0.00, -1.00, 86.9, 21.0)">g</text><text xml:space="preserve" font-family="Aller-Bold,Aller" font-weight="bold" font-size="80.0" fill="#A0CCA2" transform="matrix(1.00, 0.00, -0.00, -1.00, 132.2, 21.0)">h</text><text xml:space="preserve" font-family="Aller-Bold,Aller" font-weight="bold" font-size="80.0" fill="#A0CCA2" transform="matrix(1.00, 0.00, -0.00, -1.00, 179.0, 21.0)">t</text><text xml:space="preserve" font-family="Aller-Bold,Aller" font-weight="bold" font-size="80.0" fill="#A0CCA2" transform="matrix(1.00, 0.00, -0.00, -1.00, 209.7, 21.0)"> </text><text xml:space="preserve" font-family="Aller-Bold,Aller" font-weight="bold" font-size="80.0" fill="#A0CCA2" transform="matrix(1.00, 0.00, -0.00, -1.00, 227.3, 21.0)">C</text><text xml:space="preserve" font-family="Aller-Bold,Aller" font-weight="bold" font-size="80.0" fill="#A0CCA2" transform="matrix(1.00, 0.00, -0.00, -1.00, 275.9, 21.0)">o</text><text xml:space="preserve" font-family="Aller-Bold,Aller" font-weight="bold" font-size="80.0" fill="#A0CCA2" transform="matrix(1.00, 0.00, -0.00, -1.00, 320.7, 21.0)">v</text><text xml:space="preserve" font-family="Aller-Bold,Aller" font-weight="bold" font-size="80.0" fill="#A0CCA2" transform="matrix(1.00, 0.00, -0.00, -1.00, 362.6, 21.0)">e</text><text xml:space="preserve" font-family="Aller-Bold,Aller" font-weight="bold" font-size="80.0" fill="#A0CCA2" transform="matrix(1.00, 0.00, -0.00, -1.00, 407.6, 21.0)">r</text><text xml:space="preserve" font-family="Aller-Bold,Aller" font-weight="bold" font-size="80.0" fill="#A0CCA2" transform="matrix(1.00, 0.00, -0.00, -1.00, 439.0, 21.0)">a</text><text xml:space="preserve" font-family="Aller-Bold,Aller" font-weight="bold" font-size="80.0" fill="#A0CCA2" transform="matrix(1.00, 0.00, -0.00, -1.00, 480.7, 21.0)">g</text><text xml:space="preserve" font-family="Aller-Bold,Aller" font-weight="bold" font-size="80.0" fill="#A0CCA2" transform="matrix(1.00, 0.00, -0.00, -1.00, 525.2, 21.0)">e</text></g></svg>